MulatAbay-Bold.ufo
<glyph name="numbersign" format="2">
  <advance width="1261"/>
  <unicode hex="0023"/>
  <note>
uni0023
</note>
  <outline>
    <contour>
      <point x="595" y="0" type="line"/>
      <point x="778" y="0" type="line"/>
      <point x="850" y="410" type="line"/>
      <point x="1104" y="410" type="line"/>
      <point x="1104" y="582" type="line"/>
      <point x="880" y="582" type="line"/>
      <point x="930" y="866" type="line"/>
      <point x="1180" y="866" type="line"/>
      <point x="1180" y="1040" type="line"/>
      <point x="961" y="1040" type="line"/>
      <point x="1034" y="1456" type="line"/>
      <point x="851" y="1456" type="line"/>
      <point x="778" y="1040" type="line"/>
      <point x="584" y="1040" type="line"/>
      <point x="657" y="1456" type="line"/>
      <point x="475" y="1456" type="line"/>
      <point x="402" y="1040" type="line"/>
      <point x="139" y="1040" type="line"/>
      <point x="139" y="866" type="line"/>
      <point x="371" y="866" type="line"/>
      <point x="321" y="582" type="line"/>
      <point x="64" y="582" type="line"/>
      <point x="64" y="410" type="line"/>
      <point x="291" y="410" type="line"/>
      <point x="219" y="0" type="line"/>
      <point x="402" y="0" type="line"/>
      <point x="474" y="410" type="line"/>
      <point x="667" y="410" type="line"/>
    </contour>
    <contour>
      <point x="504" y="582" type="line"/>
      <point x="553" y="866" type="line"/>
      <point x="747" y="866" type="line"/>
      <point x="697" y="582" type="line"/>
    </contour>
  </outline>
</glyph>
<glyph name="dollar" format="2">
  <advance width="1150"/>
  <unicode hex="0024"/>
  <note>
uni0024
</note>
  <outline>
    <contour>
      <point x="522" y="-215" type="line"/>
      <point x="681" y="-215" type="line"/>
      <point x="681" y="-16" type="line"/>
      <point x="929" y="9.333"/>
      <point x="1079" y="158.333"/>
      <point x="1079" y="385" type="curve" smooth="yes"/>
      <point x="1079" y="566.676"/>
      <point x="991.454" y="677.832"/>
      <point x="840" y="762.5" type="curve" smooth="yes"/>
      <point x="718.243" y="829.704"/>
      <point x="557.328" y="866.158"/>
      <point x="480" y="947" type="curve" smooth="yes"/>
      <point x="398" y="1032"/>
      <point x="419" y="1244"/>
      <point x="608" y="1244" type="curve" smooth="yes"/>
      <point x="718.667" y="1244"/>
      <point x="790" y="1165"/>
      <point x="790" y="1005" type="curve"/>
      <point x="1079" y="1005" type="line"/>
      <point x="1079" y="1265"/>
      <point x="938" y="1436.667"/>
      <point x="702" y="1470" type="curve"/>
      <point x="702" y="1687" type="line"/>
      <point x="542" y="1687" type="line"/>
      <point x="542" y="1473" type="line"/>
      <point x="303.333" y="1449"/>
      <point x="147" y="1295.333"/>
      <point x="147" y="1070" type="curve" smooth="yes"/>
      <point x="147" y="939.333"/>
      <point x="191.167" y="847.5"/>
      <point x="266.5" y="777.5" type="curve" smooth="yes"/>
      <point x="452" y="606"/>
      <point x="790" y="611"/>
      <point x="790" y="383" type="curve" smooth="yes"/>
      <point x="790" y="277.667"/>
      <point x="717.333" y="211"/>
      <point x="600" y="211" type="curve" smooth="yes"/>
      <point x="458.667" y="211"/>
      <point x="381" y="298.333"/>
      <point x="381" y="457" type="curve"/>
      <point x="92" y="457" type="line"/>
      <point x="92" y="184"/>
      <point x="249" y="12"/>
      <point x="522" y="-17" type="curve"/>
    </contour>
  </outline>
</glyph>
<glyph name="parenleft" format="2">
  <advance width="700"/>
  <unicode hex="0028"/>
  <note>
uni0028
</note>
  <outline>
    <contour>
      <point x="623" y="-455" type="curve"/>
      <point x="679" y="-302" type="line"/>
      <point x="567" y="-217"/>
      <point x="482" y="-116"/>
      <point x="430" y="30" type="curve" smooth="yes"/>
      <point x="390" y="142"/>
      <point x="369" y="278"/>
      <point x="369" y="453" type="curve" smooth="yes"/>
      <point x="369" y="668" type="line" smooth="yes"/>
      <point x="369" y="1070"/>
      <point x="484.333" y="1316"/>
      <point x="679" y="1460" type="curve"/>
      <point x="623" y="1616" type="line"/>
      <point x="437.667" y="1533.333"/>
      <point x="266.333" y="1304"/>
      <point x="185" y="1028" type="curve" smooth="yes"/>
      <point x="144.333" y="890"/>
      <point x="124" y="744.667"/>
      <point x="124" y="539" type="curve" smooth="yes"/>
      <point x="124" y="246"/>
      <point x="212.833" y="-33.5"/>
      <point x="369.5" y="-239.5" type="curve" smooth="yes"/>
      <point x="447.833" y="-342.5"/>
      <point x="532.333" y="-414.333"/>
    </contour>
  </outline>
</glyph>
<glyph name="parenright" format="2">
  <advance width="722"/>
  <unicode hex="0029"/>
  <note>
uni0029
</note>
  <outline>
    <contour>
      <point x="96" y="-455" type="line"/>
      <point x="281.333" y="-375"/>
      <point x="457.333" y="-144.667"/>
      <point x="544" y="134" type="curve" smooth="yes"/>
      <point x="587.333" y="273.333"/>
      <point x="609" y="418.333"/>
      <point x="609" y="569" type="curve" smooth="yes"/>
      <point x="606" y="793"/>
      <point x="566" y="993"/>
      <point x="492" y="1163" type="curve" smooth="yes"/>
      <point x="417" y="1337"/>
      <point x="277" y="1537"/>
      <point x="96" y="1616" type="curve"/>
      <point x="40" y="1463" type="line"/>
      <point x="131" y="1392"/>
      <point x="205" y="1284"/>
      <point x="257" y="1144" type="curve" smooth="yes"/>
      <point x="317" y="984"/>
      <point x="349" y="781"/>
      <point x="349" y="541" type="curve" smooth="yes"/>
      <point x="347" y="341"/>
      <point x="315" y="160"/>
      <point x="258" y="13" type="curve" smooth="yes"/>
      <point x="206" y="-124"/>
      <point x="131" y="-233"/>
      <point x="40" y="-302" type="curve"/>
    </contour>
  </outline>
</glyph>
<glyph name="zero" format="2">
  <advance width="1175"/>
  <unicode hex="0030"/>
  <note>
uni0030
</note>
  <outline>
    <contour>
      <point x="588" y="-20" type="curve" smooth="yes"/>
      <point x="909.333" y="-20"/>
      <point x="1079" y="199.333"/>
      <point x="1079" y="602" type="curve" smooth="yes"/>
      <point x="1079" y="870" type="line" smooth="yes"/>
      <point x="1075" y="1260.667"/>
      <point x="903.333" y="1476"/>
      <point x="586" y="1476" type="curve" smooth="yes"/>
      <point x="268.667" y="1476"/>
      <point x="95" y="1261.667"/>
      <point x="95" y="855" type="curve" smooth="yes"/>
      <point x="95" y="587" type="line" smooth="yes"/>
      <point x="99" y="196.333"/>
      <point x="270.667" y="-20"/>
    </contour>
    <contour>
      <point x="588" y="213" type="curve" smooth="yes"/>
      <point x="445.333" y="213"/>
      <point x="384" y="326.667"/>
      <point x="384" y="564" type="curve" smooth="yes"/>
      <point x="384" y="918" type="line" smooth="yes"/>
      <point x="388" y="1140.667"/>
      <point x="450" y="1242"/>
      <point x="586" y="1242" type="curve" smooth="yes"/>
      <point x="726" y="1242"/>
      <point x="790" y="1137.333"/>
      <point x="790" y="896" type="curve" smooth="yes"/>
      <point x="790" y="550" type="line" smooth="yes"/>
      <point x="787.333" y="322"/>
      <point x="729.333" y="213"/>
    </contour>
  </outline>
</glyph>
<glyph name="two" format="2">
  <advance width="1150"/>
  <unicode hex="0032"/>
  <note>
uni0032
</note>
  <outline>
    <contour>
      <point x="99" y="0" type="line"/>
      <point x="1097" y="0" type="line"/>
      <point x="1097" y="233" type="line"/>
      <point x="471" y="233" type="line"/>
      <point x="802" y="582" type="line" smooth="yes"/>
      <point x="983.333" y="780.667"/>
      <point x="1050" y="919"/>
      <point x="1050" y="1063" type="curve" smooth="yes"/>
      <point x="1050" y="1325.667"/>
      <point x="876" y="1476"/>
      <point x="576" y="1476" type="curve" smooth="yes"/>
      <point x="278" y="1476"/>
      <point x="70" y="1272"/>
      <point x="70" y="998" type="curve"/>
      <point x="360" y="998" type="line"/>
      <point x="360" y="1144.667"/>
      <point x="440.333" y="1243"/>
      <point x="571" y="1243" type="curve" smooth="yes"/>
      <point x="692.333" y="1243"/>
      <point x="760" y="1164.333"/>
      <point x="760" y="1035" type="curve" smooth="yes"/>
      <point x="760" y="940.333"/>
      <point x="699.333" y="841.333"/>
      <point x="570" y="700" type="curve" smooth="yes"/>
      <point x="99" y="198" type="line"/>
    </contour>
  </outline>
</glyph>
<glyph name="three" format="2">
  <advance width="1150"/>
  <unicode hex="0033"/>
  <note>
uni0033
</note>
  <outline>
    <contour>
      <point x="559" y="-20" type="curve" smooth="yes"/>
      <point x="869.667" y="-20"/>
      <point x="1075" y="149.333"/>
      <point x="1075" y="408" type="curve" smooth="yes"/>
      <point x="1075" y="568"/>
      <point x="995" y="689.333"/>
      <point x="831" y="748" type="curve"/>
      <point x="963" y="808"/>
      <point x="1052" y="927.667"/>
      <point x="1052" y="1061" type="curve" smooth="yes"/>
      <point x="1052" y="1319.667"/>
      <point x="867" y="1476"/>
      <point x="559" y="1476" type="curve" smooth="yes"/>
      <point x="304" y="1476"/>
      <point x="82" y="1325"/>
      <point x="82" y="1079" type="curve"/>
      <point x="371" y="1079" type="line"/>
      <point x="371" y="1176.333"/>
      <point x="455.333" y="1243"/>
      <point x="566" y="1243" type="curve" smooth="yes"/>
      <point x="688.667" y="1243"/>
      <point x="763" y="1174.333"/>
      <point x="763" y="1057" type="curve" smooth="yes"/>
      <point x="763" y="935.667"/>
      <point x="693.667" y="856"/>
      <point x="547" y="856" type="curve" smooth="yes"/>
      <point x="393" y="856" type="line"/>
      <point x="393" y="630" type="line"/>
      <point x="546" y="630" type="line" smooth="yes"/>
      <point x="706" y="630"/>
      <point x="786" y="557.333"/>
      <point x="786" y="412" type="curve" smooth="yes"/>
      <point x="786" y="292"/>
      <point x="703.333" y="213"/>
      <point x="566" y="213" type="curve" smooth="yes"/>
      <point x="446" y="213"/>
      <point x="353" y="289.667"/>
      <point x="353" y="399" type="curve"/>
      <point x="64" y="399" type="line"/>
      <point x="64" y="147"/>
      <point x="268.333" y="-20"/>
    </contour>
  </outline>
</glyph>
<glyph name="four" format="2">
  <advance width="1150"/>
  <unicode hex="0034"/>
  <note>
uni0034
</note>
  <outline>
    <contour>
      <point x="954" y="1456" type="line"/>
      <point x="662" y="1456" type="line"/>
      <point x="55" y="497" type="line"/>
      <point x="68" y="315" type="line"/>
      <point x="665" y="315" type="line"/>
      <point x="665" y="0" type="line"/>
      <point x="954" y="0" type="line"/>
      <point x="954" y="315" type="line"/>
      <point x="1119" y="315" type="line"/>
      <point x="1119" y="548" type="line"/>
      <point x="954" y="548" type="line"/>
    </contour>
    <contour>
      <point x="343" y="548" type="line"/>
      <point x="646" y="1029" type="line"/>
      <point x="665" y="1062" type="line"/>
      <point x="665" y="548" type="line"/>
    </contour>
  </outline>
</glyph>
<glyph name="five" format="2">
  <advance width="1150"/>
  <unicode hex="0035"/>
  <note>
uni0035
</note>
  <outline>
    <contour>
      <point x="598" y="-20" type="curve" smooth="yes"/>
      <point x="913" y="-20"/>
      <point x="1090" y="191"/>
      <point x="1090" y="467" type="curve" smooth="yes"/>
      <point x="1090" y="776.333"/>
      <point x="923.333" y="957"/>
      <point x="646" y="957" type="curve" smooth="yes"/>
      <point x="568.667" y="957"/>
      <point x="495.667" y="938.667"/>
      <point x="427" y="902" type="curve"/>
      <point x="463" y="1215" type="line"/>
      <point x="1042" y="1215" type="line"/>
      <point x="1042" y="1456" type="line"/>
      <point x="226" y="1456" type="line"/>
      <point x="142" y="716" type="line"/>
      <point x="372" y="659" type="line"/>
      <point x="441" y="723"/>
      <point x="498.333" y="739"/>
      <point x="567" y="739" type="curve" smooth="yes"/>
      <point x="716.333" y="739"/>
      <point x="801" y="648.333"/>
      <point x="801" y="483" type="curve" smooth="yes"/>
      <point x="801" y="311"/>
      <point x="727.667" y="213"/>
      <point x="597" y="213" type="curve" smooth="yes"/>
      <point x="479.667" y="213"/>
      <point x="403" y="283.667"/>
      <point x="391" y="405" type="curve"/>
      <point x="105" y="405" type="line"/>
      <point x="116.184" y="29.12"/>
      <point x="466" y="-20"/>
    </contour>
  </outline>
</glyph>
<glyph name="six" format="2">
  <advance width="1175"/>
  <unicode hex="0036"/>
  <note>
uni0036
</note>
  <outline>
    <contour>
      <point x="613" y="-20" type="curve" smooth="yes"/>
      <point x="1038.486" y="-18.026"/>
      <point x="1103" y="410"/>
      <point x="1103" y="480" type="curve" smooth="yes"/>
      <point x="1103" y="776"/>
      <point x="942.333" y="974"/>
      <point x="689" y="974" type="curve" smooth="yes"/>
      <point x="571" y="974"/>
      <point x="473.333" y="934.667"/>
      <point x="396" y="856" type="curve"/>
      <point x="428" y="1090.667"/>
      <point x="593.667" y="1229"/>
      <point x="855" y="1233" type="curve" smooth="yes"/>
      <point x="883" y="1233" type="line"/>
      <point x="883" y="1471" type="line"/>
      <point x="378" y="1469"/>
      <point x="100" y="1144"/>
      <point x="100" y="671" type="curve" smooth="yes"/>
      <point x="100" y="567" type="line" smooth="yes"/>
      <point x="100" y="211"/>
      <point x="306.333" y="-20"/>
    </contour>
    <contour>
      <point x="607" y="213" type="curve" smooth="yes"/>
      <point x="469.667" y="213"/>
      <point x="390" y="327.667"/>
      <point x="390" y="521" type="curve" smooth="yes"/>
      <point x="390" y="609" type="line"/>
      <point x="426" y="689"/>
      <point x="507.667" y="742"/>
      <point x="601" y="742" type="curve" smooth="yes"/>
      <point x="731.667" y="742"/>
      <point x="815" y="635.667"/>
      <point x="815" y="477" type="curve" smooth="yes"/>
      <point x="815" y="321"/>
      <point x="731" y="213"/>
    </contour>
  </outline>
</glyph>
<glyph name="eight" format="2">
  <advance width="1175"/>
  <unicode hex="0038"/>
  <note>
uni0038
</note>
  <outline>
    <contour>
      <point x="588" y="-20" type="curve" smooth="yes"/>
      <point x="890.667" y="-20"/>
      <point x="1079" y="140.333"/>
      <point x="1079" y="399" type="curve" smooth="yes"/>
      <point x="1079" y="560.333"/>
      <point x="990.333" y="682"/>
      <point x="849" y="750" type="curve"/>
      <point x="973" y="815.333"/>
      <point x="1048" y="927.667"/>
      <point x="1048" y="1069" type="curve" smooth="yes"/>
      <point x="1048" y="1319.667"/>
      <point x="869.667" y="1476"/>
      <point x="587" y="1476" type="curve" smooth="yes"/>
      <point x="303" y="1476"/>
      <point x="126" y="1317"/>
      <point x="126" y="1069" type="curve" smooth="yes"/>
      <point x="126" y="927.667"/>
      <point x="200" y="815.333"/>
      <point x="324" y="750" type="curve"/>
      <point x="184" y="683.333"/>
      <point x="95" y="560.333"/>
      <point x="95" y="399" type="curve" smooth="yes"/>
      <point x="95" y="141.667"/>
      <point x="285.333" y="-20"/>
    </contour>
    <contour>
      <point x="588" y="213" type="curve" smooth="yes"/>
      <point x="460" y="213"/>
      <point x="384" y="296"/>
      <point x="384" y="420" type="curve" smooth="yes"/>
      <point x="384" y="548"/>
      <point x="463.333" y="629"/>
      <point x="586" y="629" type="curve" smooth="yes"/>
      <point x="710" y="629"/>
      <point x="789" y="546.667"/>
      <point x="789" y="420" type="curve" smooth="yes"/>
      <point x="789" y="290.667"/>
      <point x="713.333" y="213"/>
    </contour>
    <contour>
      <point x="588" y="862" type="curve" smooth="yes"/>
      <point x="478.667" y="862"/>
      <point x="416" y="939"/>
      <point x="416" y="1055" type="curve" smooth="yes"/>
      <point x="416" y="1172.333"/>
      <point x="479" y="1243"/>
      <point x="587" y="1243" type="curve" smooth="yes"/>
      <point x="696.333" y="1243"/>
      <point x="759" y="1168.333"/>
      <point x="759" y="1055" type="curve" smooth="yes"/>
      <point x="759" y="939"/>
      <point x="697.333" y="862"/>
    </contour>
  </outline>
</glyph>
<glyph name="nine" format="2">
  <advance width="1150"/>
  <unicode hex="0039"/>
  <note>
uni0039
</note>
  <outline>
    <contour>
      <point x="303" y="-14" type="line"/>
      <point x="374" y="-13" type="line" smooth="yes"/>
      <point x="817" y="-7"/>
      <point x="1068" y="295.667"/>
      <point x="1068" y="781" type="curve" smooth="yes"/>
      <point x="1068" y="888" type="line" smooth="yes"/>
      <point x="1068" y="1120"/>
      <point x="980.333" y="1308"/>
      <point x="831" y="1404" type="curve" smooth="yes"/>
      <point x="756.333" y="1452"/>
      <point x="671" y="1476"/>
      <point x="575" y="1476" type="curve" smooth="yes"/>
      <point x="133" y="1477"/>
      <point x="86" y="1088"/>
      <point x="86" y="961" type="curve" smooth="yes"/>
      <point x="86" y="773"/>
      <point x="152" y="628"/>
      <point x="265" y="546" type="curve" smooth="yes"/>
      <point x="332" y="497"/>
      <point x="415" y="471"/>
      <point x="511" y="471" type="curve" smooth="yes"/>
      <point x="611.667" y="471"/>
      <point x="699.667" y="508"/>
      <point x="775" y="582" type="curve"/>
      <point x="754.333" y="357.333"/>
      <point x="619" y="232"/>
      <point x="367" y="228" type="curve" smooth="yes"/>
      <point x="303" y="227" type="line"/>
    </contour>
    <contour>
      <point x="582" y="692" type="curve" smooth="yes"/>
      <point x="450" y="692"/>
      <point x="374" y="805.333"/>
      <point x="374" y="964" type="curve" smooth="yes"/>
      <point x="374" y="1124"/>
      <point x="457" y="1243"/>
      <point x="573" y="1243" type="curve" smooth="yes"/>
      <point x="698.333" y="1243"/>
      <point x="779" y="1130"/>
      <point x="779" y="934" type="curve" smooth="yes"/>
      <point x="779" y="815" type="line" smooth="yes"/>
      <point x="779" y="739"/>
      <point x="675" y="692"/>
    </contour>
  </outline>
</glyph>
<glyph name="less" format="2">
  <advance width="1042"/>
  <unicode hex="003C"/>
  <note>
uni003C
</note>
  <outline>
    <contour>
      <point x="915" y="137" type="line"/>
      <point x="915" y="417" type="line"/>
      <point x="345" y="618" type="line"/>
      <point x="915" y="823" type="line"/>
      <point x="915" y="1103" type="line"/>
      <point x="54" y="738" type="line"/>
      <point x="54" y="502" type="line"/>
    </contour>
  </outline>
</glyph>
<glyph name="question" format="2">
  <advance width="1019"/>
  <unicode hex="003F"/>
  <note>
uni003F
</note>
  <outline>
    <contour>
      <point x="347" y="447" type="curve"/>
      <point x="603" y="447" type="line"/>
      <point x="614.333" y="573.333"/>
      <point x="643" y="630"/>
      <point x="694" y="679" type="curve" smooth="yes"/>
      <point x="902" y="879"/>
      <point x="946" y="970.667"/>
      <point x="946" y="1084" type="curve" smooth="yes"/>
      <point x="946" y="1333.333"/>
      <point x="782.667" y="1476"/>
      <point x="500" y="1476" type="curve" smooth="yes"/>
      <point x="220" y="1476"/>
      <point x="47.667" y="1323.667"/>
      <point x="45" y="1069" type="curve"/>
      <point x="335" y="1069" type="line"/>
      <point x="337.667" y="1175.667"/>
      <point x="401.333" y="1240"/>
      <point x="500" y="1240" type="curve" smooth="yes"/>
      <point x="604" y="1240"/>
      <point x="656" y="1183.667"/>
      <point x="656" y="1071" type="curve" smooth="yes"/>
      <point x="656" y="996.333"/>
      <point x="626.167" y="940.833"/>
      <point x="505.5" y="833.5" type="curve" smooth="yes"/>
      <point x="384.833" y="726.167"/>
      <point x="347" y="633.667"/>
    </contour>
    <contour>
      <point x="480" y="-12" type="curve" smooth="yes"/>
      <point x="577.333" y="-12"/>
      <point x="642" y="52"/>
      <point x="642" y="140" type="curve" smooth="yes"/>
      <point x="642" y="229.333"/>
      <point x="574.667" y="294"/>
      <point x="480" y="294" type="curve" smooth="yes"/>
      <point x="385.333" y="294"/>
      <point x="318" y="229.333"/>
      <point x="318" y="140" type="curve" smooth="yes"/>
      <point x="318" y="52"/>
      <point x="382.667" y="-12"/>
    </contour>
  </outline>
</glyph>
<glyph name="C" format="2">
  <advance width="1333"/>
  <unicode hex="0043"/>
  <note>
uni0043
</note>
  <outline>
    <contour>
      <point x="687" y="-20" type="curve" smooth="yes"/>
      <point x="1028.333" y="-20"/>
      <point x="1250.333" y="171.667"/>
      <point x="1273" y="485" type="curve"/>
      <point x="973" y="485" type="line"/>
      <point x="959.667" y="307.667"/>
      <point x="872.333" y="225"/>
      <point x="687" y="225" type="curve" smooth="yes"/>
      <point x="481.667" y="225"/>
      <point x="390" y="364.333"/>
      <point x="390" y="679" type="curve" smooth="yes"/>
      <point x="390" y="789" type="line" smooth="yes"/>
      <point x="392.667" y="1090.333"/>
      <point x="491" y="1230"/>
      <point x="691" y="1230" type="curve" smooth="yes"/>
      <point x="875" y="1230"/>
      <point x="960.333" y="1150"/>
      <point x="975" y="962" type="curve"/>
      <point x="1275" y="962" type="line"/>
      <point x="1243" y="1287.333"/>
      <point x="1027" y="1476"/>
      <point x="691" y="1476" type="curve" smooth="yes"/>
      <point x="292" y="1476"/>
      <point x="86" y="1167"/>
      <point x="86" y="686" type="curve" smooth="yes"/>
      <point x="86" y="247.333"/>
      <point x="313.667" y="-20"/>
    </contour>
  </outline>
</glyph>
<glyph name="D" format="2">
  <advance width="1343"/>
  <unicode hex="0044"/>
  <note>
uni0044
</note>
  <outline>
    <contour>
      <point x="130" y="0" type="line"/>
      <point x="581" y="0" type="line" smooth="yes"/>
      <point x="1164" y="0"/>
      <point x="1243" y="588"/>
      <point x="1243" y="694" type="curve" smooth="yes"/>
      <point x="1243" y="761" type="line" smooth="yes"/>
      <point x="1243" y="1164"/>
      <point x="982" y="1456"/>
      <point x="578" y="1456" type="curve" smooth="yes"/>
      <point x="130" y="1456" type="line"/>
    </contour>
    <contour>
      <point x="430" y="241" type="line"/>
      <point x="430" y="1213" type="line"/>
      <point x="578" y="1213" type="line" smooth="yes"/>
      <point x="814" y="1213"/>
      <point x="939" y="1058"/>
      <point x="939" y="762" type="curve" smooth="yes"/>
      <point x="939" y="685" type="line" smooth="yes"/>
      <point x="939" y="400"/>
      <point x="809.667" y="241"/>
      <point x="575" y="241" type="curve" smooth="yes"/>
    </contour>
  </outline>
</glyph>
<glyph name="G" format="2">
  <advance width="1395"/>
  <unicode hex="0047"/>
  <note>
uni0047
</note>
  <outline>
    <contour>
      <point x="725" y="-20" type="curve" smooth="yes"/>
      <point x="965" y="-20"/>
      <point x="1174" y="54.667"/>
      <point x="1282" y="184" type="curve"/>
      <point x="1282" y="765" type="line"/>
      <point x="709" y="765" type="line"/>
      <point x="709" y="544" type="line"/>
      <point x="982" y="544" type="line"/>
      <point x="982" y="293" type="line"/>
      <point x="934" y="245"/>
      <point x="853.667" y="221"/>
      <point x="741" y="221" type="curve" smooth="yes"/>
      <point x="517" y="221"/>
      <point x="399" y="378.667"/>
      <point x="399" y="684" type="curve" smooth="yes"/>
      <point x="399" y="777" type="line" smooth="yes"/>
      <point x="400.333" y="1079.667"/>
      <point x="509" y="1234"/>
      <point x="713" y="1234" type="curve" smooth="yes"/>
      <point x="873" y="1234"/>
      <point x="963.333" y="1159.667"/>
      <point x="990" y="993" type="curve"/>
      <point x="1282" y="993" type="line"/>
      <point x="1246" y="1307.667"/>
      <point x="1049.333" y="1476"/>
      <point x="704" y="1476" type="curve" smooth="yes"/>
      <point x="298" y="1476"/>
      <point x="94" y="1176"/>
      <point x="94" y="770" type="curve" smooth="yes"/>
      <point x="94" y="671" type="line" smooth="yes"/>
      <point x="100.52" y="129.707"/>
      <point x="546" y="-20"/>
    </contour>
  </outline>
</glyph>
<glyph name="J" format="2">
  <advance width="1144"/>
  <unicode hex="004A"/>
  <note>
uni004A
</note>
  <outline>
    <contour>
      <point x="529" y="-20" type="curve" smooth="yes"/>
      <point x="957.14" y="-16.918"/>
      <point x="1017" y="377"/>
      <point x="1017" y="448" type="curve" smooth="yes"/>
      <point x="1017" y="1456" type="line"/>
      <point x="717" y="1456" type="line"/>
      <point x="717" y="448" type="line" smooth="yes"/>
      <point x="717" y="302.667"/>
      <point x="643.667" y="221"/>
      <point x="529" y="221" type="curve" smooth="yes"/>
      <point x="399.667" y="221"/>
      <point x="342" y="287.333"/>
      <point x="342" y="430" type="curve"/>
      <point x="40" y="430" type="line"/>
      <point x="40" y="143.333"/>
      <point x="221" y="-20"/>
    </contour>
  </outline>
</glyph>
<glyph name="M" format="2">
  <advance width="1794"/>
  <unicode hex="004D"/>
  <note>
uni004D
</note>
  <outline>
    <contour>
      <point x="130" y="0" type="line"/>
      <point x="430" y="0" type="line"/>
      <point x="400" y="1084" type="line" name="❌"/>
      <point x="792" y="0" type="line"/>
      <point x="998" y="0" type="line"/>
      <point x="1391" y="1085" type="line" name="❌"/>
      <point x="1361" y="0" type="line"/>
      <point x="1662" y="0" type="line"/>
      <point x="1662" y="1456" type="line"/>
      <point x="1268" y="1456" type="line"/>
      <point x="896" y="400" type="line"/>
      <point x="522" y="1456" type="line"/>
      <point x="130" y="1456" type="line"/>
    </contour>
  </outline>
</glyph>
<glyph name="N" format="2">
  <advance width="1446"/>
  <unicode hex="004E"/>
  <note>
uni004E
</note>
  <outline>
    <contour>
      <point x="130" y="0" type="line"/>
      <point x="430" y="0" type="line"/>
      <point x="430" y="958" type="line"/>
      <point x="1014" y="0" type="line"/>
      <point x="1314" y="0" type="line"/>
      <point x="1314" y="1456" type="line"/>
      <point x="1015" y="1456" type="line"/>
      <point x="1015" y="496" type="line"/>
      <point x="430" y="1456" type="line"/>
      <point x="130" y="1456" type="line"/>
    </contour>
  </outline>
</glyph>
<glyph name="P" format="2">
  <advance width="1292"/>
  <unicode hex="0050"/>
  <note>
uni0050
</note>
  <outline>
    <contour>
      <point x="130" y="0" type="line"/>
      <point x="430" y="0" type="line"/>
      <point x="430" y="513" type="line"/>
      <point x="693" y="513" type="line" smooth="yes"/>
      <point x="1038.333" y="513"/>
      <point x="1245" y="688.667"/>
      <point x="1245" y="974" type="curve" smooth="yes"/>
      <point x="1242.593" y="1323.966"/>
      <point x="854" y="1456"/>
      <point x="698" y="1456" type="curve" smooth="yes"/>
      <point x="130" y="1456" type="line"/>
    </contour>
    <contour>
      <point x="430" y="756" type="line"/>
      <point x="430" y="1213" type="line"/>
      <point x="705" y="1213" type="line" smooth="yes"/>
      <point x="853" y="1210.333"/>
      <point x="942" y="1114.667"/>
      <point x="942" y="972" type="curve" smooth="yes"/>
      <point x="942" y="833.333"/>
      <point x="856.667" y="756"/>
      <point x="698" y="756" type="curve" smooth="yes"/>
    </contour>
  </outline>
</glyph>
<glyph name="Q" format="2">
  <advance width="1408"/>
  <unicode hex="0051"/>
  <note>
uni0051
</note>
  <outline>
    <contour>
      <point x="1126" y="-260" type="line"/>
      <point x="1317" y="-91" type="line"/>
      <point x="1075" y="99" type="line"/>
      <point x="1231" y="220.333"/>
      <point x="1324" y="423"/>
      <point x="1324" y="695" type="curve" smooth="yes"/>
      <point x="1324" y="760" type="line" smooth="yes"/>
      <point x="1324" y="1045.333"/>
      <point x="1216.167" y="1271.833"/>
      <point x="1027.5" y="1388.5" type="curve" smooth="yes"/>
      <point x="933.167" y="1446.833"/>
      <point x="825.333" y="1476"/>
      <point x="704" y="1476" type="curve" smooth="yes"/>
      <point x="461.333" y="1476"/>
      <point x="264.833" y="1355.5"/>
      <point x="161.5" y="1137.5" type="curve" smooth="yes"/>
      <point x="109.833" y="1028.5"/>
      <point x="84" y="902.333"/>
      <point x="84" y="759" type="curve" smooth="yes"/>
      <point x="84" y="687" type="line" smooth="yes"/>
      <point x="85.333" y="407"/>
      <point x="193.667" y="183"/>
      <point x="383" y="67" type="curve" smooth="yes"/>
      <point x="534" y="-25"/>
      <point x="701" y="-30"/>
      <point x="816" y="-11" type="curve"/>
    </contour>
    <contour>
      <point x="706" y="226" type="curve" smooth="yes"/>
      <point x="500.667" y="226"/>
      <point x="388" y="397.667"/>
      <point x="388" y="695" type="curve" smooth="yes"/>
      <point x="388" y="766" type="line" smooth="yes"/>
      <point x="389.333" y="1068.667"/>
      <point x="502.667" y="1228"/>
      <point x="704" y="1228" type="curve" smooth="yes"/>
      <point x="906.667" y="1228"/>
      <point x="1020" y="1066.333"/>
      <point x="1020" y="761" type="curve" smooth="yes"/>
      <point x="1020" y="690" type="line" smooth="yes"/>
      <point x="1018.667" y="387.333"/>
      <point x="907.333" y="226"/>
    </contour>
  </outline>
</glyph>
<glyph name="T" format="2">
  <advance width="1222"/>
  <unicode hex="0054"/>
  <note>
uni0054
</note>
  <outline>
    <contour>
      <point x="1226" y="1456" type="line"/>
      <point x="40" y="1456" type="line"/>
      <point x="40" y="1213" type="line"/>
      <point x="480" y="1213" type="line"/>
      <point x="480" y="0" type="line"/>
      <point x="780" y="0" type="line"/>
      <point x="780" y="1213" type="line"/>
      <point x="1226" y="1213" type="line"/>
    </contour>
  </outline>
</glyph>
<glyph name="U" format="2">
  <advance width="1328"/>
  <unicode hex="0055"/>
  <note>
uni0055
</note>
  <anchor x="337" y="1089" name="he"/>
  <outline>
    <contour>
      <point x="674" y="-20" type="curve" smooth="yes"/>
      <point x="1019.333" y="-20"/>
      <point x="1232" y="178.333"/>
      <point x="1232" y="497" type="curve" smooth="yes"/>
      <point x="1232" y="1456" type="line"/>
      <point x="931" y="1456" type="line"/>
      <point x="931" y="487" type="line" smooth="yes"/>
      <point x="928.333" y="309.667"/>
      <point x="842.667" y="221"/>
      <point x="674" y="221" type="curve" smooth="yes"/>
      <point x="512.667" y="221"/>
      <point x="416" y="304.333"/>
      <point x="416" y="495" type="curve" smooth="yes"/>
      <point x="416" y="1456" type="line"/>
      <point x="116" y="1456" type="line"/>
      <point x="116" y="486" type="line" smooth="yes"/>
      <point x="120" y="171.333"/>
      <point x="334" y="-20"/>
    </contour>
  </outline>
</glyph>
<glyph name="asciicircum" format="2">
  <advance width="856"/>
  <unicode hex="005E"/>
  <note>
uni005E
</note>
  <outline>
    <contour>
      <point x="623" y="729" type="line"/>
      <point x="852" y="729" type="line"/>
      <point x="553" y="1456" type="line"/>
      <point x="343" y="1456" type="line"/>
      <point x="44" y="729" type="line"/>
      <point x="274" y="729" type="line"/>
      <point x="448" y="1186" type="line"/>
    </contour>
  </outline>
</glyph>
<glyph name="grave" format="2">
  <advance width="633"/>
  <unicode hex="0060"/>
  <note>
uni0060
</note>
  <outline>
    <contour>
      <point x="367" y="1536" type="line"/>
      <point x="52" y="1536" type="line"/>
      <point x="328" y="1226" type="line"/>
      <point x="565" y="1226" type="line"/>
    </contour>
  </outline>
</glyph>
<glyph name="a" format="2">
  <advance width="1114"/>
  <unicode hex="0061"/>
  <note>
uni0061
</note>
  <outline>
    <contour>
      <point x="436" y="-20" type="curve" smooth="yes"/>
      <point x="548" y="-20"/>
      <point x="639" y="19"/>
      <point x="709" y="97" type="curve"/>
      <point x="715" y="58.333"/>
      <point x="724.667" y="26"/>
      <point x="738" y="0" type="curve"/>
      <point x="1030" y="0" type="line"/>
      <point x="1030" y="17" type="line"/>
      <point x="1002" y="69.667"/>
      <point x="987.667" y="147.333"/>
      <point x="987" y="250" type="curve" smooth="yes"/>
      <point x="987" y="719" type="line" smooth="yes"/>
      <point x="987" y="961.667"/>
      <point x="818.667" y="1102"/>
      <point x="552" y="1102" type="curve" smooth="yes"/>
      <point x="311" y="1102"/>
      <point x="92" y="972"/>
      <point x="92" y="757" type="curve"/>
      <point x="381" y="757" type="line"/>
      <point x="381" y="838.333"/>
      <point x="439.667" y="888"/>
      <point x="537" y="888" type="curve" smooth="yes"/>
      <point x="647.667" y="888"/>
      <point x="697" y="823"/>
      <point x="697" y="723" type="curve" smooth="yes"/>
      <point x="697" y="661" type="line"/>
      <point x="564" y="661" type="line" smooth="yes"/>
      <point x="242.667" y="659.667"/>
      <point x="68" y="533.333"/>
      <point x="68" y="304" type="curve" smooth="yes"/>
      <point x="68" y="117.333"/>
      <point x="224" y="-20"/>
    </contour>
    <contour>
      <point x="499" y="201" type="curve" smooth="yes"/>
      <point x="411" y="201"/>
      <point x="357" y="253"/>
      <point x="357" y="325" type="curve" smooth="yes"/>
      <point x="367.333" y="442"/>
      <point x="444.333" y="492"/>
      <point x="589" y="492" type="curve" smooth="yes"/>
      <point x="697" y="492" type="line"/>
      <point x="697" y="306" type="line"/>
      <point x="662.333" y="242"/>
      <point x="584.333" y="201"/>
    </contour>
  </outline>
</glyph>
<glyph name="b" format="2">
  <advance width="1153"/>
  <unicode hex="0062"/>
  <note>
uni0062
</note>
  <outline>
    <contour>
      <point x="665" y="-20" type="curve" smooth="yes"/>
      <point x="930.333" y="-20"/>
      <point x="1086" y="184.333"/>
      <point x="1086" y="531" type="curve" smooth="yes"/>
      <point x="1086" y="547" type="line" smooth="yes"/>
      <point x="1086" y="899"/>
      <point x="927" y="1102"/>
      <point x="663" y="1102" type="curve" smooth="yes"/>
      <point x="554.333" y="1102"/>
      <point x="466.667" y="1063"/>
      <point x="400" y="985" type="curve"/>
      <point x="400" y="1536" type="line"/>
      <point x="111" y="1536" type="line"/>
      <point x="111" y="0" type="line"/>
      <point x="371" y="0" type="line"/>
      <point x="384" y="115" type="line"/>
      <point x="454" y="25"/>
      <point x="547.667" y="-20"/>
    </contour>
    <contour>
      <point x="592" y="213" type="curve" smooth="yes"/>
      <point x="499.333" y="213"/>
      <point x="435.333" y="251"/>
      <point x="400" y="327" type="curve"/>
      <point x="400" y="754" type="line"/>
      <point x="434.667" y="829.333"/>
      <point x="498" y="867"/>
      <point x="590" y="867" type="curve" smooth="yes"/>
      <point x="727.333" y="867"/>
      <point x="797" y="770.667"/>
      <point x="797" y="552" type="curve" smooth="yes"/>
      <point x="797" y="372"/>
      <point x="772" y="213"/>
    </contour>
  </outline>
</glyph>
<glyph name="c" format="2">
  <advance width="1068"/>
  <unicode hex="0063"/>
  <note>
uni0063
</note>
  <outline>
    <contour>
      <point x="566" y="-20" type="curve" smooth="yes"/>
      <point x="812" y="-20"/>
      <point x="1012" y="141"/>
      <point x="1014" y="374" type="curve"/>
      <point x="743" y="374" type="line"/>
      <point x="740.333" y="276.667"/>
      <point x="667.667" y="213"/>
      <point x="561" y="213" type="curve" smooth="yes"/>
      <point x="422.333" y="213"/>
      <point x="355" y="303.333"/>
      <point x="355" y="526" type="curve" smooth="yes"/>
      <point x="355" y="556" type="line" smooth="yes"/>
      <point x="355" y="776"/>
      <point x="424.333" y="868"/>
      <point x="559" y="868" type="curve" smooth="yes"/>
      <point x="668.333" y="868"/>
      <point x="740.333" y="791"/>
      <point x="743" y="679" type="curve"/>
      <point x="1014" y="679" type="line"/>
      <point x="1011.333" y="935"/>
      <point x="834.667" y="1102"/>
      <point x="564" y="1102" type="curve" smooth="yes"/>
      <point x="254.667" y="1102"/>
      <point x="66" y="887.333"/>
      <point x="66" y="554" type="curve" smooth="yes"/>
      <point x="66" y="535" type="line" smooth="yes"/>
      <point x="66" y="188.333"/>
      <point x="256.667" y="-20"/>
    </contour>
  </outline>
</glyph>
<glyph name="e" format="2">
  <advance width="1085"/>
  <unicode hex="0065"/>
  <note>
uni0065
</note>
  <outline>
    <contour>
      <point x="609" y="-20" type="curve" smooth="yes"/>
      <point x="789" y="-20"/>
      <point x="944.333" y="52.333"/>
      <point x="1031" y="175" type="curve"/>
      <point x="889" y="334" type="line"/>
      <point x="826.333" y="253.333"/>
      <point x="739.333" y="213"/>
      <point x="628" y="213" type="curve" smooth="yes"/>
      <point x="484" y="213"/>
      <point x="383.667" y="305.667"/>
      <point x="365" y="447" type="curve"/>
      <point x="1054" y="447" type="line"/>
      <point x="1054" y="565" type="line" smooth="yes"/>
      <point x="1054" y="907.667"/>
      <point x="873" y="1102"/>
      <point x="577" y="1102" type="curve" smooth="yes"/>
      <point x="374" y="1102"/>
      <point x="239" y="975"/>
      <point x="161" y="831" type="curve" smooth="yes"/>
      <point x="99" y="719"/>
      <point x="72" y="596"/>
      <point x="72" y="515" type="curve" smooth="yes"/>
      <point x="72" y="191"/>
      <point x="291.667" y="-20"/>
    </contour>
    <contour>
      <point x="368" y="644" type="line"/>
      <point x="388" y="788"/>
      <point x="461.333" y="868"/>
      <point x="576" y="868" type="curve" smooth="yes"/>
      <point x="698.667" y="868"/>
      <point x="767.333" y="795"/>
      <point x="770" y="667" type="curve" smooth="yes"/>
      <point x="770" y="644" type="line"/>
    </contour>
  </outline>
</glyph>
<glyph name="g" format="2">
  <advance width="1149"/>
  <unicode hex="0067"/>
  <note>
uni0067
</note>
  <outline>
    <contour>
      <point x="538" y="-426" type="curve" smooth="yes"/>
      <point x="845" y="-426"/>
      <point x="1058" y="-261"/>
      <point x="1058" y="36" type="curve" smooth="yes"/>
      <point x="1058" y="1082" type="line"/>
      <point x="796" y="1082" type="line"/>
      <point x="784" y="980" type="line"/>
      <point x="718" y="1061.333"/>
      <point x="625.667" y="1102"/>
      <point x="507" y="1102" type="curve" smooth="yes"/>
      <point x="239" y="1102"/>
      <point x="69" y="881"/>
      <point x="69" y="549" type="curve" smooth="yes"/>
      <point x="69" y="201"/>
      <point x="245" y="-20"/>
      <point x="505" y="-20" type="curve" smooth="yes"/>
      <point x="613.667" y="-20"/>
      <point x="701.333" y="17.667"/>
      <point x="768" y="93" type="curve"/>
      <point x="768" y="35" type="line" smooth="yes"/>
      <point x="768" y="-115.667"/>
      <point x="678.333" y="-201"/>
      <point x="525" y="-201" type="curve" smooth="yes"/>
      <point x="422.333" y="-201"/>
      <point x="335" y="-160.667"/>
      <point x="263" y="-80" type="curve"/>
      <point x="135" y="-256" type="line"/>
      <point x="212.333" y="-356"/>
      <point x="379.333" y="-426"/>
    </contour>
    <contour>
      <point x="579" y="214" type="curve" smooth="yes"/>
      <point x="441.667" y="214"/>
      <point x="358" y="332"/>
      <point x="358" y="528" type="curve" smooth="yes"/>
      <point x="358" y="753.333"/>
      <point x="442.333" y="867"/>
      <point x="581" y="867" type="curve" smooth="yes"/>
      <point x="667" y="867"/>
      <point x="729.333" y="834"/>
      <point x="768" y="768" type="curve"/>
      <point x="768" y="313" type="line"/>
      <point x="730" y="247"/>
      <point x="667" y="214"/>
    </contour>
  </outline>
</glyph>
<glyph name="j" format="2">
  <advance width="489"/>
  <unicode hex="006A"/>
  <note>
uni006A
</note>
  <outline>
    <contour>
      <point x="48" y="-437" type="curve" smooth="yes"/>
      <point x="286.667" y="-437"/>
      <point x="417" y="-297.667"/>
      <point x="417" y="-59" type="curve" smooth="yes"/>
      <point x="417" y="1082" type="line"/>
      <point x="127" y="1082" type="line"/>
      <point x="127" y="-61" type="line" smooth="yes"/>
      <point x="127" y="-153.667"/>
      <point x="83.333" y="-200"/>
      <point x="-4" y="-200" type="curve" smooth="yes"/>
      <point x="-30" y="-200"/>
      <point x="-60.333" y="-197"/>
      <point x="-95" y="-191" type="curve"/>
      <point x="-95" y="-420" type="line"/>
      <point x="-49.667" y="-431.333"/>
      <point x="-2" y="-437"/>
    </contour>
    <contour>
      <point x="266" y="1212" type="curve" smooth="yes"/>
      <point x="363.333" y="1212"/>
      <point x="428" y="1274"/>
      <point x="428" y="1362" type="curve" smooth="yes"/>
      <point x="428" y="1448.667"/>
      <point x="366" y="1511"/>
      <point x="266" y="1511" type="curve" smooth="yes"/>
      <point x="166" y="1511"/>
      <point x="104" y="1448.667"/>
      <point x="104" y="1362" type="curve" smooth="yes"/>
      <point x="104" y="1274"/>
      <point x="168.667" y="1212"/>
    </contour>
  </outline>
</glyph>
<glyph name="m" format="2">
  <advance width="1773"/>
  <unicode hex="006D"/>
  <note>
uni006D
</note>
  <outline>
    <contour>
      <point x="111" y="0" type="line"/>
      <point x="400" y="0" type="line"/>
      <point x="400" y="765" type="line"/>
      <point x="436.667" y="833"/>
      <point x="496" y="867"/>
      <point x="578" y="867" type="curve" smooth="yes"/>
      <point x="696.667" y="867"/>
      <point x="741" y="814.333"/>
      <point x="741" y="689" type="curve" smooth="yes"/>
      <point x="741" y="0" type="line"/>
      <point x="1029" y="0" type="line"/>
      <point x="1029" y="743" type="line"/>
      <point x="1062.333" y="825.667"/>
      <point x="1122.333" y="867"/>
      <point x="1209" y="867" type="curve" smooth="yes"/>
      <point x="1330.333" y="867"/>
      <point x="1372" y="812.667"/>
      <point x="1372" y="690" type="curve" smooth="yes"/>
      <point x="1372" y="0" type="line"/>
      <point x="1662" y="0" type="line"/>
      <point x="1662" y="691" type="line" smooth="yes"/>
      <point x="1662" y="965.667"/>
      <point x="1548.667" y="1102"/>
      <point x="1314" y="1102" type="curve" smooth="yes"/>
      <point x="1173.333" y="1102"/>
      <point x="1065" y="1047"/>
      <point x="989" y="937" type="curve"/>
      <point x="937" y="1047"/>
      <point x="841.333" y="1102"/>
      <point x="702" y="1102" type="curve" smooth="yes"/>
      <point x="571.333" y="1102"/>
      <point x="467.667" y="1055"/>
      <point x="391" y="961" type="curve"/>
      <point x="382" y="1082" type="line"/>
      <point x="111" y="1082" type="line"/>
    </contour>
  </outline>
</glyph>
<glyph name="p" format="2">
  <advance width="1153"/>
  <unicode hex="0070"/>
  <note>
uni0070
</note>
  <outline>
    <contour>
      <point x="111" y="-416" type="line"/>
      <point x="400" y="-416" type="line"/>
      <point x="400" y="94" type="line"/>
      <point x="467.333" y="18"/>
      <point x="555.667" y="-20"/>
      <point x="665" y="-20" type="curve" smooth="yes"/>
      <point x="922.333" y="-20"/>
      <point x="1085" y="197.667"/>
      <point x="1085" y="531" type="curve" smooth="yes"/>
      <point x="1085" y="546" type="line" smooth="yes"/>
      <point x="1085" y="892.667"/>
      <point x="929.667" y="1102"/>
      <point x="663" y="1102" type="curve" smooth="yes"/>
      <point x="550.333" y="1102"/>
      <point x="459" y="1060"/>
      <point x="389" y="976" type="curve"/>
      <point x="379" y="1082" type="line"/>
      <point x="111" y="1082" type="line"/>
    </contour>
    <contour>
      <point x="589" y="213" type="curve" smooth="yes"/>
      <point x="498.333" y="213"/>
      <point x="435.333" y="248.667"/>
      <point x="400" y="320" type="curve"/>
      <point x="400" y="763" type="line"/>
      <point x="434" y="832.333"/>
      <point x="496.333" y="867"/>
      <point x="587" y="867" type="curve" smooth="yes"/>
      <point x="723" y="867"/>
      <point x="796" y="753.333"/>
      <point x="796" y="552" type="curve" smooth="yes"/>
      <point x="796" y="326"/>
      <point x="727" y="213"/>
    </contour>
  </outline>
</glyph>
<glyph name="q" format="2">
  <advance width="1157"/>
  <unicode hex="0071"/>
  <note>
uni0071
</note>
  <outline>
    <contour>
      <point x="751" y="-416" type="line"/>
      <point x="1041" y="-416" type="line"/>
      <point x="1041" y="1082" type="line"/>
      <point x="787" y="1082" type="line"/>
      <point x="768" y="969" type="line"/>
      <point x="699" y="1058"/>
      <point x="607" y="1102"/>
      <point x="491" y="1102" type="curve" smooth="yes"/>
      <point x="227" y="1102"/>
      <point x="66" y="891"/>
      <point x="66" y="551" type="curve" smooth="yes"/>
      <point x="66" y="252"/>
      <point x="183" y="-20"/>
      <point x="489" y="-20" type="curve" smooth="yes"/>
      <point x="597" y="-20"/>
      <point x="684.333" y="17.667"/>
      <point x="751" y="93" type="curve"/>
    </contour>
    <contour>
      <point x="563" y="213" type="curve" smooth="yes"/>
      <point x="431" y="213"/>
      <point x="355" y="323.333"/>
      <point x="355" y="530" type="curve" smooth="yes"/>
      <point x="355" y="764.667"/>
      <point x="431.667" y="868"/>
      <point x="565" y="868" type="curve" smooth="yes"/>
      <point x="653" y="868"/>
      <point x="715" y="834"/>
      <point x="751" y="766" type="curve"/>
      <point x="751" y="319" type="line"/>
      <point x="714.333" y="248.333"/>
      <point x="651.667" y="213"/>
    </contour>
  </outline>
</glyph>
<glyph name="r" format="2">
  <advance width="693"/>
  <unicode hex="0072"/>
  <note>
uni0072
</note>
  <outline>
    <contour>
      <point x="111" y="0" type="line"/>
      <point x="400" y="0" type="line"/>
      <point x="400" y="708" type="line"/>
      <point x="434" y="782"/>
      <point x="506" y="827"/>
      <point x="615" y="819" type="curve" smooth="yes"/>
      <point x="719" y="811" type="line"/>
      <point x="723" y="1089" type="line"/>
      <point x="695" y="1097.667"/>
      <point x="665" y="1102"/>
      <point x="633" y="1102" type="curve" smooth="yes"/>
      <point x="530" y="1102"/>
      <point x="450" y="1052"/>
      <point x="392" y="953" type="curve"/>
      <point x="384" y="1082" type="line"/>
      <point x="111" y="1082" type="line"/>
    </contour>
  </outline>
</glyph>
<glyph name="s" format="2">
  <advance width="1053"/>
  <unicode hex="0073"/>
  <note>
uni0073
</note>
  <outline>
    <contour>
      <point x="523" y="-20" type="curve" smooth="yes"/>
      <point x="791" y="-20"/>
      <point x="978" y="113.667"/>
      <point x="978" y="311" type="curve" smooth="yes"/>
      <point x="978" y="449"/>
      <point x="901.667" y="546"/>
      <point x="749" y="602" type="curve" smooth="yes"/>
      <point x="634" y="644"/>
      <point x="368" y="655"/>
      <point x="368" y="779" type="curve"/>
      <point x="368" y="847"/>
      <point x="423.667" y="896"/>
      <point x="521" y="896" type="curve" smooth="yes"/>
      <point x="634.333" y="896"/>
      <point x="686" y="835.667"/>
      <point x="686" y="753" type="curve"/>
      <point x="975" y="753" type="line"/>
      <point x="975" y="959.667"/>
      <point x="796.667" y="1102"/>
      <point x="522" y="1102" type="curve" smooth="yes"/>
      <point x="264.667" y="1102"/>
      <point x="90" y="957"/>
      <point x="90" y="765" type="curve"/>
      <point x="90" y="600.333"/>
      <point x="218.667" y="491"/>
      <point x="476" y="437" type="curve" smooth="yes"/>
      <point x="565" y="419"/>
      <point x="697" y="392"/>
      <point x="697" y="299" type="curve" smooth="yes"/>
      <point x="697" y="231"/>
      <point x="639.667" y="185"/>
      <point x="529" y="185" type="curve" smooth="yes"/>
      <point x="410.333" y="185"/>
      <point x="335.333" y="241.333"/>
      <point x="330" y="344" type="curve"/>
      <point x="56" y="344" type="line"/>
      <point x="56" y="115"/>
      <point x="286" y="-20"/>
    </contour>
  </outline>
</glyph>
<glyph name="u" format="2">
  <advance width="1129"/>
  <unicode hex="0075"/>
  <note>
uni0075
</note>
  <outline>
    <contour>
      <point x="463" y="-20" type="curve" smooth="yes"/>
      <point x="589" y="-20"/>
      <point x="687.667" y="23.333"/>
      <point x="759" y="110" type="curve"/>
      <point x="767" y="0" type="line"/>
      <point x="1039" y="0" type="line"/>
      <point x="1039" y="1082" type="line"/>
      <point x="749" y="1082" type="line"/>
      <point x="749" y="316" type="line"/>
      <point x="712.333" y="248"/>
      <point x="645" y="214"/>
      <point x="547" y="214" type="curve" smooth="yes"/>
      <point x="444.333" y="214"/>
      <point x="393" y="270.333"/>
      <point x="393" y="383" type="curve" smooth="yes"/>
      <point x="393" y="1082" type="line"/>
      <point x="104" y="1082" type="line"/>
      <point x="104" y="373" type="line" smooth="yes"/>
      <point x="106.667" y="115.667"/>
      <point x="231" y="-20"/>
    </contour>
  </outline>
</glyph>
<glyph name="w" format="2">
  <advance width="1539"/>
  <unicode hex="0077"/>
  <note>
uni0077
</note>
  <outline>
    <contour>
      <point x="855" y="1082" type="line"/>
      <point x="646" y="1082" type="line"/>
      <point x="448" y="394" type="line"/>
      <point x="307" y="1082" type="line"/>
      <point x="28" y="1082" type="line"/>
      <point x="304" y="0" type="line"/>
      <point x="545" y="0" type="line"/>
      <point x="750" y="681" type="line"/>
      <point x="955" y="0" type="line"/>
      <point x="1197" y="0" type="line"/>
      <point x="1473" y="1082" type="line"/>
      <point x="1194" y="1082" type="line"/>
      <point x="1052" y="393" type="line"/>
    </contour>
  </outline>
</glyph>
<glyph name="y" format="2">
  <advance width="969"/>
  <unicode hex="0079"/>
  <note>
uni0079
</note>
  <outline>
    <contour>
      <point x="246" y="-437" type="curve" smooth="yes"/>
      <point x="394.667" y="-437"/>
      <point x="515" y="-372"/>
      <point x="566" y="-225" type="curve" smooth="yes"/>
      <point x="1025" y="1082" type="line"/>
      <point x="715" y="1082" type="line"/>
      <point x="515" y="409" type="line"/>
      <point x="314" y="1082" type="line"/>
      <point x="3" y="1082" type="line"/>
      <point x="382" y="-3" type="line"/>
      <point x="348" y="-80" type="line" smooth="yes"/>
      <point x="313" y="-159"/>
      <point x="268" y="-193"/>
      <point x="193" y="-196" type="curve" smooth="yes"/>
      <point x="118" y="-199" type="line"/>
      <point x="118" y="-418" type="line"/>
      <point x="161.333" y="-430.667"/>
      <point x="204" y="-437"/>
    </contour>
  </outline>
</glyph>
<glyph name="z" format="2">
  <advance width="1042"/>
  <unicode hex="007A"/>
  <note>
uni007A
</note>
  <outline>
    <contour>
      <point x="74" y="0" type="line"/>
      <point x="972" y="0" type="line"/>
      <point x="972" y="233" type="line"/>
      <point x="443" y="233" type="line"/>
      <point x="956" y="911" type="line"/>
      <point x="956" y="1082" type="line"/>
      <point x="89" y="1082" type="line"/>
      <point x="89" y="848" type="line"/>
      <point x="583" y="848" type="line"/>
      <point x="74" y="176" type="line"/>
    </contour>
  </outline>
</glyph>
<glyph name="braceleft" format="2">
  <advance width="676"/>
  <unicode hex="007B"/>
  <note>
uni007B
</note>
  <outline>
    <contour>
      <point x="586" y="-360" type="curve"/>
      <point x="642" y="-198" type="line"/>
      <point x="541.333" y="-163.333"/>
      <point x="489.333" y="-68"/>
      <point x="486" y="88" type="curve" smooth="yes"/>
      <point x="486" y="300" type="line" smooth="yes"/>
      <point x="486" y="451.333"/>
      <point x="426.333" y="557.667"/>
      <point x="307" y="619" type="curve"/>
      <point x="426.333" y="679.667"/>
      <point x="486" y="785.333"/>
      <point x="486" y="936" type="curve" smooth="yes"/>
      <point x="486" y="1146" type="line" smooth="yes"/>
      <point x="488.667" y="1310"/>
      <point x="540.667" y="1398.667"/>
      <point x="642" y="1436" type="curve"/>
      <point x="586" y="1597" type="line"/>
      <point x="346" y="1529"/>
      <point x="226" y="1379.667"/>
      <point x="226" y="1133" type="curve" smooth="yes"/>
      <point x="226" y="921" type="line" smooth="yes"/>
      <point x="223.333" y="788.333"/>
      <point x="164" y="722"/>
      <point x="48" y="722" type="curve"/>
      <point x="48" y="515" type="line"/>
      <point x="166.667" y="515"/>
      <point x="226" y="444.667"/>
      <point x="226" y="304" type="curve" smooth="yes"/>
      <point x="226" y="105" type="line" smooth="yes"/>
      <point x="226" y="-137.667"/>
      <point x="346" y="-292.667"/>
    </contour>
  </outline>
</glyph>
<glyph name="asciitilde" format="2">
  <advance width="1328"/>
  <unicode hex="007E"/>
  <note>
uni007E
</note>
  <outline>
    <contour>
      <point x="888" y="375" type="curve" smooth="yes"/>
      <point x="1084" y="375"/>
      <point x="1221" y="545"/>
      <point x="1221" y="793" type="curve"/>
      <point x="1007" y="794" type="line"/>
      <point x="1007" y="692.667"/>
      <point x="951.667" y="612"/>
      <point x="873" y="612" type="curve" smooth="yes"/>
      <point x="828.333" y="612"/>
      <point x="778.833" y="637.833"/>
      <point x="724.5" y="689.5" type="curve" smooth="yes"/>
      <point x="615.833" y="792.833"/>
      <point x="541" y="827"/>
      <point x="437" y="827" type="curve" smooth="yes"/>
      <point x="237" y="827"/>
      <point x="106" y="663"/>
      <point x="106" y="415" type="curve"/>
      <point x="321" y="413" type="line"/>
      <point x="321" y="517"/>
      <point x="373.667" y="591"/>
      <point x="451" y="591" type="curve" smooth="yes"/>
      <point x="497.667" y="591"/>
      <point x="548.667" y="564.5"/>
      <point x="604" y="511.5" type="curve" smooth="yes"/>
      <point x="714.667" y="405.5"/>
      <point x="789.333" y="375"/>
    </contour>
  </outline>
</glyph>
<glyph name="exclamdown" format="2">
  <advance width="499"/>
  <unicode hex="00A1"/>
  <note>
uni00A1
</note>
  <outline>
    <contour>
      <point x="137" y="-369" type="line"/>
      <point x="444" y="-369" type="line"/>
      <point x="411" y="639" type="line"/>
      <point x="170" y="639" type="line"/>
    </contour>
    <contour>
      <point x="128" y="948" type="curve" smooth="yes"/>
      <point x="128" y="858.667"/>
      <point x="196.667" y="795"/>
      <point x="290" y="795" type="curve" smooth="yes"/>
      <point x="383.333" y="795"/>
      <point x="452" y="858.667"/>
      <point x="452" y="948" type="curve" smooth="yes"/>
      <point x="452" y="1037.333"/>
      <point x="387.333" y="1101"/>
      <point x="290" y="1101" type="curve" smooth="yes"/>
      <point x="192.667" y="1101"/>
      <point x="128" y="1037.333"/>
    </contour>
  </outline>
</glyph>
<glyph name="cent" format="2">
  <advance width="1120"/>
  <unicode hex="00A2"/>
  <note>
uni00A2
</note>
  <outline>
    <contour>
      <point x="498" y="-245" type="line"/>
      <point x="698" y="-245" type="line"/>
      <point x="698" y="-11" type="line"/>
      <point x="904.667" y="27.667"/>
      <point x="1045.333" y="180.667"/>
      <point x="1048" y="374" type="curve"/>
      <point x="776" y="374" type="line"/>
      <point x="773.333" y="276.667"/>
      <point x="700.667" y="213"/>
      <point x="594" y="213" type="curve" smooth="yes"/>
      <point x="456.667" y="213"/>
      <point x="388" y="302"/>
      <point x="388" y="526" type="curve" smooth="yes"/>
      <point x="388" y="559" type="line" smooth="yes"/>
      <point x="389.333" y="772.333"/>
      <point x="457" y="868"/>
      <point x="593" y="868" type="curve" smooth="yes"/>
      <point x="701" y="868"/>
      <point x="773.333" y="793.667"/>
      <point x="776" y="679" type="curve"/>
      <point x="1048" y="679" type="line"/>
      <point x="1045.333" y="896.333"/>
      <point x="915.333" y="1054.333"/>
      <point x="698" y="1093" type="curve"/>
      <point x="698" y="1318" type="line"/>
      <point x="498" y="1318" type="line"/>
      <point x="498" y="1094" type="line"/>
      <point x="246" y="1051.333"/>
      <point x="99" y="844.667"/>
      <point x="99" y="554" type="curve" smooth="yes"/>
      <point x="99" y="532" type="line" smooth="yes"/>
      <point x="99" y="230.667"/>
      <point x="248.667" y="28"/>
      <point x="498" y="-12" type="curve"/>
    </contour>
  </outline>
</glyph>
<glyph name="sterling" format="2">
  <advance width="1190"/>
  <unicode hex="00A3"/>
  <note>
uni00A3
</note>
  <outline>
    <contour>
      <point x="102" y="0" type="line"/>
      <point x="1161" y="0" type="line"/>
      <point x="1161" y="241" type="line"/>
      <point x="508" y="241" type="line"/>
      <point x="549.333" y="289.667"/>
      <point x="570" y="355"/>
      <point x="570" y="437" type="curve" smooth="yes"/>
      <point x="564" y="576" type="line"/>
      <point x="864" y="576" type="line"/>
      <point x="864" y="812" type="line"/>
      <point x="555" y="812" type="line"/>
      <point x="546" y="1039" type="line"/>
      <point x="546" y="1167"/>
      <point x="611" y="1233"/>
      <point x="699" y="1233" type="curve" smooth="yes"/>
      <point x="807" y="1233"/>
      <point x="867" y="1171.333"/>
      <point x="867" y="1058" type="curve"/>
      <point x="1154" y="1058" type="line"/>
      <point x="1154" y="1314"/>
      <point x="982.667" y="1475"/>
      <point x="700" y="1475" type="curve" smooth="yes"/>
      <point x="424" y="1475"/>
      <point x="246" y="1308.333"/>
      <point x="246" y="1039" type="curve"/>
      <point x="253" y="812" type="line"/>
      <point x="99" y="812" type="line"/>
      <point x="99" y="576" type="line"/>
      <point x="261" y="576" type="line"/>
      <point x="266" y="420" type="line" smooth="yes"/>
      <point x="266" y="312.667"/>
      <point x="242" y="253"/>
      <point x="194" y="241" type="curve"/>
      <point x="102" y="241" type="line"/>
    </contour>
  </outline>
</glyph>
<glyph name="currency" format="2">
  <advance width="1418"/>
  <unicode hex="00A4"/>
  <note>
uni00A4
</note>
  <outline>
    <contour>
      <point x="1205" y="-27" type="line"/>
      <point x="1347" y="118" type="line"/>
      <point x="1208" y="259" type="line"/>
      <point x="1273.333" y="363"/>
      <point x="1306" y="479.333"/>
      <point x="1306" y="608" type="curve" smooth="yes"/>
      <point x="1306" y="742.667"/>
      <point x="1270.333" y="863"/>
      <point x="1199" y="969" type="curve"/>
      <point x="1347" y="1120" type="line"/>
      <point x="1205" y="1265" type="line"/>
      <point x="1061" y="1117" type="line"/>
      <point x="957.667" y="1195"/>
      <point x="841.333" y="1234"/>
      <point x="712" y="1234" type="curve" smooth="yes"/>
      <point x="583.333" y="1234"/>
      <point x="467.333" y="1195.667"/>
      <point x="364" y="1119" type="curve"/>
      <point x="222" y="1264" type="line"/>
      <point x="81" y="1120" type="line"/>
      <point x="225" y="973" type="line"/>
      <point x="152.333" y="865.667"/>
      <point x="116" y="744"/>
      <point x="116" y="608" type="curve" smooth="yes"/>
      <point x="116" y="476.667"/>
      <point x="149.333" y="359"/>
      <point x="216" y="255" type="curve"/>
      <point x="81" y="118" type="line"/>
      <point x="222" y="-26" type="line"/>
      <point x="351" y="106" type="line"/>
      <point x="456.333" y="22"/>
      <point x="576.667" y="-20"/>
      <point x="712" y="-20" type="curve" smooth="yes"/>
      <point x="846.667" y="-20"/>
      <point x="967" y="22.333"/>
      <point x="1073" y="107" type="curve"/>
    </contour>
    <contour>
      <point x="712" y="170" type="curve" smooth="yes"/>
      <point x="480" y="170"/>
      <point x="302" y="367"/>
      <point x="302" y="608" type="curve" smooth="yes"/>
      <point x="302" y="850"/>
      <point x="480" y="1044"/>
      <point x="712" y="1044" type="curve" smooth="yes"/>
      <point x="945" y="1044"/>
      <point x="1121" y="848"/>
      <point x="1121" y="608" type="curve" smooth="yes"/>
      <point x="1119.932" y="247.444"/>
      <point x="772" y="170"/>
    </contour>
  </outline>
</glyph>
<glyph name="dieresis" format="2">
  <advance width="856"/>
  <unicode hex="00A8"/>
  <note>
uni00A8
</note>
  <outline>
    <contour>
      <point x="581" y="1365" type="curve" smooth="yes"/>
      <point x="581" y="1295.667"/>
      <point x="637.333" y="1238"/>
      <point x="720" y="1238" type="curve" smooth="yes"/>
      <point x="802.667" y="1238"/>
      <point x="858" y="1295.667"/>
      <point x="858" y="1365" type="curve" smooth="yes"/>
      <point x="858" y="1435.667"/>
      <point x="798.667" y="1492"/>
      <point x="720" y="1492" type="curve" smooth="yes"/>
      <point x="642.667" y="1492"/>
      <point x="581" y="1437"/>
    </contour>
    <contour>
      <point x="94" y="1365" type="curve" smooth="yes"/>
      <point x="94" y="1295.667"/>
      <point x="149.333" y="1239"/>
      <point x="232" y="1239" type="curve" smooth="yes"/>
      <point x="313.333" y="1239"/>
      <point x="371" y="1294.333"/>
      <point x="371" y="1365" type="curve" smooth="yes"/>
      <point x="371" y="1434.333"/>
      <point x="314.667" y="1492"/>
      <point x="232" y="1492" type="curve" smooth="yes"/>
      <point x="149.333" y="1492"/>
      <point x="94" y="1434.333"/>
    </contour>
  </outline>
</glyph>
<glyph name="copyright" format="2">
  <advance width="1606"/>
  <unicode hex="00A9"/>
  <note>
uni00A9
</note>
  <outline>
    <contour>
      <point x="796" y="-20" type="curve" smooth="yes"/>
      <point x="1050.667" y="-20"/>
      <point x="1284.333" y="120.167"/>
      <point x="1411" y="351.5" type="curve" smooth="yes"/>
      <point x="1474.333" y="467.167"/>
      <point x="1506" y="593"/>
      <point x="1506" y="729" type="curve" smooth="yes"/>
      <point x="1506" y="998.333"/>
      <point x="1374.167" y="1243.833"/>
      <point x="1153.5" y="1376.5" type="curve" smooth="yes"/>
      <point x="1043.167" y="1442.833"/>
      <point x="924" y="1476"/>
      <point x="796" y="1476" type="curve" smooth="yes"/>
      <point x="540" y="1476"/>
      <point x="304.167" y="1334.667"/>
      <point x="179.5" y="1104" type="curve" smooth="yes"/>
      <point x="117.167" y="988.667"/>
      <point x="86" y="863.667"/>
      <point x="86" y="729" type="curve" smooth="yes"/>
      <point x="86" y="458.333"/>
      <point x="219.167" y="213.333"/>
      <point x="438.5" y="80" type="curve" smooth="yes"/>
      <point x="548.167" y="13.333"/>
      <point x="667.333" y="-20"/>
    </contour>
    <contour>
      <point x="782" y="282" type="curve" smooth="yes"/>
      <point x="995.333" y="282"/>
      <point x="1117" y="393.333"/>
      <point x="1117" y="596" type="curve"/>
      <point x="961" y="596" type="line"/>
      <point x="961" y="465.333"/>
      <point x="900.667" y="417"/>
      <point x="782" y="417" type="curve" smooth="yes"/>
      <point x="659.333" y="417"/>
      <point x="588" y="513"/>
      <point x="588" y="669" type="curve" smooth="yes"/>
      <point x="588" y="792" type="line" smooth="yes"/>
      <point x="588" y="943"/>
      <point x="659.333" y="1040"/>
      <point x="782" y="1040" type="curve" smooth="yes"/>
      <point x="899.333" y="1040"/>
      <point x="962" y="989"/>
      <point x="962" y="861" type="curve"/>
      <point x="1118" y="861" type="line"/>
      <point x="1118" y="1059.667"/>
      <point x="999.333" y="1175"/>
      <point x="782" y="1175" type="curve" smooth="yes"/>
      <point x="571.333" y="1175"/>
      <point x="433" y="1020"/>
      <point x="433" y="788" type="curve" smooth="yes"/>
      <point x="433" y="675" type="line" smooth="yes"/>
      <point x="433" y="435"/>
      <point x="568.667" y="282"/>
    </contour>
    <contour>
      <point x="796" y="104" type="curve" smooth="yes"/>
      <point x="583" y="104"/>
      <point x="389" y="223"/>
      <point x="285.5" y="415" type="curve" smooth="yes"/>
      <point x="233.833" y="511"/>
      <point x="208" y="615.667"/>
      <point x="208" y="729" type="curve" smooth="yes"/>
      <point x="210" y="1023"/>
      <point x="370" y="1204"/>
      <point x="524" y="1288" type="curve" smooth="yes"/>
      <point x="644" y="1353"/>
      <point x="760" y="1351"/>
      <point x="796" y="1351" type="curve" smooth="yes"/>
      <point x="1013.333" y="1351"/>
      <point x="1208" y="1227.5"/>
      <point x="1308" y="1037.5" type="curve" smooth="yes"/>
      <point x="1358" y="942.5"/>
      <point x="1383" y="839.667"/>
      <point x="1383" y="729" type="curve" smooth="yes"/>
      <point x="1383" y="506.333"/>
      <point x="1275" y="302"/>
      <point x="1093.5" y="189" type="curve" smooth="yes"/>
      <point x="1002" y="132"/>
      <point x="903" y="104"/>
    </contour>
  </outline>
</glyph>
<glyph name="macron" format="2">
  <advance width="938"/>
  <unicode hex="00AF"/>
  <note>
uni00AF
</note>
  <outline>
    <contour>
      <point x="858" y="1454" type="line"/>
      <point x="168" y="1454" type="line"/>
      <point x="168" y="1287" type="line"/>
      <point x="858" y="1287" type="line"/>
    </contour>
  </outline>
</glyph>
<glyph name="degree" format="2">
  <advance width="765"/>
  <unicode hex="00B0"/>
  <note>
uni00B0
</note>
  <outline>
    <contour>
      <point x="126" y="1200" type="curve" smooth="yes"/>
      <point x="126" y="1046.667"/>
      <point x="254" y="928"/>
      <point x="398" y="928" type="curve" smooth="yes"/>
      <point x="543.333" y="928"/>
      <point x="666" y="1046.667"/>
      <point x="666" y="1200" type="curve" smooth="yes"/>
      <point x="666" y="1353.333"/>
      <point x="543.333" y="1476"/>
      <point x="398" y="1476" type="curve" smooth="yes"/>
      <point x="251.333" y="1476"/>
      <point x="126" y="1352"/>
    </contour>
    <contour>
      <point x="273" y="1200" type="curve" smooth="yes"/>
      <point x="273" y="1269.333"/>
      <point x="327.333" y="1328"/>
      <point x="398" y="1328" type="curve" smooth="yes"/>
      <point x="468.667" y="1328"/>
      <point x="520" y="1269.333"/>
      <point x="520" y="1200" type="curve" smooth="yes"/>
      <point x="520" y="1129.333"/>
      <point x="468.667" y="1076"/>
      <point x="398" y="1076" type="curve" smooth="yes"/>
      <point x="328.667" y="1076"/>
      <point x="273" y="1130.667"/>
    </contour>
  </outline>
</glyph>
<glyph name="plusminus" format="2">
  <advance width="1094"/>
  <unicode hex="00B1"/>
  <note>
uni00B1
</note>
  <outline>
    <contour>
      <point x="677" y="1285" type="line"/>
      <point x="424" y="1285" type="line"/>
      <point x="424" y="942" type="line"/>
      <point x="89" y="942" type="line"/>
      <point x="89" y="701" type="line"/>
      <point x="424" y="701" type="line"/>
      <point x="424" y="337" type="line"/>
      <point x="677" y="337" type="line"/>
      <point x="677" y="701" type="line"/>
      <point x="1005" y="701" type="line"/>
      <point x="1005" y="942" type="line"/>
      <point x="677" y="942" type="line"/>
    </contour>
    <contour>
      <point x="113" y="1" type="line"/>
      <point x="977" y="1" type="line"/>
      <point x="977" y="236" type="line"/>
      <point x="113" y="236" type="line"/>
    </contour>
  </outline>
</glyph>
<glyph name="twosuperior" format="2">
  <advance width="751"/>
  <unicode hex="00B2"/>
  <note>
uni00B2
</note>
  <outline>
    <contour>
      <point x="73" y="667" type="line"/>
      <point x="693" y="667" type="line"/>
      <point x="693" y="831" type="line"/>
      <point x="342" y="831" type="line"/>
      <point x="490" y="946" type="line" smooth="yes"/>
      <point x="634" y="1062"/>
      <point x="670" y="1126"/>
      <point x="670" y="1219" type="curve" smooth="yes"/>
      <point x="670" y="1377.667"/>
      <point x="558.333" y="1467"/>
      <point x="361" y="1467" type="curve" smooth="yes"/>
      <point x="181" y="1467"/>
      <point x="55" y="1347.667"/>
      <point x="55" y="1193" type="curve"/>
      <point x="261" y="1193" type="line"/>
      <point x="261" y="1255.667"/>
      <point x="303.333" y="1302"/>
      <point x="370" y="1302" type="curve" smooth="yes"/>
      <point x="433.333" y="1302"/>
      <point x="465" y="1274"/>
      <point x="465" y="1218" type="curve" smooth="yes"/>
      <point x="465" y="1170"/>
      <point x="404" y="1101"/>
      <point x="360" y="1062" type="curve" smooth="yes"/>
      <point x="73" y="805" type="line"/>
    </contour>
  </outline>
</glyph>
<glyph name="threesuperior" format="2">
  <advance width="751"/>
  <unicode hex="00B3"/>
  <note>
uni00B3
</note>
  <outline>
    <contour>
      <point x="362" y="656" type="curve" smooth="yes"/>
      <point x="559.333" y="656"/>
      <point x="693" y="748"/>
      <point x="693" y="888" type="curve" smooth="yes"/>
      <point x="693" y="983.333"/>
      <point x="643" y="1044.667"/>
      <point x="543" y="1072" type="curve"/>
      <point x="633" y="1105.333"/>
      <point x="678" y="1161.667"/>
      <point x="678" y="1241" type="curve" smooth="yes"/>
      <point x="678" y="1383.667"/>
      <point x="555.333" y="1467"/>
      <point x="362" y="1467" type="curve" smooth="yes"/>
      <point x="187.333" y="1467"/>
      <point x="62" y="1378"/>
      <point x="62" y="1242" type="curve"/>
      <point x="267" y="1242" type="line"/>
      <point x="267" y="1280.667"/>
      <point x="312" y="1302"/>
      <point x="368" y="1302" type="curve" smooth="yes"/>
      <point x="433.333" y="1302"/>
      <point x="474" y="1271.667"/>
      <point x="474" y="1225" type="curve" smooth="yes"/>
      <point x="474" y="1166.333"/>
      <point x="434.333" y="1137"/>
      <point x="355" y="1137" type="curve" smooth="yes"/>
      <point x="273" y="1137" type="line"/>
      <point x="273" y="1001" type="line"/>
      <point x="365" y="1001" type="line" smooth="yes"/>
      <point x="446.333" y="1000.333"/>
      <point x="487" y="969.333"/>
      <point x="487" y="908" type="curve" smooth="yes"/>
      <point x="487" y="861.333"/>
      <point x="454" y="820"/>
      <point x="374" y="820" type="curve" smooth="yes"/>
      <point x="304.667" y="820"/>
      <point x="254" y="857.667"/>
      <point x="254" y="903" type="curve"/>
      <point x="48" y="903" type="line"/>
      <point x="48" y="751"/>
      <point x="172.667" y="656"/>
    </contour>
  </outline>
</glyph>
<glyph name="micro" format="2">
  <advance width="1160"/>
  <unicode hex="00B5"/>
  <note>
uni00B5
</note>
  <outline>
    <contour>
      <point x="139" y="-416" type="line"/>
      <point x="428" y="-416" type="line"/>
      <point x="428" y="24" type="line"/>
      <point x="476" y="-6"/>
      <point x="534" y="-21"/>
      <point x="602" y="-21" type="curve" smooth="yes"/>
      <point x="692.667" y="-21"/>
      <point x="767.667" y="8.667"/>
      <point x="827" y="68" type="curve"/>
      <point x="833" y="0" type="line"/>
      <point x="1102" y="0" type="line"/>
      <point x="1102" y="1082" type="line"/>
      <point x="813" y="1082" type="line"/>
      <point x="813" y="319" type="line"/>
      <point x="775.667" y="249"/>
      <point x="707.333" y="214"/>
      <point x="608" y="214" type="curve" smooth="yes"/>
      <point x="476" y="214"/>
      <point x="428" y="291"/>
      <point x="428" y="459" type="curve" smooth="yes"/>
      <point x="428" y="1082" type="line"/>
      <point x="139" y="1082" type="line"/>
    </contour>
  </outline>
</glyph>
<glyph name="cedilla" format="2">
  <advance width="507"/>
  <unicode hex="00B8"/>
  <note>
uni00B8
</note>
  <outline>
    <contour>
      <point x="135" y="-462" type="line"/>
      <point x="356.333" y="-462"/>
      <point x="484" y="-370.667"/>
      <point x="484" y="-224" type="curve" smooth="yes"/>
      <point x="484" y="-126.667"/>
      <point x="434" y="-69"/>
      <point x="334" y="-51" type="curve"/>
      <point x="345" y="7" type="line"/>
      <point x="129" y="7" type="line"/>
      <point x="98" y="-136" type="line"/>
      <point x="198" y="-142.667"/>
      <point x="240" y="-158"/>
      <point x="240" y="-214" type="curve" smooth="yes"/>
      <point x="240" y="-268"/>
      <point x="202.667" y="-295"/>
      <point x="128" y="-295" type="curve"/>
    </contour>
  </outline>
</glyph>
<glyph name="questiondown" format="2">
  <advance width="969"/>
  <unicode hex="00BF"/>
  <note>
uni00BF
</note>
  <outline>
    <contour>
      <point x="518" y="-385" type="curve" smooth="yes"/>
      <point x="798" y="-385"/>
      <point x="969.333" y="-234"/>
      <point x="972" y="22" type="curve"/>
      <point x="683" y="22" type="line"/>
      <point x="680.333" y="-86"/>
      <point x="615.667" y="-149"/>
      <point x="513" y="-149" type="curve" smooth="yes"/>
      <point x="410.333" y="-149"/>
      <point x="359" y="-96.667"/>
      <point x="359" y="8" type="curve" smooth="yes"/>
      <point x="359" y="124"/>
      <point x="448" y="201"/>
      <point x="524.5" y="272" type="curve" smooth="yes"/>
      <point x="630.5" y="370.667"/>
      <point x="666" y="465.667"/>
      <point x="666" y="643" type="curve"/>
      <point x="410" y="643" type="line"/>
      <point x="407.333" y="524.333"/>
      <point x="384" y="473"/>
      <point x="319" y="411" type="curve" smooth="yes"/>
      <point x="118" y="218"/>
      <point x="69" y="112"/>
      <point x="69" y="6" type="curve" smooth="yes"/>
      <point x="69" y="-244.667"/>
      <point x="234" y="-385"/>
    </contour>
    <contour>
      <point x="540" y="796" type="curve" smooth="yes"/>
      <point x="633.333" y="796"/>
      <point x="702" y="859.667"/>
      <point x="702" y="949" type="curve" smooth="yes"/>
      <point x="702" y="1038.333"/>
      <point x="637.333" y="1102"/>
      <point x="540" y="1102" type="curve" smooth="yes"/>
      <point x="442.667" y="1102"/>
      <point x="378" y="1038.333"/>
      <point x="378" y="949" type="curve" smooth="yes"/>
      <point x="378" y="859.667"/>
      <point x="446.667" y="796"/>
    </contour>
  </outline>
</glyph>
<glyph name="AE" format="2">
  <advance width="1914"/>
  <unicode hex="00C6"/>
  <note>
uni00C6
</note>
  <outline>
    <contour>
      <point x="1865" y="235" type="line"/>
      <point x="1247" y="235" type="line"/>
      <point x="1231" y="629" type="line"/>
      <point x="1723" y="629" type="line"/>
      <point x="1723" y="865" type="line"/>
      <point x="1221" y="865" type="line"/>
      <point x="1206" y="1220" type="line"/>
      <point x="1804" y="1220" type="line"/>
      <point x="1804" y="1456" type="line"/>
      <point x="788" y="1456" type="line"/>
      <point x="2" y="0" type="line"/>
      <point x="341" y="0" type="line"/>
      <point x="508" y="333" type="line"/>
      <point x="954" y="333" type="line"/>
      <point x="968" y="0" type="line"/>
      <point x="1865" y="0" type="line"/>
    </contour>
    <contour>
      <point x="633" y="580" type="line"/>
      <point x="920" y="1150" type="line"/>
      <point x="944" y="580" type="line"/>
    </contour>
  </outline>
</glyph>
<glyph name="multiply" format="2">
  <advance width="1092"/>
  <unicode hex="00D7"/>
  <note>
uni00D7
</note>
  <outline>
    <contour>
      <point x="235" y="205" type="line"/>
      <point x="539" y="515" type="line"/>
      <point x="844" y="205" type="line"/>
      <point x="1014" y="373" type="line"/>
      <point x="707" y="686" type="line"/>
      <point x="1014" y="999" type="line"/>
      <point x="844" y="1167" type="line"/>
      <point x="539" y="856" type="line"/>
      <point x="235" y="1167" type="line"/>
      <point x="65" y="999" type="line"/>
      <point x="372" y="686" type="line"/>
      <point x="65" y="373" type="line"/>
    </contour>
  </outline>
</glyph>
<glyph name="Oslash" format="2">
  <advance width="1408"/>
  <unicode hex="00D8"/>
  <note>
uni00D8
</note>
  <outline>
    <contour>
      <point x="147" y="-95" type="line"/>
      <point x="335" y="-95" type="line"/>
      <point x="420" y="50" type="line"/>
      <point x="507.333" y="3.333"/>
      <point x="605.667" y="-20"/>
      <point x="715" y="-20" type="curve" smooth="yes"/>
      <point x="959" y="-20"/>
      <point x="1155.667" y="102"/>
      <point x="1257" y="318" type="curve" smooth="yes"/>
      <point x="1307.667" y="426"/>
      <point x="1333" y="551.667"/>
      <point x="1333" y="695" type="curve" smooth="yes"/>
      <point x="1333" y="754" type="line" smooth="yes"/>
      <point x="1333" y="980"/>
      <point x="1273.333" y="1159"/>
      <point x="1154" y="1291" type="curve"/>
      <point x="1288" y="1518" type="line"/>
      <point x="1101" y="1518" type="line"/>
      <point x="1027" y="1394" type="line"/>
      <point x="934.333" y="1448.667"/>
      <point x="829.667" y="1476"/>
      <point x="713" y="1476" type="curve" smooth="yes"/>
      <point x="470.333" y="1476"/>
      <point x="273.833" y="1355.5"/>
      <point x="170.5" y="1137.5" type="curve" smooth="yes"/>
      <point x="118.833" y="1028.5"/>
      <point x="93" y="902.333"/>
      <point x="93" y="759" type="curve" smooth="yes"/>
      <point x="93" y="702" type="line" smooth="yes"/>
      <point x="93" y="462"/>
      <point x="158.667" y="277"/>
      <point x="290" y="147" type="curve"/>
    </contour>
    <contour>
      <point x="715" y="226" type="curve" smooth="yes"/>
      <point x="653" y="226"/>
      <point x="598.667" y="241.667"/>
      <point x="552" y="273" type="curve"/>
      <point x="992" y="1017" type="line"/>
      <point x="1017.333" y="947"/>
      <point x="1030" y="861.667"/>
      <point x="1030" y="761" type="curve" smooth="yes"/>
      <point x="1030" y="690" type="line" smooth="yes"/>
      <point x="1028.667" y="387.333"/>
      <point x="916.333" y="226"/>
    </contour>
    <contour>
      <point x="446" y="410" type="line"/>
      <point x="413.333" y="485.333"/>
      <point x="397" y="580.333"/>
      <point x="397" y="695" type="curve" smooth="yes"/>
      <point x="397" y="766" type="line" smooth="yes"/>
      <point x="398.333" y="1068.667"/>
      <point x="511.667" y="1228"/>
      <point x="713" y="1228" type="curve" smooth="yes"/>
      <point x="784.333" y="1228"/>
      <point x="844.333" y="1207.667"/>
      <point x="893" y="1167" type="curve"/>
    </contour>
  </outline>
</glyph>
<glyph name="ae" format="2">
  <advance width="1729"/>
  <unicode hex="00E6"/>
  <note>
uni00E6
</note>
  <outline>
    <contour>
      <point x="466" y="-20" type="curve" smooth="yes"/>
      <point x="632.667" y="-20"/>
      <point x="774.667" y="35"/>
      <point x="860" y="127" type="curve"/>
      <point x="952.667" y="29"/>
      <point x="1081.333" y="-20"/>
      <point x="1246" y="-20" type="curve" smooth="yes"/>
      <point x="1398" y="-20"/>
      <point x="1550.667" y="25.333"/>
      <point x="1648" y="100" type="curve"/>
      <point x="1571" y="289" type="line"/>
      <point x="1455" y="229"/>
      <point x="1378.667" y="212"/>
      <point x="1276" y="212" type="curve" smooth="yes"/>
      <point x="1120" y="212"/>
      <point x="1023.667" y="295.333"/>
      <point x="1009" y="450" type="curve"/>
      <point x="1677" y="450" type="line"/>
      <point x="1677" y="607" type="line" smooth="yes"/>
      <point x="1677" y="916.333"/>
      <point x="1505.667" y="1102"/>
      <point x="1223" y="1102" type="curve" smooth="yes"/>
      <point x="1089.667" y="1103.333"/>
      <point x="981" y="1066.667"/>
      <point x="897" y="992" type="curve"/>
      <point x="819.667" y="1065.333"/>
      <point x="710.667" y="1102"/>
      <point x="570" y="1102" type="curve" smooth="yes"/>
      <point x="292.667" y="1102"/>
      <point x="101" y="962.667"/>
      <point x="101" y="764" type="curve"/>
      <point x="390" y="745" type="line"/>
      <point x="390" y="814.333"/>
      <point x="457.667" y="868"/>
      <point x="567" y="868" type="curve" smooth="yes"/>
      <point x="669.667" y="868"/>
      <point x="725" y="807.333"/>
      <point x="725" y="706" type="curve" smooth="yes"/>
      <point x="725" y="649" type="line"/>
      <point x="557" y="649" type="line" smooth="yes"/>
      <point x="233" y="647.667"/>
      <point x="66" y="528.333"/>
      <point x="66" y="319" type="curve" smooth="yes"/>
      <point x="66" y="104.333"/>
      <point x="218" y="-20"/>
    </contour>
    <contour>
      <point x="521" y="192" type="curve" smooth="yes"/>
      <point x="407.667" y="192"/>
      <point x="355" y="240.333"/>
      <point x="355" y="315" type="curve" smooth="yes"/>
      <point x="355" y="396.333"/>
      <point x="434.333" y="459.667"/>
      <point x="561" y="461" type="curve"/>
      <point x="725" y="461" type="line"/>
      <point x="725" y="272" type="line"/>
      <point x="673" y="225.333"/>
      <point x="586.333" y="192"/>
    </contour>
    <contour>
      <point x="1011" y="644" type="line"/>
      <point x="1028.333" y="789.333"/>
      <point x="1103" y="868"/>
      <point x="1223" y="868" type="curve" smooth="yes"/>
      <point x="1333.667" y="868"/>
      <point x="1393" y="797.333"/>
      <point x="1393" y="672" type="curve" smooth="yes"/>
      <point x="1393" y="644" type="line"/>
    </contour>
  </outline>
</glyph>
<glyph name="divide" format="2">
  <advance width="1169"/>
  <unicode hex="00F7"/>
  <note>
uni00F7
</note>
  <outline>
    <contour>
      <point x="1091" y="801" type="line"/>
      <point x="63" y="801" type="line"/>
      <point x="63" y="571" type="line"/>
      <point x="1091" y="571" type="line"/>
    </contour>
    <contour>
      <point x="415" y="277" type="curve" smooth="yes"/>
      <point x="415" y="189"/>
      <point x="478" y="127"/>
      <point x="578" y="127" type="curve" smooth="yes"/>
      <point x="676.667" y="127"/>
      <point x="742" y="187.667"/>
      <point x="742" y="277" type="curve" smooth="yes"/>
      <point x="742" y="369"/>
      <point x="672.667" y="429"/>
      <point x="578" y="429" type="curve" smooth="yes"/>
      <point x="482" y="429"/>
      <point x="415" y="367.667"/>
    </contour>
    <contour>
      <point x="415" y="1089" type="curve" smooth="yes"/>
      <point x="415" y="1001"/>
      <point x="478" y="939"/>
      <point x="578" y="939" type="curve" smooth="yes"/>
      <point x="676.667" y="939"/>
      <point x="742" y="999.667"/>
      <point x="742" y="1089" type="curve" smooth="yes"/>
      <point x="742" y="1181"/>
      <point x="672.667" y="1241"/>
      <point x="578" y="1241" type="curve" smooth="yes"/>
      <point x="482" y="1241"/>
      <point x="415" y="1179.667"/>
    </contour>
  </outline>
</glyph>
<glyph name="oslash" format="2">
  <advance width="1160"/>
  <unicode hex="00F8"/>
  <note>
uni00F8
</note>
  <outline>
    <contour>
      <point x="170" y="-142" type="line"/>
      <point x="331" y="-142" type="line"/>
      <point x="403" y="6" type="line"/>
      <point x="457" y="-11.333"/>
      <point x="515.667" y="-20"/>
      <point x="579" y="-20" type="curve" smooth="yes"/>
      <point x="891" y="-20"/>
      <point x="1091" y="198"/>
      <point x="1091" y="530" type="curve" smooth="yes"/>
      <point x="1091" y="747.333"/>
      <point x="1024.333" y="905.667"/>
      <point x="891" y="1005" type="curve"/>
      <point x="994" y="1216" type="line"/>
      <point x="833" y="1216" type="line"/>
      <point x="763" y="1073" type="line"/>
      <point x="706.333" y="1092.333"/>
      <point x="644.333" y="1102"/>
      <point x="577" y="1102" type="curve" smooth="yes"/>
      <point x="203.123" y="1100.954"/>
      <point x="66" y="708"/>
      <point x="66" y="551" type="curve" smooth="yes"/>
      <point x="66" y="327.667"/>
      <point x="135" y="167.333"/>
      <point x="273" y="70" type="curve"/>
    </contour>
    <contour>
      <point x="396" y="322" type="line"/>
      <point x="368.667" y="374"/>
      <point x="355" y="443.333"/>
      <point x="355" y="530" type="curve" smooth="yes"/>
      <point x="355" y="760.667"/>
      <point x="435.667" y="868"/>
      <point x="577" y="868" type="curve" smooth="yes"/>
      <point x="605.667" y="868"/>
      <point x="632" y="863.333"/>
      <point x="656" y="854" type="curve"/>
    </contour>
    <contour>
      <point x="579" y="213" type="curve" smooth="yes"/>
      <point x="552.333" y="213"/>
      <point x="529" y="216.333"/>
      <point x="509" y="223" type="curve"/>
      <point x="765" y="747" type="line"/>
      <point x="789.667" y="692.333"/>
      <point x="802" y="627"/>
      <point x="802" y="551" type="curve" smooth="yes"/>
      <point x="802" y="315"/>
      <point x="719" y="213"/>
    </contour>
  </outline>
</glyph>
<glyph name="dcroat" format="2">
  <advance width="1223"/>
  <unicode hex="0111"/>
  <note>
uni0111
</note>
  <outline>
    <contour>
      <point x="488" y="-20" type="curve" smooth="yes"/>
      <point x="601.333" y="-20"/>
      <point x="694" y="25"/>
      <point x="766" y="115" type="curve"/>
      <point x="780" y="0" type="line"/>
      <point x="1041" y="0" type="line"/>
      <point x="1041" y="1218" type="line"/>
      <point x="1199" y="1218" type="line"/>
      <point x="1199" y="1401" type="line"/>
      <point x="1041" y="1401" type="line"/>
      <point x="1041" y="1536" type="line"/>
      <point x="751" y="1536" type="line"/>
      <point x="751" y="1401" type="line"/>
      <point x="499" y="1401" type="line"/>
      <point x="499" y="1218" type="line"/>
      <point x="751" y="1218" type="line"/>
      <point x="751" y="984" type="line"/>
      <point x="682.333" y="1062.667"/>
      <point x="595.333" y="1102"/>
      <point x="490" y="1102" type="curve" smooth="yes"/>
      <point x="227.333" y="1102"/>
      <point x="66" y="886.333"/>
      <point x="66" y="549" type="curve" smooth="yes"/>
      <point x="66" y="191.667"/>
      <point x="233.333" y="-20"/>
    </contour>
    <contour>
      <point x="562" y="214" type="curve" smooth="yes"/>
      <point x="427.333" y="214"/>
      <point x="355" y="325.333"/>
      <point x="355" y="528" type="curve" smooth="yes"/>
      <point x="355" y="754"/>
      <point x="424.667" y="867"/>
      <point x="564" y="867" type="curve" smooth="yes"/>
      <point x="652.667" y="867"/>
      <point x="715" y="829.333"/>
      <point x="751" y="754" type="curve"/>
      <point x="751" y="327" type="line"/>
      <point x="714.333" y="251.667"/>
      <point x="651.333" y="214"/>
    </contour>
  </outline>
</glyph>
<glyph name="idotless" format="2">
  <advance width="506"/>
  <unicode hex="0131"/>
  <note>
uni0131
</note>
  <outline>
    <contour>
      <point x="423" y="1082" type="line"/>
      <point x="134" y="1082" type="line"/>
      <point x="134" y="0" type="line"/>
      <point x="423" y="0" type="line"/>
    </contour>
  </outline>
</glyph>
<glyph name="kgreenlandic" format="2">
  <advance width="1139"/>
  <unicode hex="0138"/>
  <note>
uni0138
</note>
  <outline>
    <contour>
      <point x="799" y="0" type="line"/>
      <point x="1170" y="0" type="line"/>
      <point x="773" y="561" type="line"/>
      <point x="1153" y="1082" type="line"/>
      <point x="788" y="1082" type="line"/>
      <point x="506" y="675" type="line"/>
      <point x="419" y="675" type="line"/>
      <point x="419" y="1082" type="line"/>
      <point x="130" y="1082" type="line"/>
      <point x="130" y="0" type="line"/>
      <point x="419" y="0" type="line"/>
      <point x="419" y="399" type="line"/>
      <point x="537" y="399" type="line"/>
    </contour>
  </outline>
</glyph>
<glyph name="Lslash" format="2">
  <advance width="1103"/>
  <unicode hex="0141"/>
  <note>
uni0141
</note>
  <outline>
    <contour>
      <point x="463" y="1456" type="line"/>
      <point x="163" y="1456" type="line"/>
      <point x="163" y="808" type="line"/>
      <point x="29" y="770" type="line"/>
      <point x="29" y="604" type="line"/>
      <point x="163" y="642" type="line"/>
      <point x="163" y="0" type="line"/>
      <point x="1100" y="0" type="line"/>
      <point x="1100" y="241" type="line"/>
      <point x="463" y="241" type="line"/>
      <point x="463" y="729" type="line"/>
      <point x="678" y="791" type="line"/>
      <point x="678" y="957" type="line"/>
      <point x="463" y="895" type="line"/>
    </contour>
  </outline>
</glyph>
<glyph name="lslash" format="2">
  <advance width="553"/>
  <unicode hex="0142"/>
  <note>
uni0142
</note>
  <outline>
    <contour>
      <point x="451" y="1536" type="line"/>
      <point x="162" y="1536" type="line"/>
      <point x="162" y="814" type="line"/>
      <point x="30" y="770" type="line"/>
      <point x="30" y="604" type="line"/>
      <point x="162" y="648" type="line"/>
      <point x="162" y="0" type="line"/>
      <point x="451" y="0" type="line"/>
      <point x="451" y="744" type="line"/>
      <point x="593" y="791" type="line"/>
      <point x="593" y="957" type="line"/>
      <point x="451" y="910" type="line"/>
    </contour>
  </outline>
</glyph>
<glyph name="Eng" format="2">
  <advance width="1419"/>
  <unicode hex="014A"/>
  <note>
uni014A
</note>
  <outline>
    <contour>
      <point x="925" y="-437" type="curve" smooth="yes"/>
      <point x="1169" y="-437"/>
      <point x="1312" y="-287.333"/>
      <point x="1312" y="-26" type="curve" smooth="yes"/>
      <point x="1312" y="1456" type="line"/>
      <point x="1012" y="1456" type="line"/>
      <point x="1012" y="477" type="line"/>
      <point x="429" y="1456" type="line"/>
      <point x="128" y="1456" type="line"/>
      <point x="128" y="0" type="line"/>
      <point x="429" y="0" type="line"/>
      <point x="429" y="980" type="line"/>
      <point x="1012" y="0" type="line"/>
      <point x="1012" y="-20" type="line" smooth="yes"/>
      <point x="1012" y="-136"/>
      <point x="971.667" y="-194"/>
      <point x="891" y="-194" type="curve" smooth="yes"/>
      <point x="855.667" y="-194"/>
      <point x="822.667" y="-190"/>
      <point x="792" y="-182" type="curve"/>
      <point x="778" y="-420" type="line"/>
      <point x="822" y="-431.333"/>
      <point x="871" y="-437"/>
    </contour>
  </outline>
</glyph>
<glyph name="eng" format="2">
  <advance width="1160"/>
  <unicode hex="014B"/>
  <note>
uni014B
</note>
  <outline>
    <contour>
      <point x="666" y="-437" type="curve" smooth="yes"/>
      <point x="904.667" y="-437"/>
      <point x="1047" y="-292.667"/>
      <point x="1047" y="-34" type="curve" smooth="yes"/>
      <point x="1047" y="666" type="line" smooth="yes"/>
      <point x="1045.667" y="954"/>
      <point x="928.333" y="1102"/>
      <point x="699" y="1102" type="curve" smooth="yes"/>
      <point x="568.333" y="1102"/>
      <point x="465.333" y="1044.667"/>
      <point x="390" y="930" type="curve"/>
      <point x="377" y="1082" type="line"/>
      <point x="108" y="1082" type="line"/>
      <point x="108" y="0" type="line"/>
      <point x="397" y="0" type="line"/>
      <point x="397" y="780" type="line"/>
      <point x="442.333" y="838"/>
      <point x="507.667" y="867"/>
      <point x="593" y="867" type="curve" smooth="yes"/>
      <point x="707.667" y="867"/>
      <point x="757" y="804"/>
      <point x="757" y="660" type="curve" smooth="yes"/>
      <point x="757" y="-28" type="line" smooth="yes"/>
      <point x="757" y="-143.333"/>
      <point x="716.667" y="-201"/>
      <point x="636" y="-201" type="curve" smooth="yes"/>
      <point x="600" y="-201"/>
      <point x="567" y="-197"/>
      <point x="537" y="-189" type="curve"/>
      <point x="523" y="-420" type="line"/>
      <point x="566.333" y="-431.333"/>
      <point x="614" y="-437"/>
    </contour>
  </outline>
</glyph>
<glyph name="longs" format="2">
  <advance width="508"/>
  <unicode hex="017F"/>
  <note>
uni017F
</note>
  <outline>
    <contour>
      <point x="117" y="0" type="line"/>
      <point x="406" y="0" type="line"/>
      <point x="406" y="1170" type="line" smooth="yes"/>
      <point x="406" y="1272"/>
      <point x="455.333" y="1323"/>
      <point x="554" y="1323" type="curve" smooth="yes"/>
      <point x="589.333" y="1323"/>
      <point x="621.667" y="1319.667"/>
      <point x="651" y="1313" type="curve"/>
      <point x="675" y="1536" type="line"/>
      <point x="611" y="1550"/>
      <point x="557.667" y="1557"/>
      <point x="515" y="1557" type="curve" smooth="yes"/>
      <point x="260.333" y="1557"/>
      <point x="117" y="1418"/>
      <point x="117" y="1174" type="curve" smooth="yes"/>
    </contour>
  </outline>
</glyph>
<glyph name="Schwa" format="2">
  <advance width="1415"/>
  <unicode hex="018F"/>
  <note>
uni018F
</note>
  <outline>
    <contour>
      <point x="701" y="-20" type="curve" smooth="yes"/>
      <point x="934.333" y="-20"/>
      <point x="1137" y="101.833"/>
      <point x="1245" y="306.5" type="curve" smooth="yes"/>
      <point x="1299" y="408.833"/>
      <point x="1326" y="523.667"/>
      <point x="1326" y="651" type="curve" smooth="yes"/>
      <point x="1326" y="789" type="line" smooth="yes"/>
      <point x="1326" y="1219.667"/>
      <point x="1064.333" y="1476"/>
      <point x="635" y="1476" type="curve" smooth="yes"/>
      <point x="479" y="1476"/>
      <point x="269.333" y="1437"/>
      <point x="184" y="1397" type="curve"/>
      <point x="233" y="1150" type="line"/>
      <point x="355" y="1192"/>
      <point x="484" y="1213"/>
      <point x="620" y="1213" type="curve" smooth="yes"/>
      <point x="876" y="1213"/>
      <point x="1015.667" y="1076.667"/>
      <point x="1025" y="826" type="curve"/>
      <point x="75" y="826" type="line"/>
      <point x="75" y="227"/>
      <point x="305" y="-20"/>
    </contour>
    <contour>
      <point x="701" y="241" type="curve" smooth="yes"/>
      <point x="490.333" y="241"/>
      <point x="375" y="348.333"/>
      <point x="375" y="551" type="curve" smooth="yes"/>
      <point x="375" y="582" type="line"/>
      <point x="1022" y="582" type="line"/>
      <point x="998" y="367.333"/>
      <point x="878.333" y="241"/>
    </contour>
  </outline>
</glyph>
<glyph name="florin" format="2">
  <advance width="697"/>
  <unicode hex="0192"/>
  <note>
uni0192
</note>
  <outline>
    <contour>
      <point x="108" y="-437" type="curve" smooth="yes"/>
      <point x="337.333" y="-437"/>
      <point x="473" y="-297.667"/>
      <point x="473" y="-47" type="curve" smooth="yes"/>
      <point x="474" y="870" type="line"/>
      <point x="681" y="870" type="line"/>
      <point x="681" y="1082" type="line"/>
      <point x="474" y="1082" type="line"/>
      <point x="474" y="1172" type="line" smooth="yes"/>
      <point x="474" y="1272"/>
      <point x="522.333" y="1322"/>
      <point x="619" y="1322" type="curve" smooth="yes"/>
      <point x="657" y="1322"/>
      <point x="690" y="1318.667"/>
      <point x="718" y="1312" type="curve"/>
      <point x="742" y="1536" type="line"/>
      <point x="678" y="1550"/>
      <point x="625" y="1557"/>
      <point x="583" y="1557" type="curve" smooth="yes"/>
      <point x="332.333" y="1557"/>
      <point x="186.667" y="1420.667"/>
      <point x="184" y="1182" type="curve" smooth="yes"/>
      <point x="184" y="1082" type="line"/>
      <point x="23" y="1082" type="line"/>
      <point x="23" y="870" type="line"/>
      <point x="184" y="870" type="line"/>
      <point x="184" y="-49" type="line" smooth="yes"/>
      <point x="184" y="-149"/>
      <point x="155" y="-203"/>
      <point x="71" y="-203" type="curve" smooth="yes"/>
      <point x="29" y="-203"/>
      <point x="-1.333" y="-199"/>
      <point x="-20" y="-191" type="curve"/>
      <point x="-35" y="-420" type="line"/>
      <point x="8.333" y="-431.333"/>
      <point x="56" y="-437"/>
    </contour>
  </outline>
</glyph>
<glyph name="jdotless" format="2">
  <advance width="515"/>
  <unicode hex="0237"/>
  <note>
uni0237
</note>
  <outline>
    <contour>
      <point x="59" y="-437" type="curve" smooth="yes"/>
      <point x="299" y="-437"/>
      <point x="437.667" y="-292"/>
      <point x="439" y="-36" type="curve" smooth="yes"/>
      <point x="439" y="1082" type="line"/>
      <point x="150" y="1082" type="line"/>
      <point x="150" y="-27" type="line" smooth="yes"/>
      <point x="150" y="-144.333"/>
      <point x="109.667" y="-203"/>
      <point x="29" y="-203" type="curve" smooth="yes"/>
      <point x="-7" y="-203"/>
      <point x="-39.667" y="-199"/>
      <point x="-69" y="-191" type="curve"/>
      <point x="-83" y="-420" type="line"/>
      <point x="-39.667" y="-431.333"/>
      <point x="7.667" y="-437"/>
    </contour>
  </outline>
</glyph>
<glyph name="caron" format="2">
  <advance width="909"/>
  <unicode hex="02C7"/>
  <note>
uni02C7
</note>
  <outline>
    <contour>
      <point x="332" y="1537" type="line"/>
      <point x="85" y="1537" type="line"/>
      <point x="85" y="1528" type="line"/>
      <point x="387" y="1245" type="line"/>
      <point x="570" y="1245" type="line"/>
      <point x="872" y="1526" type="line"/>
      <point x="872" y="1537" type="line"/>
      <point x="625" y="1537" type="line"/>
      <point x="479" y="1394" type="line"/>
    </contour>
  </outline>
</glyph>
<glyph name="breve" format="2">
  <advance width="874"/>
  <unicode hex="02D8"/>
  <note>
uni02D8
</note>
  <outline>
    <contour>
      <point x="452" y="1229" type="curve" smooth="yes"/>
      <point x="658.667" y="1229"/>
      <point x="798" y="1348.667"/>
      <point x="798" y="1526" type="curve"/>
      <point x="591" y="1526" type="line"/>
      <point x="591" y="1442"/>
      <point x="538.667" y="1394"/>
      <point x="452" y="1394" type="curve" smooth="yes"/>
      <point x="364" y="1394"/>
      <point x="311" y="1442"/>
      <point x="311" y="1526" type="curve"/>
      <point x="106" y="1526" type="line"/>
      <point x="106" y="1346"/>
      <point x="245.333" y="1229"/>
    </contour>
  </outline>
</glyph>
<glyph name="dotaccent" format="2">
  <advance width="497"/>
  <unicode hex="02D9"/>
  <note>
uni02D9
</note>
  <outline>
    <contour>
      <point x="406" y="1018" type="curve" smooth="yes"/>
      <point x="498" y="1018"/>
      <point x="554" y="1074"/>
      <point x="554" y="1154" type="curve" smooth="yes"/>
      <point x="554" y="1234"/>
      <point x="498" y="1291"/>
      <point x="406" y="1291" type="curve" smooth="yes"/>
      <point x="317" y="1291"/>
      <point x="258" y="1234"/>
      <point x="258" y="1154" type="curve" smooth="yes"/>
      <point x="258" y="1074"/>
      <point x="315" y="1018"/>
    </contour>
  </outline>
</glyph>
<glyph name="ring" format="2">
  <advance width="682"/>
  <unicode hex="02DA"/>
  <note>
uni02DA
</note>
  <outline>
    <contour>
      <point x="342" y="1124" type="curve" smooth="yes"/>
      <point x="468.667" y="1124"/>
      <point x="565" y="1211.667"/>
      <point x="565" y="1325" type="curve" smooth="yes"/>
      <point x="565" y="1442.333"/>
      <point x="464.667" y="1530"/>
      <point x="342" y="1530" type="curve" smooth="yes"/>
      <point x="218" y="1530"/>
      <point x="119" y="1439.667"/>
      <point x="119" y="1325" type="curve" smooth="yes"/>
      <point x="119" y="1214.333"/>
      <point x="212.667" y="1124"/>
    </contour>
    <contour>
      <point x="342" y="1218" type="curve" smooth="yes"/>
      <point x="275.333" y="1218"/>
      <point x="234" y="1266.333"/>
      <point x="234" y="1325" type="curve" smooth="yes"/>
      <point x="234" y="1386.333"/>
      <point x="276.667" y="1434"/>
      <point x="342" y="1434" type="curve" smooth="yes"/>
      <point x="407.333" y="1434"/>
      <point x="450" y="1386.333"/>
      <point x="450" y="1325" type="curve" smooth="yes"/>
      <point x="450" y="1266.333"/>
      <point x="408.667" y="1218"/>
    </contour>
  </outline>
</glyph>
<glyph name="tilde" format="2">
  <advance width="966"/>
  <unicode hex="02DC"/>
  <note>
uni02DC
</note>
  <outline>
    <contour>
      <point x="285" y="1248" type="line"/>
      <point x="285" y="1309.333"/>
      <point x="322.333" y="1344"/>
      <point x="369" y="1344" type="curve" smooth="yes"/>
      <point x="480.203" y="1344"/>
      <point x="508.318" y="1258"/>
      <point x="643" y="1258" type="curve" smooth="yes"/>
      <point x="769.667" y="1258"/>
      <point x="870" y="1373.333"/>
      <point x="870" y="1524" type="curve"/>
      <point x="703" y="1535" type="line"/>
      <point x="703" y="1473.667"/>
      <point x="663.667" y="1440"/>
      <point x="617" y="1440" type="curve" smooth="yes"/>
      <point x="495.899" y="1440"/>
      <point x="453.84" y="1525"/>
      <point x="343" y="1525" type="curve" smooth="yes"/>
      <point x="216.333" y="1525"/>
      <point x="117" y="1406"/>
      <point x="117" y="1258" type="curve"/>
    </contour>
  </outline>
</glyph>
<glyph name="hungarumlaut" format="2">
  <advance width="764"/>
  <unicode hex="02DD"/>
  <note>
uni02DD
</note>
  <outline>
    <contour>
      <point x="409" y="1234" type="line"/>
      <point x="627" y="1234" type="line"/>
      <point x="893" y="1535" type="line"/>
      <point x="634" y="1535" type="line"/>
    </contour>
    <contour>
      <point x="57" y="1234" type="line"/>
      <point x="269" y="1234" type="line"/>
      <point x="498" y="1535" type="line"/>
      <point x="243" y="1535" type="line"/>
    </contour>
  </outline>
</glyph>
<glyph name="lowringmod" format="2">
  <advance width="602"/>
  <unicode hex="02F3"/>
  <note>
uni02F3
</note>
  <outline>
    <contour>
      <point x="330" y="-399" type="curve" smooth="yes"/>
      <point x="438" y="-399"/>
      <point x="515" y="-324.667"/>
      <point x="515" y="-230" type="curve" smooth="yes"/>
      <point x="515" y="-135.333"/>
      <point x="438" y="-57"/>
      <point x="330" y="-57" type="curve" smooth="yes"/>
      <point x="223.333" y="-57"/>
      <point x="142" y="-132.667"/>
      <point x="142" y="-230" type="curve" smooth="yes"/>
      <point x="142" y="-327.333"/>
      <point x="223.333" y="-399"/>
    </contour>
    <contour>
      <point x="255" y="-230" type="curve" smooth="yes"/>
      <point x="255" y="-178"/>
      <point x="295" y="-152"/>
      <point x="333" y="-153" type="curve" smooth="yes"/>
      <point x="368" y="-154"/>
      <point x="402" y="-180"/>
      <point x="402" y="-230" type="curve" smooth="yes"/>
      <point x="402" y="-283"/>
      <point x="362" y="-307"/>
      <point x="323" y="-304" type="curve" smooth="yes"/>
      <point x="288" y="-301"/>
      <point x="255" y="-276"/>
    </contour>
  </outline>
</glyph>
<glyph name="hookabovecomb" format="2">
  <unicode hex="0309"/>
  <note>
uni0309
</note>
  <outline>
    <contour>
      <point x="-718" y="1267" type="line"/>
      <point x="-501" y="1267" type="line"/>
      <point x="-501" y="1331" type="line"/>
      <point x="-410.333" y="1344.333"/>
      <point x="-351" y="1396.333"/>
      <point x="-351" y="1475" type="curve" smooth="yes"/>
      <point x="-351" y="1596.333"/>
      <point x="-479.333" y="1670"/>
      <point x="-730" y="1670" type="curve"/>
      <point x="-737" y="1535" type="line"/>
      <point x="-642.333" y="1535"/>
      <point x="-595" y="1512"/>
      <point x="-595" y="1466" type="curve" smooth="yes"/>
      <point x="-595" y="1420"/>
      <point x="-687" y="1404"/>
      <point x="-733" y="1401" type="curve"/>
    </contour>
  </outline>
</glyph>
<glyph name="dotbelowcomb" format="2">
  <unicode hex="0323"/>
  <note>
uni0323
</note>
  <outline>
    <contour>
      <point x="-600" y="-373" type="curve" smooth="yes"/>
      <point x="-502.667" y="-373"/>
      <point x="-438" y="-312.667"/>
      <point x="-438" y="-234" type="curve" smooth="yes"/>
      <point x="-438" y="-154"/>
      <point x="-504" y="-96"/>
      <point x="-600" y="-96" type="curve" smooth="yes"/>
      <point x="-694.667" y="-96"/>
      <point x="-761" y="-154"/>
      <point x="-761" y="-234" type="curve" smooth="yes"/>
      <point x="-761" y="-312.667"/>
      <point x="-697.333" y="-373"/>
    </contour>
  </outline>
</glyph>
<glyph name="tonos" format="2">
  <advance width="525"/>
  <unicode hex="0384"/>
  <note>
uni0384
</note>
  <outline>
    <contour>
      <point x="218" y="1256" type="line"/>
      <point x="390" y="1256" type="line"/>
      <point x="553" y="1601" type="line"/>
      <point x="291" y="1601" type="line"/>
    </contour>
  </outline>
</glyph>
<glyph name="Theta" format="2">
  <advance width="1393"/>
  <unicode hex="0398"/>
  <note>
uni0398
</note>
  <outline>
    <contour>
      <point x="704" y="-20" type="curve" smooth="yes"/>
      <point x="1104" y="-20"/>
      <point x="1322" y="291"/>
      <point x="1322" y="695" type="curve" smooth="yes"/>
      <point x="1322" y="760" type="line" smooth="yes"/>
      <point x="1322" y="1166"/>
      <point x="1098" y="1476"/>
      <point x="702" y="1476" type="curve" smooth="yes"/>
      <point x="301" y="1476"/>
      <point x="82" y="1161"/>
      <point x="82" y="759" type="curve" smooth="yes"/>
      <point x="82" y="687" type="line" smooth="yes"/>
      <point x="84" y="285"/>
      <point x="314" y="-20"/>
    </contour>
    <contour>
      <point x="704" y="226" type="curve" smooth="yes"/>
      <point x="498.667" y="226"/>
      <point x="386" y="397.667"/>
      <point x="386" y="695" type="curve" smooth="yes"/>
      <point x="386" y="766" type="line" smooth="yes"/>
      <point x="387.333" y="1068.667"/>
      <point x="500.667" y="1228"/>
      <point x="702" y="1228" type="curve" smooth="yes"/>
      <point x="904.667" y="1228"/>
      <point x="1018" y="1066.333"/>
      <point x="1018" y="761" type="curve" smooth="yes"/>
      <point x="1018" y="690" type="line" smooth="yes"/>
      <point x="1016.667" y="387.333"/>
      <point x="905.333" y="226"/>
    </contour>
    <contour>
      <point x="518" y="607" type="line"/>
      <point x="901" y="607" type="line"/>
      <point x="901" y="839" type="line"/>
      <point x="518" y="839" type="line"/>
    </contour>
  </outline>
</glyph>
<glyph name="Lambda" format="2">
  <advance width="1342"/>
  <unicode hex="039B"/>
  <note>
uni039B
</note>
  <outline>
    <contour>
      <point x="982" y="0" type="line"/>
      <point x="1307" y="0" type="line"/>
      <point x="817" y="1456" type="line"/>
      <point x="505" y="1456" type="line"/>
      <point x="16" y="0" type="line"/>
      <point x="341" y="0" type="line"/>
      <point x="661" y="1043" type="line"/>
    </contour>
  </outline>
</glyph>
<glyph name="Xi" format="2">
  <advance width="1169"/>
  <unicode hex="039E"/>
  <note>
uni039E
</note>
  <outline>
    <contour>
      <point x="95" y="0" type="line"/>
      <point x="1080" y="0" type="line"/>
      <point x="1080" y="241" type="line"/>
      <point x="95" y="241" type="line"/>
    </contour>
    <contour>
      <point x="119" y="1213" type="line"/>
      <point x="1037" y="1213" type="line"/>
      <point x="1037" y="1456" type="line"/>
      <point x="119" y="1456" type="line"/>
    </contour>
    <contour>
      <point x="210" y="619" type="line"/>
      <point x="965" y="619" type="line"/>
      <point x="965" y="852" type="line"/>
      <point x="210" y="852" type="line"/>
    </contour>
  </outline>
</glyph>
<glyph name="Pi" format="2">
  <advance width="1461"/>
  <unicode hex="03A0"/>
  <note>
uni03A0
</note>
  <outline>
    <contour>
      <point x="1316" y="1456" type="line"/>
      <point x="132" y="1456" type="line"/>
      <point x="132" y="0" type="line"/>
      <point x="432" y="0" type="line"/>
      <point x="432" y="1213" type="line"/>
      <point x="1015" y="1213" type="line"/>
      <point x="1015" y="0" type="line"/>
      <point x="1316" y="0" type="line"/>
    </contour>
  </outline>
</glyph>
<glyph name="Sigma" format="2">
  <advance width="1169"/>
  <unicode hex="03A3"/>
  <note>
uni03A3
</note>
  <outline>
    <contour>
      <point x="829" y="742" type="line"/>
      <point x="484" y="1213" type="line"/>
      <point x="1081" y="1213" type="line"/>
      <point x="1081" y="1456" type="line"/>
      <point x="72" y="1456" type="line"/>
      <point x="72" y="1305" type="line"/>
      <point x="511" y="735" type="line"/>
      <point x="72" y="151" type="line"/>
      <point x="72" y="0" type="line"/>
      <point x="1105" y="0" type="line"/>
      <point x="1105" y="241" type="line"/>
      <point x="479" y="241" type="line"/>
      <point x="829" y="727" type="line"/>
    </contour>
  </outline>
</glyph>
<glyph name="Phi" format="2">
  <advance width="1467"/>
  <unicode hex="03A6"/>
  <note>
uni03A6
</note>
  <outline>
    <contour>
      <point x="645" y="0" type="line"/>
      <point x="945" y="0" type="line"/>
      <point x="945" y="164" type="line"/>
      <point x="1104" y="171"/>
      <point x="1224" y="230"/>
      <point x="1313" y="309" type="curve" smooth="yes"/>
      <point x="1455" y="436"/>
      <point x="1514" y="616"/>
      <point x="1514" y="719" type="curve" smooth="yes"/>
      <point x="1514" y="935"/>
      <point x="1417" y="1112"/>
      <point x="1245" y="1208" type="curve" smooth="yes"/>
      <point x="1159" y="1256"/>
      <point x="1059" y="1282.333"/>
      <point x="945" y="1287" type="curve"/>
      <point x="945" y="1456" type="line"/>
      <point x="645" y="1456" type="line"/>
      <point x="645" y="1287" type="line"/>
      <point x="451" y="1280"/>
      <point x="313" y="1192"/>
      <point x="221" y="1082" type="curve" smooth="yes"/>
      <point x="117" y="958"/>
      <point x="73" y="806"/>
      <point x="73" y="717" type="curve" smooth="yes"/>
      <point x="73" y="505"/>
      <point x="169" y="334"/>
      <point x="344" y="240" type="curve" smooth="yes"/>
      <point x="431" y="193"/>
      <point x="532" y="167"/>
      <point x="645" y="164" type="curve"/>
    </contour>
    <contour>
      <point x="645" y="425" type="line"/>
      <point x="473" y="434.333"/>
      <point x="368" y="533"/>
      <point x="368" y="717" type="curve" smooth="yes"/>
      <point x="368" y="907.667"/>
      <point x="470.333" y="1015.333"/>
      <point x="645" y="1026" type="curve"/>
    </contour>
    <contour>
      <point x="945" y="426" type="curve"/>
      <point x="945" y="1026" type="line"/>
      <point x="1119.667" y="1015.333"/>
      <point x="1219" y="904.333"/>
      <point x="1219" y="719" type="curve" smooth="yes"/>
      <point x="1219" y="536.333"/>
      <point x="1118.333" y="436.667"/>
    </contour>
  </outline>
</glyph>
<glyph name="Psi" format="2">
  <advance width="1417"/>
  <unicode hex="03A8"/>
  <note>
uni03A8
</note>
  <outline>
    <contour>
      <point x="597" y="0" type="line"/>
      <point x="897" y="0" type="line"/>
      <point x="897" y="390" type="line"/>
      <point x="1230" y="427"/>
      <point x="1428" y="642"/>
      <point x="1432" y="984" type="curve" smooth="yes"/>
      <point x="1432" y="1456" type="line"/>
      <point x="1130" y="1456" type="line"/>
      <point x="1130" y="993" type="line" smooth="yes"/>
      <point x="1130" y="778.333"/>
      <point x="1054.333" y="663.333"/>
      <point x="897" y="634" type="curve"/>
      <point x="897" y="1456" type="line"/>
      <point x="597" y="1456" type="line"/>
      <point x="597" y="636" type="line"/>
      <point x="442.333" y="666.667"/>
      <point x="352" y="783.667"/>
      <point x="352" y="993" type="curve" smooth="yes"/>
      <point x="352" y="1456" type="line"/>
      <point x="52" y="1456" type="line"/>
      <point x="52" y="990" type="line" smooth="yes"/>
      <point x="53.333" y="636.667"/>
      <point x="262.333" y="415.667"/>
      <point x="597" y="389" type="curve"/>
    </contour>
  </outline>
</glyph>
<glyph name="alpha" format="2">
  <advance width="1157"/>
  <unicode hex="03B1"/>
  <note>
uni03B1
</note>
  <outline>
    <contour>
      <point x="495" y="-20" type="curve" smooth="yes"/>
      <point x="615.667" y="-20"/>
      <point x="708.667" y="35.333"/>
      <point x="774" y="146" type="curve"/>
      <point x="819" y="35"/>
      <point x="902" y="4"/>
      <point x="1023" y="4" type="curve" smooth="yes"/>
      <point x="1073" y="4"/>
      <point x="1115" y="22"/>
      <point x="1148" y="14" type="curve"/>
      <point x="1124" y="221" type="line"/>
      <point x="1118.667" y="218.333"/>
      <point x="1111.333" y="217"/>
      <point x="1102" y="217" type="curve" smooth="yes"/>
      <point x="1056.667" y="217"/>
      <point x="1031" y="256"/>
      <point x="1031" y="335" type="curve" smooth="yes"/>
      <point x="1031" y="1082" type="line"/>
      <point x="780" y="1082" type="line"/>
      <point x="759" y="952" type="line"/>
      <point x="694.333" y="1052"/>
      <point x="607" y="1102"/>
      <point x="497" y="1102" type="curve" smooth="yes"/>
      <point x="235.667" y="1102"/>
      <point x="67" y="884"/>
      <point x="73" y="533" type="curve" smooth="yes"/>
      <point x="74" y="472" type="line" smooth="yes"/>
      <point x="79" y="167"/>
      <point x="248.333" y="-20"/>
    </contour>
    <contour>
      <point x="568" y="212" type="curve" smooth="yes"/>
      <point x="431.333" y="212"/>
      <point x="363" y="312"/>
      <point x="363" y="512" type="curve" smooth="yes"/>
      <point x="363" y="757.333"/>
      <point x="438" y="868"/>
      <point x="570" y="868" type="curve" smooth="yes"/>
      <point x="648" y="868"/>
      <point x="705.333" y="833"/>
      <point x="742" y="763" type="curve"/>
      <point x="742" y="308" type="line"/>
      <point x="705.333" y="244"/>
      <point x="647.333" y="212"/>
    </contour>
  </outline>
</glyph>
<glyph name="beta" format="2">
  <advance width="1213"/>
  <unicode hex="03B2"/>
  <note>
uni03B2
</note>
  <outline>
    <contour>
      <point x="142" y="-406" type="line"/>
      <point x="431" y="-406" type="line"/>
      <point x="431" y="56" type="line"/>
      <point x="513" y="5.333"/>
      <point x="606.667" y="-20"/>
      <point x="712" y="-20" type="curve" smooth="yes"/>
      <point x="989.333" y="-20"/>
      <point x="1158" y="140.667"/>
      <point x="1158" y="414" type="curve" smooth="yes"/>
      <point x="1158" y="588.667"/>
      <point x="1068" y="715"/>
      <point x="904" y="771" type="curve"/>
      <point x="1025.333" y="836.333"/>
      <point x="1095" y="948.667"/>
      <point x="1095" y="1082" type="curve" smooth="yes"/>
      <point x="1095" y="1330"/>
      <point x="914" y="1476"/>
      <point x="626" y="1476" type="curve" smooth="yes"/>
      <point x="384" y="1474"/>
      <point x="259" y="1346"/>
      <point x="198" y="1226" type="curve" smooth="yes"/>
      <point x="154" y="1142"/>
      <point x="142" y="1062"/>
      <point x="142" y="1034" type="curve" smooth="yes"/>
    </contour>
    <contour>
      <point x="647" y="213" type="curve" smooth="yes"/>
      <point x="557.667" y="213"/>
      <point x="485.667" y="232.333"/>
      <point x="431" y="271" type="curve"/>
      <point x="431" y="1030" type="line" smooth="yes"/>
      <point x="431" y="1162"/>
      <point x="512.667" y="1242"/>
      <point x="626" y="1242" type="curve" smooth="yes"/>
      <point x="734" y="1242"/>
      <point x="806" y="1169.333"/>
      <point x="806" y="1060" type="curve" smooth="yes"/>
      <point x="806" y="929.333"/>
      <point x="749" y="862"/>
      <point x="635" y="858" type="curve" smooth="yes"/>
      <point x="557" y="858" type="line"/>
      <point x="557" y="647" type="line"/>
      <point x="654" y="647" type="line" smooth="yes"/>
      <point x="795.333" y="647"/>
      <point x="869" y="562"/>
      <point x="869" y="418" type="curve" smooth="yes"/>
      <point x="869" y="298"/>
      <point x="783" y="213"/>
    </contour>
  </outline>
</glyph>
<glyph name="gamma" format="2">
  <advance width="1026"/>
  <unicode hex="03B3"/>
  <note>
uni03B3
</note>
  <outline>
    <contour>
      <point x="378" y="-417" type="line"/>
      <point x="667" y="-417" type="line"/>
      <point x="667" y="14" type="line"/>
      <point x="1030" y="1082" type="line"/>
      <point x="728" y="1082" type="line"/>
      <point x="527" y="341" type="line"/>
      <point x="319" y="1082" type="line"/>
      <point x="17" y="1082" type="line"/>
      <point x="378" y="23" type="line"/>
    </contour>
  </outline>
</glyph>
<glyph name="delta" format="2">
  <advance width="1160"/>
  <unicode hex="03B4"/>
  <note>
uni03B4
</note>
  <outline>
    <contour>
      <point x="584" y="-20" type="curve" smooth="yes"/>
      <point x="892" y="-20"/>
      <point x="1096" y="200"/>
      <point x="1096" y="524" type="curve" smooth="yes"/>
      <point x="1096" y="734.667"/>
      <point x="1031.167" y="868"/>
      <point x="890.5" y="980" type="curve" smooth="yes"/>
      <point x="775" y="1072"/>
      <point x="467" y="1144"/>
      <point x="467" y="1256" type="curve" smooth="yes"/>
      <point x="467" y="1316"/>
      <point x="528" y="1352"/>
      <point x="628" y="1352" type="curve" smooth="yes"/>
      <point x="686" y="1352"/>
      <point x="764.667" y="1336.333"/>
      <point x="864" y="1305" type="curve"/>
      <point x="864" y="1527" type="line"/>
      <point x="734.667" y="1563.667"/>
      <point x="670.333" y="1572"/>
      <point x="603" y="1572" type="curve" smooth="yes"/>
      <point x="349.667" y="1572"/>
      <point x="192" y="1453"/>
      <point x="192" y="1249" type="curve" smooth="yes"/>
      <point x="192" y="1135"/>
      <point x="255" y="1046"/>
      <point x="383" y="975" type="curve"/>
      <point x="202" y="928"/>
      <point x="68" y="741"/>
      <point x="68" y="519" type="curve" smooth="yes"/>
      <point x="68" y="188"/>
      <point x="273.333" y="-20"/>
    </contour>
    <contour>
      <point x="584" y="212" type="curve" smooth="yes"/>
      <point x="444" y="212"/>
      <point x="357" y="333"/>
      <point x="357" y="537" type="curve" smooth="yes"/>
      <point x="357" y="757"/>
      <point x="445.333" y="873"/>
      <point x="584" y="873" type="curve"/>
      <point x="720" y="844"/>
      <point x="807" y="697"/>
      <point x="807" y="557" type="curve" smooth="yes"/>
      <point x="807" y="326.333"/>
      <point x="721.333" y="212"/>
    </contour>
  </outline>
</glyph>
<glyph name="epsilon" format="2">
  <advance width="1104"/>
  <unicode hex="03B5"/>
  <note>
uni03B5
</note>
  <outline>
    <contour>
      <point x="597" y="-20" type="curve" smooth="yes"/>
      <point x="874.333" y="-20"/>
      <point x="1071" y="114.667"/>
      <point x="1071" y="320" type="curve"/>
      <point x="782" y="320" type="line"/>
      <point x="782" y="249.333"/>
      <point x="703.667" y="197"/>
      <point x="581" y="197" type="curve" smooth="yes"/>
      <point x="462.333" y="197"/>
      <point x="383" y="253.667"/>
      <point x="383" y="327" type="curve" smooth="yes"/>
      <point x="383" y="412.333"/>
      <point x="448.333" y="455.333"/>
      <point x="579" y="456" type="curve" smooth="yes"/>
      <point x="770" y="456" type="line"/>
      <point x="770" y="649" type="line"/>
      <point x="583" y="649" type="line" smooth="yes"/>
      <point x="463" y="649"/>
      <point x="403" y="693.667"/>
      <point x="403" y="763" type="curve" smooth="yes"/>
      <point x="403" y="835"/>
      <point x="474" y="883"/>
      <point x="582" y="883" type="curve" smooth="yes"/>
      <point x="691.333" y="883"/>
      <point x="765" y="838"/>
      <point x="765" y="770" type="curve"/>
      <point x="1054" y="770" type="line"/>
      <point x="1054" y="963.333"/>
      <point x="865" y="1101"/>
      <point x="597" y="1101" type="curve" smooth="yes"/>
      <point x="298.333" y="1101"/>
      <point x="114" y="982"/>
      <point x="114" y="786" type="curve" smooth="yes"/>
      <point x="114" y="690"/>
      <point x="183" y="605"/>
      <point x="299" y="557" type="curve"/>
      <point x="163" y="512.333"/>
      <point x="95" y="428.667"/>
      <point x="95" y="306" type="curve" smooth="yes"/>
      <point x="95" y="110"/>
      <point x="299.667" y="-20"/>
    </contour>
  </outline>
</glyph>
<glyph name="zeta" format="2">
  <advance width="1061"/>
  <unicode hex="03B6"/>
  <note>
uni03B6
</note>
  <outline>
    <contour>
      <point x="705" y="-389" type="line"/>
      <point x="835.667" y="-297"/>
      <point x="937" y="-150"/>
      <point x="937" y="-50" type="curve" smooth="yes"/>
      <point x="937" y="61"/>
      <point x="888" y="134"/>
      <point x="749" y="176" type="curve" smooth="yes"/>
      <point x="570" y="230"/>
      <point x="406" y="239"/>
      <point x="406" y="426" type="curve" smooth="yes"/>
      <point x="406" y="578"/>
      <point x="457" y="681"/>
      <point x="609" y="862" type="curve" smooth="yes"/>
      <point x="968" y="1291" type="line"/>
      <point x="968" y="1456" type="line"/>
      <point x="76" y="1456" type="line"/>
      <point x="76" y="1224" type="line"/>
      <point x="594" y="1224" type="line"/>
      <point x="391" y="984" type="line" smooth="yes"/>
      <point x="195" y="752"/>
      <point x="119" y="586"/>
      <point x="119" y="382" type="curve" smooth="yes"/>
      <point x="119" y="182"/>
      <point x="224" y="68"/>
      <point x="471" y="5" type="curve" smooth="yes"/>
      <point x="624" y="-34"/>
      <point x="650" y="-67"/>
      <point x="650" y="-109" type="curve" smooth="yes"/>
      <point x="650" y="-154"/>
      <point x="622" y="-209.667"/>
      <point x="558" y="-277" type="curve"/>
    </contour>
  </outline>
</glyph>
<glyph name="eta" format="2">
  <advance width="1160"/>
  <unicode hex="03B7"/>
  <note>
uni03B7
</note>
  <outline>
    <contour>
      <point x="757" y="-415" type="line"/>
      <point x="1047" y="-415" type="line"/>
      <point x="1047" y="713" type="line"/>
      <point x="1041.667" y="972.333"/>
      <point x="925.667" y="1102"/>
      <point x="699" y="1102" type="curve" smooth="yes"/>
      <point x="571" y="1102"/>
      <point x="467.333" y="1051"/>
      <point x="388" y="949" type="curve"/>
      <point x="377" y="1082" type="line"/>
      <point x="108" y="1082" type="line"/>
      <point x="108" y="0" type="line"/>
      <point x="397" y="0" type="line"/>
      <point x="397" y="775" type="line"/>
      <point x="443" y="837"/>
      <point x="508.333" y="868"/>
      <point x="593" y="868" type="curve" smooth="yes"/>
      <point x="700.333" y="868"/>
      <point x="755" y="812"/>
      <point x="757" y="700" type="curve" smooth="yes"/>
    </contour>
  </outline>
</glyph>
<glyph name="theta" format="2">
  <advance width="1166"/>
  <unicode hex="03B8"/>
  <note>
uni03B8
</note>
  <outline>
    <contour>
      <point x="605" y="-20" type="curve" smooth="yes"/>
      <point x="919.667" y="-20"/>
      <point x="1095" y="206.667"/>
      <point x="1095" y="608" type="curve" smooth="yes"/>
      <point x="1095" y="868" type="line" smooth="yes"/>
      <point x="1089.667" y="1261.333"/>
      <point x="911" y="1476"/>
      <point x="603" y="1476" type="curve" smooth="yes"/>
      <point x="288.333" y="1476"/>
      <point x="112" y="1252.667"/>
      <point x="112" y="850" type="curve" smooth="yes"/>
      <point x="112" y="591" type="line" smooth="yes"/>
      <point x="117.333" y="200.333"/>
      <point x="294.333" y="-20"/>
    </contour>
    <contour>
      <point x="605" y="213" type="curve" smooth="yes"/>
      <point x="469" y="213"/>
      <point x="401" y="331.667"/>
      <point x="401" y="569" type="curve" smooth="yes"/>
      <point x="401" y="620" type="line"/>
      <point x="806" y="620" type="line"/>
      <point x="805" y="517" type="line" smooth="yes"/>
      <point x="796.333" y="314.333"/>
      <point x="729.667" y="213"/>
    </contour>
    <contour>
      <point x="401" y="843" type="line"/>
      <point x="402" y="941" type="line" smooth="yes"/>
      <point x="410.667" y="1141.667"/>
      <point x="477.667" y="1242"/>
      <point x="603" y="1242" type="curve" smooth="yes"/>
      <point x="739" y="1242"/>
      <point x="806" y="1128.333"/>
      <point x="806" y="891" type="curve" smooth="yes"/>
      <point x="806" y="843" type="line"/>
    </contour>
  </outline>
</glyph>
<glyph name="iota" format="2">
  <advance width="663"/>
  <unicode hex="03B9"/>
  <note>
uni03B9
</note>
  <outline>
    <contour>
      <point x="448" y="-11" type="curve" smooth="yes"/>
      <point x="512.667" y="-11"/>
      <point x="571" y="-2.333"/>
      <point x="623" y="15" type="curve"/>
      <point x="623" y="234" type="line"/>
      <point x="596.333" y="228.667"/>
      <point x="568.333" y="226"/>
      <point x="539" y="226" type="curve" smooth="yes"/>
      <point x="452.333" y="226"/>
      <point x="427" y="258"/>
      <point x="427" y="338" type="curve" smooth="yes"/>
      <point x="428" y="1082" type="line"/>
      <point x="138" y="1082" type="line"/>
      <point x="138" y="298" type="line" smooth="yes"/>
      <point x="141.333" y="92"/>
      <point x="244.667" y="-11"/>
    </contour>
  </outline>
</glyph>
<glyph name="lambda" format="2">
  <advance width="1134"/>
  <unicode hex="03BB"/>
  <note>
uni03BB
</note>
  <outline>
    <contour>
      <point x="1005" y="-18" type="curve" smooth="yes"/>
      <point x="1051" y="-18"/>
      <point x="1087.667" y="-15.667"/>
      <point x="1115" y="-11" type="curve"/>
      <point x="1113" y="217" type="line"/>
      <point x="1077" y="216" type="line" smooth="yes"/>
      <point x="1042" y="216"/>
      <point x="1011" y="240"/>
      <point x="991" y="289" type="curve" smooth="yes"/>
      <point x="553" y="1383" type="line" smooth="yes"/>
      <point x="500" y="1515"/>
      <point x="275" y="1536"/>
      <point x="125" y="1524" type="curve"/>
      <point x="131" y="1309" type="line"/>
      <point x="252" y="1315"/>
      <point x="289" y="1288"/>
      <point x="318" y="1222" type="curve" smooth="yes"/>
      <point x="390" y="1057" type="line"/>
      <point x="7" y="0" type="line"/>
      <point x="319" y="0" type="line"/>
      <point x="540" y="663" type="line"/>
      <point x="711" y="194" type="line" smooth="yes"/>
      <point x="766" y="43"/>
      <point x="857" y="-18"/>
    </contour>
  </outline>
</glyph>
<glyph name="xi" format="2">
  <advance width="1004"/>
  <unicode hex="03BE"/>
  <note>
uni03BE
</note>
  <outline>
    <contour>
      <point x="791" y="-393" type="line"/>
      <point x="916.333" y="-305"/>
      <point x="1022" y="-158"/>
      <point x="1022" y="-54" type="curve" smooth="yes"/>
      <point x="1024" y="49.333"/>
      <point x="976" y="143"/>
      <point x="782" y="190" type="curve" smooth="yes"/>
      <point x="634" y="226" type="line" smooth="yes"/>
      <point x="472.667" y="264"/>
      <point x="392" y="341.333"/>
      <point x="392" y="458" type="curve" smooth="yes"/>
      <point x="392" y="624.667"/>
      <point x="500.333" y="708"/>
      <point x="717" y="708" type="curve" smooth="yes"/>
      <point x="856" y="708" type="line"/>
      <point x="856" y="949" type="line"/>
      <point x="713" y="949" type="line" smooth="yes"/>
      <point x="555.667" y="949"/>
      <point x="477" y="998.333"/>
      <point x="477" y="1097" type="curve" smooth="yes"/>
      <point x="477" y="1181"/>
      <point x="543.667" y="1237"/>
      <point x="697" y="1237" type="curve" smooth="yes"/>
      <point x="763.667" y="1237"/>
      <point x="800.667" y="1232"/>
      <point x="922" y="1200" type="curve"/>
      <point x="967" y="1426" type="line"/>
      <point x="857.667" y="1464.667"/>
      <point x="787.667" y="1476"/>
      <point x="665" y="1476" type="curve" smooth="yes"/>
      <point x="374.333" y="1476"/>
      <point x="188" y="1330.667"/>
      <point x="188" y="1092" type="curve" smooth="yes"/>
      <point x="188" y="967.333"/>
      <point x="259.667" y="879"/>
      <point x="403" y="827" type="curve"/>
      <point x="209.667" y="764.333"/>
      <point x="103" y="637.333"/>
      <point x="103" y="448" type="curve" smooth="yes"/>
      <point x="103" y="241"/>
      <point x="185" y="147"/>
      <point x="330" y="82" type="curve" smooth="yes"/>
      <point x="395" y="52"/>
      <point x="472" y="28"/>
      <point x="560" y="2" type="curve" smooth="yes"/>
      <point x="697" y="-35.333"/>
      <point x="736" y="-68"/>
      <point x="736" y="-112" type="curve" smooth="yes"/>
      <point x="736" y="-158.667"/>
      <point x="704.333" y="-215"/>
      <point x="641" y="-281" type="curve"/>
    </contour>
  </outline>
</glyph>
<glyph name="pi" format="2">
  <advance width="1220"/>
  <unicode hex="03C0"/>
  <note>
uni03C0
</note>
  <outline>
    <contour>
      <point x="1104" y="-11" type="curve" smooth="yes"/>
      <point x="1168" y="-11"/>
      <point x="1226" y="-2.333"/>
      <point x="1278" y="15" type="curve"/>
      <point x="1278" y="234" type="line"/>
      <point x="1251.333" y="228.667"/>
      <point x="1223.333" y="226"/>
      <point x="1194" y="226" type="curve" smooth="yes"/>
      <point x="1106" y="226"/>
      <point x="1083" y="259.333"/>
      <point x="1083" y="338" type="curve" smooth="yes"/>
      <point x="1083" y="861" type="line"/>
      <point x="1254" y="861" type="line"/>
      <point x="1254" y="1082" type="line"/>
      <point x="52" y="1082" type="line"/>
      <point x="52" y="861" type="line"/>
      <point x="229" y="861" type="line"/>
      <point x="229" y="0" type="line"/>
      <point x="518" y="0" type="line"/>
      <point x="518" y="861" type="line"/>
      <point x="794" y="861" type="line"/>
      <point x="794" y="296" type="line" smooth="yes"/>
      <point x="798" y="91.333"/>
      <point x="901.333" y="-11"/>
    </contour>
  </outline>
</glyph>
<glyph name="rho" format="2">
  <advance width="1160"/>
  <unicode hex="03C1"/>
  <note>
uni03C1
</note>
  <outline>
    <contour>
      <point x="113" y="-416" type="line"/>
      <point x="402" y="-416" type="line"/>
      <point x="402" y="101" type="line"/>
      <point x="470" y="20.333"/>
      <point x="558.333" y="-20"/>
      <point x="667" y="-20" type="curve" smooth="yes"/>
      <point x="923" y="-20"/>
      <point x="1086" y="181.333"/>
      <point x="1086" y="512" type="curve" smooth="yes"/>
      <point x="1086" y="525" type="line" smooth="yes"/>
      <point x="1086" y="886.333"/>
      <point x="904.667" y="1102"/>
      <point x="606" y="1102" type="curve" smooth="yes"/>
      <point x="308.667" y="1102"/>
      <point x="113" y="893.333"/>
      <point x="113" y="568" type="curve" smooth="yes"/>
    </contour>
    <contour>
      <point x="591" y="212" type="curve" smooth="yes"/>
      <point x="502.333" y="212"/>
      <point x="439.333" y="242.667"/>
      <point x="402" y="304" type="curve"/>
      <point x="402" y="545" type="line" smooth="yes"/>
      <point x="402" y="755.667"/>
      <point x="473.333" y="868"/>
      <point x="592" y="868" type="curve" smooth="yes"/>
      <point x="722.667" y="868"/>
      <point x="797" y="749"/>
      <point x="797" y="533" type="curve" smooth="yes"/>
      <point x="797" y="306.333"/>
      <point x="724.333" y="212"/>
    </contour>
  </outline>
</glyph>
<glyph name="sigmafinal" format="2">
  <advance width="1101"/>
  <unicode hex="03C2"/>
  <note>
uni03C2
</note>
  <outline>
    <contour>
      <point x="684" y="-374" type="line"/>
      <point x="804" y="-290"/>
      <point x="911" y="-139.333"/>
      <point x="911" y="-34" type="curve" smooth="yes"/>
      <point x="906" y="142"/>
      <point x="774" y="181"/>
      <point x="605" y="229" type="curve" smooth="yes"/>
      <point x="421" y="280"/>
      <point x="353" y="360.667"/>
      <point x="353" y="557" type="curve" smooth="yes"/>
      <point x="354.333" y="763.667"/>
      <point x="429.667" y="868"/>
      <point x="563" y="868" type="curve" smooth="yes"/>
      <point x="669.667" y="868"/>
      <point x="734" y="793.667"/>
      <point x="734" y="679" type="curve"/>
      <point x="1006" y="679" type="line"/>
      <point x="1006" y="936.333"/>
      <point x="833.667" y="1102"/>
      <point x="563" y="1102" type="curve" smooth="yes"/>
      <point x="254" y="1102"/>
      <point x="63" y="807"/>
      <point x="63" y="513" type="curve" smooth="yes"/>
      <point x="67" y="242.333"/>
      <point x="203" y="86.667"/>
      <point x="519" y="4" type="curve" smooth="yes"/>
      <point x="589.667" y="-12"/>
      <point x="625" y="-44"/>
      <point x="625" y="-92" type="curve" smooth="yes"/>
      <point x="626.333" y="-138.667"/>
      <point x="595.667" y="-194.667"/>
      <point x="533" y="-260" type="curve"/>
    </contour>
  </outline>
</glyph>
<glyph name="sigma" format="2">
  <advance width="1160"/>
  <unicode hex="03C3"/>
  <note>
uni03C3
</note>
  <outline>
    <contour>
      <point x="577" y="-20" type="curve" smooth="yes"/>
      <point x="757" y="-20"/>
      <point x="899" y="54"/>
      <point x="984" y="179" type="curve" smooth="yes"/>
      <point x="1040" y="262"/>
      <point x="1071" y="368"/>
      <point x="1071" y="489" type="curve" smooth="yes"/>
      <point x="1071" y="633.667"/>
      <point x="1012.667" y="753.333"/>
      <point x="896" y="848" type="curve"/>
      <point x="1150" y="848" type="line"/>
      <point x="1150" y="1082" type="line"/>
      <point x="579" y="1082" type="line" smooth="yes"/>
      <point x="262" y="1082"/>
      <point x="66" y="870"/>
      <point x="66" y="538" type="curve" smooth="yes"/>
      <point x="66" y="191"/>
      <point x="268" y="-20"/>
    </contour>
    <contour>
      <point x="577" y="212" type="curve" smooth="yes"/>
      <point x="434.333" y="212"/>
      <point x="355" y="322"/>
      <point x="355" y="530" type="curve" smooth="yes"/>
      <point x="355" y="751.333"/>
      <point x="436.333" y="848"/>
      <point x="575" y="848" type="curve" smooth="yes"/>
      <point x="707" y="848"/>
      <point x="782" y="740.333"/>
      <point x="782" y="551" type="curve" smooth="yes"/>
      <point x="782" y="315"/>
      <point x="707.667" y="212"/>
    </contour>
  </outline>
</glyph>
<glyph name="tau" format="2">
  <advance width="1068"/>
  <unicode hex="03C4"/>
  <note>
uni03C4
</note>
  <outline>
    <contour>
      <point x="697" y="-20" type="curve" smooth="yes"/>
      <point x="765" y="-20"/>
      <point x="827.333" y="-9.333"/>
      <point x="884" y="12" type="curve"/>
      <point x="854" y="232" type="line"/>
      <point x="820" y="220.667"/>
      <point x="787.333" y="215"/>
      <point x="756" y="215" type="curve" smooth="yes"/>
      <point x="690.667" y="215"/>
      <point x="665" y="249.333"/>
      <point x="665" y="328" type="curve" smooth="yes"/>
      <point x="665" y="850" type="line"/>
      <point x="1021" y="850" type="line"/>
      <point x="1021" y="1082" type="line"/>
      <point x="44" y="1082" type="line"/>
      <point x="44" y="850" type="line"/>
      <point x="376" y="850" type="line"/>
      <point x="376" y="327" type="line" smooth="yes"/>
      <point x="377.333" y="89.667"/>
      <point x="497" y="-20"/>
    </contour>
  </outline>
</glyph>
<glyph name="upsilon" format="2">
  <advance width="1117"/>
  <unicode hex="03C5"/>
  <note>
uni03C5
</note>
  <outline>
    <contour>
      <point x="539" y="-21" type="curve" smooth="yes"/>
      <point x="860.333" y="-21"/>
      <point x="1040" y="200.667"/>
      <point x="1040" y="566" type="curve" smooth="yes"/>
      <point x="1040" y="758"/>
      <point x="1002" y="930"/>
      <point x="926" y="1082" type="curve"/>
      <point x="650" y="1082" type="line"/>
      <point x="715.333" y="895.333"/>
      <point x="749.333" y="723.333"/>
      <point x="752" y="566" type="curve" smooth="yes"/>
      <point x="752" y="367.333"/>
      <point x="657" y="212"/>
      <point x="529" y="212" type="curve" smooth="yes"/>
      <point x="445" y="212"/>
      <point x="403" y="281.333"/>
      <point x="403" y="420" type="curve" smooth="yes"/>
      <point x="403" y="1082" type="line"/>
      <point x="113" y="1082" type="line"/>
      <point x="113" y="409" type="line" smooth="yes"/>
      <point x="115.667" y="133"/>
      <point x="261.667" y="-21"/>
    </contour>
  </outline>
</glyph>
<glyph name="phi" format="2">
  <advance width="1443"/>
  <unicode hex="03C6"/>
  <note>
uni03C6
</note>
  <outline>
    <contour>
      <point x="610" y="-478" type="line"/>
      <point x="899" y="-478" type="line"/>
      <point x="899" y="-14" type="line"/>
      <point x="1256.333" y="24.667"/>
      <point x="1460" y="232.333"/>
      <point x="1460" y="559" type="curve" smooth="yes"/>
      <point x="1460" y="761.667"/>
      <point x="1354.667" y="944.167"/>
      <point x="1192" y="1031.5" type="curve" smooth="yes"/>
      <point x="1110.667" y="1075.167"/>
      <point x="1018.333" y="1097"/>
      <point x="915" y="1097" type="curve" smooth="yes"/>
      <point x="741.667" y="1097"/>
      <point x="610" y="971"/>
      <point x="610" y="799" type="curve" smooth="yes"/>
      <point x="610" y="227" type="line"/>
      <point x="432" y="267"/>
      <point x="343" y="389.667"/>
      <point x="343" y="595" type="curve" smooth="yes"/>
      <point x="345.667" y="723"/>
      <point x="393" y="850"/>
      <point x="477" y="942" type="curve"/>
      <point x="279" y="1096" type="line"/>
      <point x="139" y="984"/>
      <point x="54" y="800.333"/>
      <point x="54" y="595" type="curve" smooth="yes"/>
      <point x="54" y="249.667"/>
      <point x="252.667" y="32"/>
      <point x="610" y="-12" type="curve"/>
    </contour>
    <contour>
      <point x="899" y="224" type="curve"/>
      <point x="899" y="812" type="line" smooth="yes"/>
      <point x="899" y="846.667"/>
      <point x="916" y="864"/>
      <point x="950" y="864" type="curve" smooth="yes"/>
      <point x="1084.667" y="864"/>
      <point x="1168.333" y="744.333"/>
      <point x="1171" y="559" type="curve" smooth="yes"/>
      <point x="1171" y="369.667"/>
      <point x="1072.333" y="257.333"/>
    </contour>
  </outline>
</glyph>
<glyph name="psi" format="2">
  <advance width="1434"/>
  <unicode hex="03C8"/>
  <note>
uni03C8
</note>
  <outline>
    <contour>
      <point x="607" y="-478" type="line"/>
      <point x="896" y="-478" type="line"/>
      <point x="896" y="-13" type="line"/>
      <point x="1256" y="25.667"/>
      <point x="1457" y="240.333"/>
      <point x="1457" y="595" type="curve" smooth="yes"/>
      <point x="1457" y="774.333"/>
      <point x="1414" y="936.667"/>
      <point x="1328" y="1082" type="curve"/>
      <point x="1060" y="1082" type="line"/>
      <point x="1130" y="899.333"/>
      <point x="1166" y="737"/>
      <point x="1168" y="595" type="curve" smooth="yes"/>
      <point x="1168" y="387"/>
      <point x="1077.333" y="264"/>
      <point x="896" y="226" type="curve"/>
      <point x="896" y="1082" type="line"/>
      <point x="607" y="1082" type="line"/>
      <point x="607" y="228" type="line"/>
      <point x="441" y="267.333"/>
      <point x="358" y="387.333"/>
      <point x="358" y="588" type="curve" smooth="yes"/>
      <point x="358" y="1082" type="line"/>
      <point x="68" y="1082" type="line"/>
      <point x="68" y="577" type="line" smooth="yes"/>
      <point x="72" y="230.333"/>
      <point x="259" y="30.667"/>
      <point x="607" y="-12" type="curve"/>
    </contour>
  </outline>
</glyph>
<glyph name="omega" format="2">
  <advance width="1687"/>
  <unicode hex="03C9"/>
  <note>
uni03C9
</note>
  <outline>
    <contour>
      <point x="520" y="-20" type="curve" smooth="yes"/>
      <point x="665.333" y="-20"/>
      <point x="776.667" y="53.333"/>
      <point x="842" y="192" type="curve"/>
      <point x="906" y="53.333"/>
      <point x="1018.333" y="-20"/>
      <point x="1165" y="-20" type="curve" smooth="yes"/>
      <point x="1450.333" y="-20"/>
      <point x="1601" y="176.667"/>
      <point x="1601" y="566" type="curve" smooth="yes"/>
      <point x="1601" y="758"/>
      <point x="1551.333" y="930"/>
      <point x="1452" y="1082" type="curve"/>
      <point x="1176" y="1082" type="line"/>
      <point x="1262" y="903.333"/>
      <point x="1307.333" y="731.333"/>
      <point x="1312" y="566" type="curve" smooth="yes"/>
      <point x="1312" y="432"/>
      <point x="1289" y="212"/>
      <point x="1155" y="212" type="curve" smooth="yes"/>
      <point x="1048.333" y="212"/>
      <point x="995" y="308.333"/>
      <point x="995" y="501" type="curve" smooth="yes"/>
      <point x="995" y="844" type="line"/>
      <point x="690" y="844" type="line"/>
      <point x="690" y="501" type="line" smooth="yes"/>
      <point x="690" y="308.333"/>
      <point x="636.667" y="212"/>
      <point x="530" y="212" type="curve" smooth="yes"/>
      <point x="397" y="212"/>
      <point x="373" y="425"/>
      <point x="373" y="566" type="curve" smooth="yes"/>
      <point x="378" y="730"/>
      <point x="423" y="902"/>
      <point x="508" y="1082" type="curve"/>
      <point x="232" y="1082" type="line"/>
      <point x="133" y="930"/>
      <point x="83" y="758"/>
      <point x="83" y="566" type="curve" smooth="yes"/>
      <point x="83" y="178"/>
      <point x="233.333" y="-20"/>
    </contour>
  </outline>
</glyph>
<glyph name="thetaSymbol" format="2">
  <advance width="1185"/>
  <unicode hex="03D1"/>
  <note>
uni03D1
</note>
  <outline>
    <contour>
      <point x="603" y="-20" type="curve" smooth="yes"/>
      <point x="897.667" y="-20"/>
      <point x="1096" y="166.333"/>
      <point x="1096" y="465" type="curve" smooth="yes"/>
      <point x="1096" y="549" type="line"/>
      <point x="1139.333" y="557"/>
      <point x="1177" y="566.333"/>
      <point x="1209" y="577" type="curve"/>
      <point x="1198" y="821" type="line"/>
      <point x="1141" y="819"/>
      <point x="1165" y="820"/>
      <point x="1108" y="820" type="curve"/>
      <point x="1107" y="1093" type="line" smooth="yes"/>
      <point x="1106" y="1349"/>
      <point x="955.333" y="1476"/>
      <point x="726" y="1476" type="curve" smooth="yes"/>
      <point x="497" y="1476"/>
      <point x="340" y="1321"/>
      <point x="340" y="1076" type="curve" smooth="yes"/>
      <point x="345" y="798"/>
      <point x="521" y="604"/>
      <point x="792" y="547" type="curve"/>
      <point x="792" y="458" type="line" smooth="yes"/>
      <point x="792" y="310"/>
      <point x="727.667" y="222"/>
      <point x="617" y="222" type="curve" smooth="yes"/>
      <point x="479.667" y="222"/>
      <point x="392" y="316.667"/>
      <point x="392" y="462" type="curve" smooth="yes"/>
      <point x="392" y="704" type="line"/>
      <point x="117" y="703" type="line"/>
      <point x="117" y="466" type="line" smooth="yes"/>
      <point x="117" y="176.667"/>
      <point x="315" y="-20"/>
    </contour>
    <contour>
      <point x="792" y="813" type="line"/>
      <point x="676" y="855.667"/>
      <point x="615" y="950"/>
      <point x="615" y="1084" type="curve" smooth="yes"/>
      <point x="615" y="1174"/>
      <point x="647" y="1219"/>
      <point x="711" y="1219" type="curve" smooth="yes"/>
      <point x="763.667" y="1219"/>
      <point x="792" y="1178"/>
      <point x="792" y="1095" type="curve" smooth="yes"/>
    </contour>
  </outline>
</glyph>
<glyph name="UpsilonhookSymbol" format="2">
  <advance width="1090"/>
  <unicode hex="03D2"/>
  <note>
uni03D2
</note>
  <outline>
    <contour>
      <point x="453" y="0" type="line"/>
      <point x="755" y="0" type="line"/>
      <point x="755" y="488" type="line"/>
      <point x="1044" y="1160" type="line" smooth="yes"/>
      <point x="1064.667" y="1207.333"/>
      <point x="1097.667" y="1231"/>
      <point x="1143" y="1231" type="curve"/>
      <point x="1200" y="1226" type="line"/>
      <point x="1238" y="1457" type="line"/>
      <point x="1189.333" y="1473.667"/>
      <point x="1140.667" y="1482"/>
      <point x="1092" y="1482" type="curve" smooth="yes"/>
      <point x="949.333" y="1482"/>
      <point x="853.333" y="1411.333"/>
      <point x="788" y="1238" type="curve" smooth="yes"/>
      <point x="606" y="767" type="line"/>
      <point x="420" y="1259" type="line" smooth="yes"/>
      <point x="358.667" y="1413.667"/>
      <point x="269.667" y="1482"/>
      <point x="119" y="1482" type="curve" smooth="yes"/>
      <point x="73" y="1482"/>
      <point x="25" y="1473.667"/>
      <point x="-25" y="1457" type="curve"/>
      <point x="10" y="1226" type="line"/>
      <point x="67" y="1231" type="line"/>
      <point x="113.667" y="1231"/>
      <point x="147" y="1207.333"/>
      <point x="167" y="1160" type="curve" smooth="yes"/>
      <point x="453" y="488" type="line"/>
    </contour>
  </outline>
</glyph>
<glyph name="ho-ethiopic" format="2">
  <advance width="1128"/>
  <unicode hex="1206"/>
  <outline>
    <contour>
      <point x="464" y="902" type="curve" smooth="yes"/>
      <point x="464" y="791"/>
      <point x="558" y="701"/>
      <point x="687" y="701" type="curve" smooth="yes"/>
      <point x="814" y="701"/>
      <point x="910" y="789"/>
      <point x="910" y="902" type="curve" smooth="yes"/>
      <point x="910" y="1019"/>
      <point x="810" y="1107"/>
      <point x="687" y="1107" type="curve" smooth="yes"/>
      <point x="563" y="1107"/>
      <point x="464" y="1017"/>
    </contour>
    <contour>
      <point x="604" y="902" type="curve" smooth="yes"/>
      <point x="604" y="980"/>
      <point x="659" y="1041"/>
      <point x="742" y="1041" type="curve" smooth="yes"/>
      <point x="825" y="1041"/>
      <point x="880" y="980"/>
      <point x="880" y="902" type="curve" smooth="yes"/>
      <point x="880" y="826"/>
      <point x="827" y="765"/>
      <point x="742" y="765" type="curve" smooth="yes"/>
      <point x="657" y="765"/>
      <point x="604" y="826"/>
    </contour>
    <component base="ha.base"/>
  </outline>
</glyph>
<glyph name="lo-ethiopic" format="2">
  <advance width="1313"/>
  <unicode hex="120E"/>
  <anchor x="924" y="-122" name="_hee"/>
  <anchor x="917" y="12" name="haa"/>
  <anchor x="99" y="585" name="he"/>
  <anchor x="924" y="-122" name="hee"/>
  <anchor x="1046" y="113" name="hi"/>
  <anchor x="1039" y="667" name="hu"/>
  <anchor x="917" y="2" name="hwa"/>
  <outline>
    <contour>
      <point x="822" y="603" type="curve" smooth="yes"/>
      <point x="822" y="492"/>
      <point x="916" y="402"/>
      <point x="1045" y="402" type="curve" smooth="yes"/>
      <point x="1172" y="402"/>
      <point x="1268" y="490"/>
      <point x="1268" y="603" type="curve" smooth="yes"/>
      <point x="1268" y="720"/>
      <point x="1168" y="808"/>
      <point x="1045" y="808" type="curve" smooth="yes"/>
      <point x="921" y="808"/>
      <point x="822" y="718"/>
    </contour>
    <contour>
      <point x="937" y="603" type="curve" smooth="yes"/>
      <point x="937" y="664"/>
      <point x="980" y="712"/>
      <point x="1045" y="712" type="curve" smooth="yes"/>
      <point x="1110" y="712"/>
      <point x="1153" y="664"/>
      <point x="1153" y="603" type="curve" smooth="yes"/>
      <point x="1153" y="544"/>
      <point x="1112" y="496"/>
      <point x="1045" y="496" type="curve" smooth="yes"/>
      <point x="978" y="496"/>
      <point x="937" y="544"/>
    </contour>
    <component base="la.base"/>
  </outline>
</glyph>
<glyph name="qoa-ethiopic" format="2">
  <advance width="1757"/>
  <unicode hex="1247"/>
  <anchor x="901.995" y="11.0" name="haa"/>
  <anchor x="869" y="1281" name="hat"/>
  <anchor x="1201" y="-165" name="hee"/>
  <anchor x="1675" y="657" name="hu"/>
  <anchor x="861" y="-25" name="hwa"/>
  <anchor x="861.994" y="-25.0" name="leg"/>
  <anchor x="869.33" y="1102.0" name="neck"/>
  <outline>
    <contour>
      <point x="491" y="-242" type="line"/>
      <point x="491" y="-446" type="line"/>
      <point x="749" y="-446" type="line"/>
      <point x="749" y="-242" type="line"/>
    </contour>
    <component base="wa.base"/>
    <component base="_smart.neck" xOffset="868" yOffset="1126"/>
    <component base="_smart.leg" xOffset="860" yOffset="-312"/>
  </outline>
</glyph>
<glyph name="qhwaa-ethiopic" format="2">
  <advance width="1828"/>
  <unicode hex="125B"/>
  <anchor x="883.658" y="0" name="haa"/>
  <anchor x="844" y="-110" name="haa.acute"/>
  <anchor x="868.758" y="1363" name="hat"/>
  <anchor x="879.248" y="1232" name="he.acute.top"/>
  <anchor x="940" y="0" name="hee"/>
  <anchor x="968" y="-295" name="hi"/>
  <anchor x="1064" y="1350" name="ho.ring"/>
  <anchor x="1621.758" y="743" name="hu"/>
  <anchor x="860.735" y="0" name="hwa"/>
  <anchor x="885.95" y="1082" name="neck"/>
  <outline>
    <contour>
      <point x="491" y="-20" type="curve" smooth="yes"/>
      <point x="545" y="-20"/>
      <point x="693" y="-16"/>
      <point x="786" y="0" type="curve"/>
      <point x="974" y="0" type="line"/>
      <point x="1067" y="-16"/>
      <point x="1215" y="-20"/>
      <point x="1269" y="-20" type="curve" smooth="yes"/>
      <point x="1520" y="-20"/>
      <point x="1694" y="205"/>
      <point x="1694" y="536" type="curve" smooth="yes"/>
      <point x="1694" y="882"/>
      <point x="1522" y="1102"/>
      <point x="1267" y="1102" type="curve" smooth="yes"/>
      <point x="1214" y="1102"/>
      <point x="1046" y="1097"/>
      <point x="1003" y="1082" type="curve"/>
      <point x="757" y="1082" type="line"/>
      <point x="714" y="1097"/>
      <point x="546" y="1102"/>
      <point x="493" y="1102" type="curve" smooth="yes"/>
      <point x="238" y="1102"/>
      <point x="66" y="882"/>
      <point x="66" y="536" type="curve" smooth="yes"/>
      <point x="66" y="205"/>
      <point x="240" y="-20"/>
    </contour>
    <contour>
      <point x="640" y="137" type="curve" smooth="yes"/>
      <point x="461" y="137"/>
      <point x="354" y="284"/>
      <point x="354" y="529" type="curve" smooth="yes"/>
      <point x="354" y="804"/>
      <point x="461" y="945"/>
      <point x="642" y="945" type="curve" smooth="yes"/>
      <point x="677" y="945"/>
      <point x="730" y="940"/>
      <point x="760" y="931" type="curve"/>
      <point x="760" y="163" type="line"/>
      <point x="727" y="147"/>
      <point x="673" y="137"/>
    </contour>
    <contour>
      <point x="1120" y="137" type="curve" smooth="yes"/>
      <point x="1087" y="137"/>
      <point x="1033" y="147"/>
      <point x="1000" y="163" type="curve"/>
      <point x="1000" y="931" type="line"/>
      <point x="1030" y="940"/>
      <point x="1083" y="945"/>
      <point x="1118" y="945" type="curve" smooth="yes"/>
      <point x="1299" y="945"/>
      <point x="1406" y="804"/>
      <point x="1406" y="529" type="curve" smooth="yes"/>
      <point x="1406" y="284"/>
      <point x="1299" y="137"/>
    </contour>
    <contour>
      <point x="598" y="-388" type="line"/>
      <point x="976" y="-388" type="line"/>
      <point x="976" y="-484" type="line"/>
      <point x="1150" y="-484" type="line"/>
      <point x="1150" y="-277" type="line"/>
      <point x="980" y="-277" type="line"/>
      <point x="980" y="18" type="line"/>
      <point x="752" y="18" type="line"/>
      <point x="752" y="-277" type="line"/>
      <point x="598" y="-277" type="line"/>
    </contour>
    <contour>
      <point x="531" y="1352" type="line" name="❌"/>
      <point x="1195" y="1352" type="line" name="❌"/>
      <point x="1195" y="1507" type="line"/>
      <point x="531" y="1507" type="line"/>
    </contour>
    <contour>
      <point x="711" y="1500" type="curve"/>
      <point x="539" y="1500"/>
      <point x="409" y="1421"/>
      <point x="409" y="1268" type="curve" smooth="yes"/>
      <point x="409" y="1109"/>
      <point x="544" y="990"/>
      <point x="711" y="990" type="curve" smooth="yes"/>
      <point x="879" y="990"/>
      <point x="1013" y="1112"/>
      <point x="1013" y="1268" type="curve" smooth="yes"/>
      <point x="1013" y="1477"/>
      <point x="1004" y="1500"/>
    </contour>
    <contour>
      <point x="646" y="1416" type="curve" smooth="yes"/>
      <point x="765" y="1416"/>
      <point x="838" y="1331"/>
      <point x="838" y="1225" type="curve" smooth="yes"/>
      <point x="838" y="1117"/>
      <point x="762" y="1032"/>
      <point x="646" y="1032" type="curve" smooth="yes"/>
      <point x="530" y="1032"/>
      <point x="454" y="1117"/>
      <point x="454" y="1225" type="curve" smooth="yes"/>
      <point x="454" y="1331"/>
      <point x="527" y="1416"/>
    </contour>
  </outline>
</glyph>
<glyph name="xe-ethiopic" format="2">
  <advance width="917"/>
  <unicode hex="1285"/>
  <anchor x="912" y="17" name="haa"/>
  <anchor x="684" y="-40" name="haa.acute"/>
  <anchor x="364" y="1367" name="hat"/>
  <anchor x="222" y="1246" name="hat.left"/>
  <anchor x="678" y="539" name="he.left.outer"/>
  <anchor x="754" y="53" name="hee"/>
  <anchor x="862" y="120" name="hi"/>
  <anchor x="433" y="585" name="ho.ring"/>
  <anchor x="178" y="1252" name="ho.ring.uniq"/>
  <anchor x="844" y="638" name="hu"/>
  <anchor x="746" y="0" name="hwa"/>
  <anchor x="404" y="1102" name="neck"/>
  <anchor x="166" y="877" name="neck.left"/>
  <anchor x="42" y="1235" name="nose"/>
  <anchor x="398" y="1050" name="ring"/>
  <anchor x="531" y="1" name="xwaa"/>
  <outline>
    <contour>
      <point x="-143" y="915" type="line"/>
      <point x="-143" y="650" type="line"/>
      <point x="-15" y="650" type="line"/>
      <point x="-15" y="915" type="line"/>
    </contour>
    <component base="ga.base" xOffset="60"/>
    <component base="_smart.neck.left" xOffset="182" yOffset="910"/>
    <component base="_smart.nose" xOffset="-194" yOffset="1154"/>
  </outline>
</glyph>
<glyph name="xoa-ethiopic" format="2">
  <advance width="1101"/>
  <unicode hex="1287"/>
  <anchor x="700" y="1278" name="hat"/>
  <anchor x="909" y="-36" name="hwa"/>
  <anchor x="910" y="-45" name="leg"/>
  <outline>
    <contour>
      <point x="401" y="-352" type="line"/>
      <point x="401" y="-437" type="line"/>
      <point x="936" y="-437" type="line"/>
      <point x="936" y="-352" type="line"/>
    </contour>
    <component base="xo-ethiopic"/>
  </outline>
</glyph>
<glyph name="xwi-ethiopic" format="2">
  <advance width="1435"/>
  <unicode hex="128A"/>
  <anchor x="418" y="1177" name="hat"/>
  <anchor x="579" y="1173" name="hat.002"/>
  <anchor x="1014" y="-56" name="hee"/>
  <anchor x="1073" y="125" name="hi"/>
  <anchor x="1112" y="681" name="hu"/>
  <anchor x="953" y="3" name="hwa"/>
  <anchor x="559" y="935" name="neck"/>
  <anchor x="182" y="1235" name="nose"/>
  <anchor x="436" y="931" name="shoulder"/>
  <outline>
    <contour>
      <point x="1132" y="663" type="line"/>
      <point x="1132" y="572" type="line"/>
      <point x="1283" y="572" type="line"/>
      <point x="1283" y="663" type="line"/>
    </contour>
    <contour>
      <point x="1218" y="766" type="line"/>
      <point x="1218" y="371" type="line"/>
      <point x="1284" y="371" type="line"/>
      <point x="1284" y="766" type="line"/>
    </contour>
    <contour>
      <point x="1239" y="471" type="line"/>
      <point x="1239" y="371" type="line"/>
      <point x="1375" y="371" type="line"/>
      <point x="1375" y="471" type="line"/>
    </contour>
    <component base="ga.base" xOffset="267"/>
    <component base="_smart.shoulder" xOffset="447" yOffset="1004"/>
    <component base="_smart.nose" xOffset="12" yOffset="1134"/>
  </outline>
</glyph>
<glyph name="xwe-ethiopic" format="2">
  <advance width="1544"/>
  <unicode hex="128D"/>
  <anchor x="418" y="1177" name="hat"/>
  <anchor x="579" y="1173" name="hat.002"/>
  <anchor x="1014" y="-56" name="hee"/>
  <anchor x="1073" y="125" name="hi"/>
  <anchor x="1112" y="681" name="hu"/>
  <anchor x="953" y="3" name="hwa"/>
  <anchor x="559" y="935" name="neck"/>
  <anchor x="182" y="1235" name="nose"/>
  <anchor x="436" y="931" name="shoulder"/>
  <outline>
    <contour>
      <point x="1100" y="621" type="line"/>
      <point x="1100" y="476" type="line"/>
      <point x="1298" y="476" type="line"/>
      <point x="1298" y="621" type="line"/>
    </contour>
    <contour>
      <point x="1239" y="752" type="line"/>
      <point x="1239" y="332" type="line"/>
      <point x="1389" y="332" type="line"/>
      <point x="1389" y="752" type="line"/>
    </contour>
    <contour>
      <point x="1311" y="518" type="line"/>
      <point x="1311" y="331" type="line"/>
      <point x="1528" y="331" type="line"/>
      <point x="1528" y="518" type="line"/>
    </contour>
    <component base="ga.base" xOffset="267"/>
    <component base="_smart.shoulder" xOffset="447" yOffset="1004"/>
    <component base="_smart.nose" xOffset="12" yOffset="1134"/>
  </outline>
</glyph>
<glyph name="ne-ethiopic" format="2">
  <advance width="1171"/>
  <unicode hex="1295"/>
  <outline>
    <contour>
      <point x="714" y="0" type="line"/>
      <point x="1003" y="0" type="line"/>
      <point x="1003" y="118" type="line" smooth="yes"/>
      <point x="1003" y="312"/>
      <point x="974" y="462"/>
      <point x="893" y="556" type="curve"/>
      <point x="893" y="895"/>
      <point x="804" y="1102"/>
      <point x="511" y="1102" type="curve" smooth="yes"/>
      <point x="309" y="1102"/>
      <point x="109" y="941"/>
      <point x="71" y="807" type="curve"/>
      <point x="248" y="766" type="line"/>
      <point x="275" y="821"/>
      <point x="348" y="876"/>
      <point x="412" y="878" type="curve" smooth="yes"/>
      <point x="560" y="884"/>
      <point x="594" y="762"/>
      <point x="602" y="662" type="curve"/>
      <point x="551" y="659"/>
      <point x="491" y="647"/>
      <point x="442" y="627" type="curve"/>
      <point x="442" y="438" type="line"/>
      <point x="702" y="484"/>
      <point x="714" y="230"/>
      <point x="714" y="137" type="curve" smooth="yes"/>
    </contour>
  </outline>
</glyph>
<glyph name="nye-ethiopic" format="2">
  <advance width="968"/>
  <unicode hex="129D"/>
  <outline>
    <contour>
      <point x="664" y="0" type="line"/>
      <point x="953" y="0" type="line"/>
      <point x="953" y="118" type="line" smooth="yes"/>
      <point x="953" y="312"/>
      <point x="923.608" y="462.395"/>
      <point x="843" y="555.582" type="curve"/>
      <point x="843" y="895"/>
      <point x="754" y="1102"/>
      <point x="461" y="1102" type="curve" smooth="yes"/>
      <point x="259" y="1102"/>
      <point x="59" y="941"/>
      <point x="21" y="807" type="curve"/>
      <point x="198" y="766" type="line"/>
      <point x="225" y="821"/>
      <point x="298" y="876"/>
      <point x="362" y="878" type="curve" smooth="yes"/>
      <point x="510" y="884"/>
      <point x="544" y="762"/>
      <point x="552" y="662" type="curve"/>
      <point x="501" y="659"/>
      <point x="441" y="647"/>
      <point x="393" y="627" type="curve"/>
      <point x="392" y="438" type="line"/>
      <point x="652" y="484"/>
      <point x="664" y="230"/>
      <point x="664" y="137" type="curve" smooth="yes"/>
    </contour>
    <component base="_smart.hat.left" xOffset="384" yOffset="1234"/>
  </outline>
</glyph>
<glyph name="eGlottal-ethiopic" format="2">
  <advance width="1274"/>
  <unicode hex="12A5"/>
  <anchor x="1013" y="8" name="haa"/>
  <anchor x="676" y="1382" name="hat"/>
  <anchor x="326" y="1372" name="hat.001"/>
  <anchor x="1013" y="-91" name="hee"/>
  <anchor x="1140" y="12" name="hi"/>
  <anchor x="316" y="21" name="ho"/>
  <anchor x="1140" y="673" name="hu"/>
  <anchor x="1003" y="-3" name="hwa"/>
  <anchor x="691" y="1114" name="neck"/>
  <outline>
    <contour>
      <point x="60" y="1709" type="line"/>
      <point x="60" y="1403" type="line"/>
      <point x="232" y="1403" type="line"/>
      <point x="232" y="1709" type="line"/>
    </contour>
    <component base="ba.base" xOffset="102"/>
    <component base="_aa.neck" xOffset="1232"/>
  </outline>
</glyph>
<glyph name="zhe-ethiopic" format="2">
  <advance width="1519"/>
  <unicode hex="12E5"/>
  <anchor x="1059" y="6" name="haa"/>
  <anchor x="1064" y="-116" name="hee"/>
  <anchor x="1187" y="7" name="hi"/>
  <anchor x="364" y="-1" name="ho"/>
  <anchor x="1177" y="681" name="hu"/>
  <anchor x="1054" y="0" name="hwa"/>
  <outline>
    <contour>
      <point x="81" y="1107" type="line"/>
      <point x="512" y="1107" type="line"/>
      <point x="512" y="1248" type="line"/>
      <point x="81" y="1248" type="line"/>
    </contour>
    <component base="za.base" xOffset="167"/>
    <component base="_zha.ears" xOffset="1282"/>
  </outline>
</glyph>
<glyph name="yi-ethiopic" format="2">
  <advance width="1162"/>
  <unicode hex="12EA"/>
  <anchor x="253" y="234" name="da"/>
  <anchor x="622" y="-199" name="di"/>
  <anchor x="726" y="234" name="du"/>
  <anchor x="807" y="10" name="haa"/>
  <anchor x="402" y="-4" name="haa.acute"/>
  <anchor x="535" y="1341" name="hat"/>
  <anchor x="1279" y="756" name="he"/>
  <anchor x="353" y="1086" name="he.left.outer"/>
  <anchor x="708" y="40" name="hee"/>
  <anchor x="936" y="11" name="hha"/>
  <anchor x="754" y="-269" name="hi"/>
  <anchor x="235" y="10" name="ho"/>
  <anchor x="763" y="289" name="hu"/>
  <anchor x="809" y="0" name="hwa"/>
  <anchor x="570" y="1112" name="neck"/>
  <anchor x="433" y="13" name="ye"/>
  <outline>
    <contour>
      <point x="672" y="258" type="line"/>
      <point x="672" y="86" type="line"/>
      <point x="958" y="86" type="line"/>
      <point x="958" y="258" type="line"/>
    </contour>
    <component base="ya.base"/>
    <component base="_smart.hi" xOffset="356" yOffset="153"/>
  </outline>
</glyph>
<glyph name="ge-ethiopic" format="2">
  <advance width="934"/>
  <unicode hex="130D"/>
  <anchor x="149" y="1177" name="hat"/>
  <anchor x="310" y="1173" name="hat.002"/>
  <anchor x="745" y="-56" name="hee"/>
  <anchor x="804" y="125" name="hi"/>
  <anchor x="843" y="681" name="hu"/>
  <anchor x="684" y="3" name="hwa"/>
  <anchor x="290" y="935" name="neck"/>
  <anchor x="-87" y="1235" name="nose"/>
  <anchor x="167" y="931" name="shoulder"/>
  <outline>
    <contour>
      <point x="-44" y="664" type="curve" smooth="yes"/>
      <point x="-44" y="553"/>
      <point x="50" y="463"/>
      <point x="179" y="463" type="curve" smooth="yes"/>
      <point x="306" y="463"/>
      <point x="402" y="551"/>
      <point x="402" y="664" type="curve" smooth="yes"/>
      <point x="402" y="781"/>
      <point x="302" y="869"/>
      <point x="179" y="869" type="curve" smooth="yes"/>
      <point x="55" y="869"/>
      <point x="-44" y="779"/>
    </contour>
    <contour>
      <point x="-17" y="679" type="curve" smooth="yes"/>
      <point x="-17" y="740"/>
      <point x="26" y="788"/>
      <point x="91" y="788" type="curve" smooth="yes"/>
      <point x="156" y="788"/>
      <point x="199" y="740"/>
      <point x="199" y="679" type="curve" smooth="yes"/>
      <point x="199" y="620"/>
      <point x="158" y="572"/>
      <point x="91" y="572" type="curve" smooth="yes"/>
      <point x="24" y="572"/>
      <point x="-17" y="620"/>
    </contour>
    <component base="ga.base" xOffset="-2"/>
  </outline>
</glyph>
<glyph name="gwaa-ethiopic" format="2">
  <advance width="1071"/>
  <unicode hex="1313"/>
  <anchor x="151" y="1177" name="hat"/>
  <anchor x="312" y="1173" name="hat.002"/>
  <anchor x="747" y="-56" name="hee"/>
  <anchor x="806" y="125" name="hi"/>
  <anchor x="845" y="681" name="hu"/>
  <anchor x="686" y="3" name="hwa"/>
  <anchor x="292" y="935" name="neck"/>
  <anchor x="-85" y="1235" name="nose"/>
  <anchor x="169" y="931" name="shoulder"/>
  <outline>
    <contour>
      <point x="832" y="-394" type="line"/>
      <point x="1007" y="-394" type="line"/>
      <point x="1007" y="0" type="line"/>
      <point x="387" y="6" type="line"/>
      <point x="387" y="-169" type="line"/>
      <point x="832" y="-169" type="line"/>
    </contour>
    <component base="ga.base"/>
  </outline>
</glyph>
<glyph name="paa-ethiopic" format="2">
  <advance width="679"/>
  <unicode hex="1353"/>
  <anchor x="540" y="42" name="haa"/>
  <anchor x="259" y="10" name="haa.acute"/>
  <anchor x="290" y="1339" name="hat"/>
  <anchor x="283" y="1167" name="he.acute.top"/>
  <anchor x="329" y="50" name="hee"/>
  <anchor x="422" y="130" name="hi"/>
  <anchor x="583" y="1314" name="ho.ring"/>
  <anchor x="401" y="669" name="hu"/>
  <anchor x="336" y="-40" name="hwa"/>
  <anchor x="301" y="1082" name="neck"/>
  <outline>
    <contour>
      <point x="31" y="0" type="line"/>
      <point x="294" y="0" type="line"/>
      <point x="294" y="160" type="line"/>
      <point x="31" y="160" type="line"/>
    </contour>
    <component base="pa.base"/>
  </outline>
</glyph>
<glyph name="po-ethiopic" format="2">
  <advance width="742"/>
  <unicode hex="1356"/>
  <outline>
    <contour>
      <point x="317" y="0" type="line"/>
      <point x="497" y="870" type="line"/>
      <point x="682" y="870" type="line"/>
      <point x="682" y="1082" type="line"/>
      <point x="50" y="1082" type="line"/>
      <point x="50" y="870" type="line"/>
      <point x="210" y="870" type="line"/>
      <point x="32" y="1" type="line"/>
    </contour>
  </outline>
</glyph>
<glyph name="rya-ethiopic" format="2">
  <advance width="956"/>
  <unicode hex="1358"/>
  <anchor x="699" y="111" name="fa"/>
  <anchor x="538" y="-13" name="haa"/>
  <anchor x="515" y="-11" name="haa.acute"/>
  <anchor x="538" y="937" name="hat"/>
  <anchor x="1071" y="719" name="hee"/>
  <anchor x="1000" y="1082" name="ho.ring"/>
  <anchor x="628" y="4" name="hwa"/>
  <outline>
    <contour>
      <point x="9" y="1082" type="line"/>
      <point x="549" y="1082" type="line"/>
      <point x="549" y="1218" type="line"/>
      <point x="9" y="1218" type="line"/>
    </contour>
    <component base="ra.base"/>
    <component base="acute" xScale="-1" xOffset="1063" yOffset="-966"/>
  </outline>
</glyph>
<glyph name="comma-ethiopic" format="2">
  <advance width="556"/>
  <unicode hex="1363"/>
  <outline>
    <contour>
      <point x="108" y="1272" type="line"/>
      <point x="457" y="1272" type="line"/>
      <point x="457" y="1439" type="line"/>
      <point x="108" y="1439" type="line"/>
    </contour>
    <component base="colon" xOffset="30"/>
  </outline>
</glyph>
<glyph name="colon-ethiopic" format="2">
  <advance width="556"/>
  <unicode hex="1365"/>
  <outline>
    <contour>
      <point x="154" y="512" type="line"/>
      <point x="483" y="512" type="line"/>
      <point x="483" y="651" type="line"/>
      <point x="154" y="651" type="line"/>
    </contour>
    <component base="colon" xOffset="30"/>
  </outline>
</glyph>
<glyph name="paragraphseparator-ethiopic" format="2">
  <advance width="1337"/>
  <unicode hex="1368"/>
  <outline>
    <contour>
      <point x="726" y="416" type="curve" smooth="yes"/>
      <point x="818" y="416"/>
      <point x="874" y="472"/>
      <point x="874" y="552" type="curve" smooth="yes"/>
      <point x="874" y="632"/>
      <point x="818" y="689"/>
      <point x="726" y="689" type="curve" smooth="yes"/>
      <point x="637" y="689"/>
      <point x="578" y="632"/>
      <point x="578" y="552" type="curve" smooth="yes"/>
      <point x="578" y="472"/>
      <point x="635" y="416"/>
    </contour>
    <component base="period" xScale="0.57358" xyScale="-0.81915" yxScale="0.81915" yScale="0.57358" xOffset="73" yOffset="447"/>
    <component base="period" xScale="0.57358" xyScale="-0.81915" yxScale="0.81915" yScale="0.57358" xOffset="797" yOffset="953"/>
    <component base="period" xScale="-0.48481" xyScale="-0.87462" yxScale="0.87462" yScale="-0.48481" xOffset="319" yOffset="1029"/>
    <component base="period" xScale="-0.48481" xyScale="-0.87462" yxScale="0.87462" yScale="-0.48481" xOffset="1091" yOffset="600"/>
    <component base="period" xOffset="406"/>
    <component base="period" xOffset="407" yOffset="883"/>
  </outline>
</glyph>
<glyph name="two-ethiopic" format="2">
  <advance width="1292"/>
  <unicode hex="136A"/>
  <outline>
    <contour>
      <point x="177" y="1081" type="line"/>
      <point x="159" y="398" type="line"/>
      <point x="447" y="399" type="line"/>
      <point x="466" y="1081" type="line"/>
    </contour>
    <component base="_num.bar" xOffset="95"/>
    <component base="three" xOffset="95" yOffset="1"/>
  </outline>
</glyph>
<glyph name="three-ethiopic" format="2">
  <advance width="1150"/>
  <unicode hex="136B"/>
  <outline>
    <contour>
      <point x="64" y="0" type="line"/>
      <point x="369" y="0" type="line"/>
      <point x="365" y="1222" type="line"/>
      <point x="1089" y="1222" type="line"/>
      <point x="1089" y="1456" type="line"/>
      <point x="61" y="1456" type="line"/>
    </contour>
    <component base="_num.bar"/>
  </outline>
</glyph>
<glyph name="four-ethiopic" format="2">
  <advance width="1292"/>
  <unicode hex="136C"/>
  <outline>
    <contour>
      <point x="683" y="-20" type="curve" smooth="yes"/>
      <point x="1004" y="-20"/>
      <point x="1174" y="199"/>
      <point x="1174" y="602" type="curve" smooth="yes"/>
      <point x="1174" y="870" type="line" smooth="yes"/>
      <point x="1170" y="1261"/>
      <point x="998" y="1476"/>
      <point x="681" y="1476" type="curve" smooth="yes"/>
      <point x="364" y="1476"/>
      <point x="190" y="1262"/>
      <point x="190" y="855" type="curve" smooth="yes"/>
      <point x="190" y="587" type="line" smooth="yes"/>
      <point x="194" y="196"/>
      <point x="366" y="-20"/>
    </contour>
    <contour>
      <point x="683" y="213" type="curve" smooth="yes"/>
      <point x="540" y="213"/>
      <point x="479" y="327"/>
      <point x="479" y="564" type="curve" smooth="yes"/>
      <point x="479" y="918" type="line" smooth="yes"/>
      <point x="483" y="1141"/>
      <point x="545" y="1242"/>
      <point x="681" y="1242" type="curve" smooth="yes"/>
      <point x="821" y="1242"/>
      <point x="885" y="1137"/>
      <point x="885" y="896" type="curve" smooth="yes"/>
      <point x="885" y="550" type="line" smooth="yes"/>
      <point x="882" y="322"/>
      <point x="824" y="213"/>
    </contour>
    <component base="_num.bar" xOffset="95"/>
  </outline>
</glyph>
<glyph name="five-ethiopic" format="2">
  <advance width="1212"/>
  <unicode hex="136D"/>
  <outline>
    <contour>
      <point x="116" y="0" type="line"/>
      <point x="1144" y="0" type="line"/>
      <point x="1144" y="234" type="line"/>
      <point x="420" y="234" type="line"/>
      <point x="434" y="1456" type="line"/>
      <point x="129" y="1456" type="line"/>
    </contour>
    <component base="_num.bar" xOffset="55"/>
    <component base="_bar.part" xOffset="175" yOffset="830"/>
  </outline>
</glyph>
<glyph name="twenty-ethiopic" format="2">
  <advance width="1150"/>
  <unicode hex="1373"/>
  <outline>
    <contour>
      <point x="100" y="28" type="line"/>
      <point x="390" y="28" type="line"/>
      <point x="390" y="521" type="line"/>
      <point x="390" y="609" type="line"/>
      <point x="426" y="689"/>
      <point x="508" y="742"/>
      <point x="601" y="742" type="curve" smooth="yes"/>
      <point x="732" y="742"/>
      <point x="815" y="636"/>
      <point x="815" y="477" type="curve"/>
      <point x="815" y="28" type="line"/>
      <point x="1103" y="28" type="line"/>
      <point x="1103" y="480" type="line"/>
      <point x="1103" y="776"/>
      <point x="942" y="974"/>
      <point x="689" y="974" type="curve" smooth="yes"/>
      <point x="571" y="974"/>
      <point x="473" y="935"/>
      <point x="396" y="856" type="curve"/>
      <point x="428" y="1091"/>
      <point x="594" y="1233"/>
      <point x="883" y="1233" type="curve"/>
      <point x="883" y="1471" type="line"/>
      <point x="352" y="1469"/>
      <point x="100" y="1130"/>
      <point x="100" y="671" type="curve" smooth="yes"/>
      <point x="100" y="567" type="line"/>
    </contour>
    <component base="_num.bar"/>
  </outline>
</glyph>
<glyph name="thirty-ethiopic" format="2">
  <advance width="1150"/>
  <unicode hex="1374"/>
  <outline>
    <contour>
      <point x="0" y="63" type="line"/>
      <point x="289" y="63" type="line"/>
      <point x="289" y="918" type="line" smooth="yes"/>
      <point x="289" y="1141"/>
      <point x="265" y="1242"/>
      <point x="381" y="1242" type="curve" smooth="yes"/>
      <point x="461" y="1242"/>
      <point x="445" y="987"/>
      <point x="445" y="746" type="curve" smooth="yes"/>
      <point x="445" y="669" type="line" smooth="yes"/>
      <point x="445" y="278"/>
      <point x="621" y="63"/>
      <point x="938" y="63" type="curve" smooth="yes"/>
      <point x="1195" y="63"/>
      <point x="1179" y="277"/>
      <point x="1179" y="684" type="curve" smooth="yes"/>
      <point x="1179" y="1476" type="line"/>
      <point x="890" y="1476" type="line"/>
      <point x="890" y="621" type="line" smooth="yes"/>
      <point x="890" y="398"/>
      <point x="914" y="297"/>
      <point x="798" y="297" type="curve" smooth="yes"/>
      <point x="718" y="297"/>
      <point x="734" y="402"/>
      <point x="734" y="643" type="curve" smooth="yes"/>
      <point x="734" y="870" type="line" smooth="yes"/>
      <point x="734" y="1261"/>
      <point x="558" y="1476"/>
      <point x="241" y="1476" type="curve" smooth="yes"/>
      <point x="-16" y="1476"/>
      <point x="0" y="1262"/>
      <point x="0" y="855" type="curve" smooth="yes"/>
    </contour>
    <component base="_num.bar"/>
  </outline>
</glyph>
<glyph name="forty-ethiopic" format="2">
  <advance width="1150"/>
  <unicode hex="1375"/>
  <outline>
    <contour>
      <point x="638" y="1386" type="line"/>
      <point x="463" y="1386" type="line"/>
      <point x="463" y="630" type="line"/>
      <point x="638" y="630" type="line"/>
    </contour>
    <component base="fifty-ethiopic"/>
  </outline>
</glyph>
<glyph name="sixty-ethiopic" format="2">
  <advance width="1150"/>
  <unicode hex="1377"/>
  <outline>
    <contour>
      <point x="567" y="40" type="line"/>
      <point x="1201" y="256" type="line"/>
      <point x="1201" y="491" type="line"/>
      <point x="856" y="384" type="line"/>
      <point x="856" y="885" type="line"/>
      <point x="856" y="898" type="line"/>
      <point x="661" y="898" type="line"/>
      <point x="661" y="1458" type="line"/>
      <point x="630" y="1458" type="line"/>
      <point x="27" y="1242" type="line"/>
      <point x="27" y="1007" type="line"/>
      <point x="372" y="1114" type="line"/>
      <point x="372" y="600" type="line"/>
      <point x="567" y="600" type="line"/>
    </contour>
    <component base="_num.bar"/>
  </outline>
</glyph>
<glyph name="seventy-ethiopic" format="2">
  <advance width="1150"/>
  <unicode hex="1378"/>
  <outline>
    <contour>
      <point x="714" y="1194" type="curve"/>
      <point x="994" y="1255" type="line"/>
      <point x="913" y="1400"/>
      <point x="775" y="1476"/>
      <point x="586" y="1476" type="curve" smooth="yes"/>
      <point x="268.667" y="1476"/>
      <point x="95" y="1261.667"/>
      <point x="95" y="855" type="curve" smooth="yes"/>
      <point x="95" y="587" type="line" smooth="yes"/>
      <point x="95" y="196"/>
      <point x="270.667" y="-20"/>
      <point x="588" y="-20" type="curve" smooth="yes"/>
      <point x="745" y="-20"/>
      <point x="867" y="33"/>
      <point x="949" y="134" type="curve"/>
      <point x="692" y="242" type="line"/>
      <point x="664" y="223"/>
      <point x="630" y="213"/>
      <point x="588" y="213" type="curve" smooth="yes"/>
      <point x="445.333" y="213"/>
      <point x="384" y="326.667"/>
      <point x="384" y="564" type="curve" smooth="yes"/>
      <point x="384" y="918" type="line" smooth="yes"/>
      <point x="384" y="1141"/>
      <point x="450" y="1242"/>
      <point x="586" y="1242" type="curve" smooth="yes"/>
      <point x="639" y="1242"/>
      <point x="682" y="1227"/>
    </contour>
    <component base="ring" xOffset="530" yOffset="-230"/>
    <component base="_num.bar"/>
  </outline>
</glyph>
<glyph name="ninety-ethiopic" format="2">
  <advance width="1150"/>
  <unicode hex="137A"/>
  <outline>
    <contour>
      <point x="729" y="-29" type="line"/>
      <point x="945" y="186" type="line"/>
      <point x="784.418" y="594.258" type="line"/>
      <point x="1089" y="1294" type="line"/>
      <point x="1089" y="1456" type="line"/>
      <point x="61" y="1456" type="line"/>
      <point x="61" y="1222" type="line"/>
      <point x="785" y="1222" type="line"/>
      <point x="500" y="604" type="line"/>
    </contour>
    <component base="_num.bar"/>
  </outline>
</glyph>
<glyph name="hundred-ethiopic" format="2">
  <advance width="1326"/>
  <unicode hex="137B"/>
  <outline>
    <contour>
      <point x="200" y="0" type="line"/>
      <point x="496" y="0" type="line"/>
      <point x="496" y="587" type="line"/>
      <point x="573" y="508"/>
      <point x="671" y="469"/>
      <point x="789" y="469" type="curve" smooth="yes"/>
      <point x="1042" y="469"/>
      <point x="1203" y="667"/>
      <point x="1203" y="963" type="curve" smooth="yes"/>
      <point x="1203" y="1043"/>
      <point x="1138" y="1461"/>
      <point x="713" y="1463" type="curve" smooth="yes"/>
      <point x="406" y="1463"/>
      <point x="200" y="1232"/>
      <point x="200" y="876" type="curve" smooth="yes"/>
    </contour>
    <contour>
      <point x="701" y="701" type="curve" smooth="yes"/>
      <point x="608" y="701"/>
      <point x="526" y="754"/>
      <point x="490" y="834" type="curve"/>
      <point x="490" y="922" type="line" smooth="yes"/>
      <point x="490" y="1115"/>
      <point x="570" y="1230"/>
      <point x="707" y="1230" type="curve" smooth="yes"/>
      <point x="831" y="1230"/>
      <point x="915" y="1122"/>
      <point x="915" y="966" type="curve" smooth="yes"/>
      <point x="915" y="807"/>
      <point x="832" y="701"/>
    </contour>
    <component base="_num.bar" yScale="-1" xOffset="100" yOffset="1443"/>
  </outline>
</glyph>
<glyph name="quoteleft" format="2">
  <advance width="479"/>
  <unicode hex="2018"/>
  <note>
uni2018
</note>
  <outline>
    <contour>
      <point x="104" y="1048" type="line"/>
      <point x="333" y="1048" type="line"/>
      <point x="333" y="1215" type="line" smooth="yes"/>
      <point x="335" y="1308.333"/>
      <point x="364.667" y="1400.333"/>
      <point x="422" y="1491" type="curve"/>
      <point x="286" y="1570" type="line"/>
      <point x="183.333" y="1483.333"/>
      <point x="104" y="1323.333"/>
      <point x="104" y="1198" type="curve" smooth="yes"/>
    </contour>
  </outline>
</glyph>
<glyph name="quotesinglbase" format="2">
  <advance width="508"/>
  <unicode hex="201A"/>
  <note>
uni201A
</note>
  <outline>
    <contour>
      <point x="202" y="-305" type="line"/>
      <point x="311.333" y="-207.667"/>
      <point x="382.667" y="-55.667"/>
      <point x="384" y="63" type="curve" smooth="yes"/>
      <point x="385" y="229" type="line"/>
      <point x="147" y="229" type="line"/>
      <point x="147" y="48" type="line" smooth="yes"/>
      <point x="145" y="-50.667"/>
      <point x="118" y="-142"/>
      <point x="66" y="-226" type="curve"/>
    </contour>
  </outline>
</glyph>
<glyph name="quotedblbase" format="2">
  <advance width="825"/>
  <unicode hex="201E"/>
  <note>
uni201E
</note>
  <outline>
    <contour>
      <point x="545" y="-325" type="line"/>
      <point x="651.667" y="-230.333"/>
      <point x="725.333" y="-68"/>
      <point x="728" y="60" type="curve" smooth="yes"/>
      <point x="729" y="263" type="line"/>
      <point x="491" y="263" type="line"/>
      <point x="491" y="48" type="line" smooth="yes"/>
      <point x="489" y="-49.333"/>
      <point x="459.333" y="-147.333"/>
      <point x="402" y="-246" type="curve"/>
    </contour>
    <contour>
      <point x="209" y="-325" type="line"/>
      <point x="315.667" y="-227.667"/>
      <point x="382.667" y="-65.333"/>
      <point x="384" y="64" type="curve" smooth="yes"/>
      <point x="385" y="263" type="line"/>
      <point x="147" y="263" type="line"/>
      <point x="147" y="47" type="line" smooth="yes"/>
      <point x="145" y="-59"/>
      <point x="118" y="-156.667"/>
      <point x="66" y="-246" type="curve"/>
    </contour>
  </outline>
</glyph>
<glyph name="guilsinglright" format="2">
  <advance width="618"/>
  <unicode hex="203A"/>
  <note>
uni203A
</note>
  <outline>
    <contour>
      <point x="80" y="124" type="line"/>
      <point x="267" y="124" type="line"/>
      <point x="547" y="514" type="line"/>
      <point x="547" y="533" type="line"/>
      <point x="267" y="923" type="line"/>
      <point x="80" y="923" type="line"/>
      <point x="320" y="523" type="line"/>
    </contour>
  </outline>
</glyph>
<glyph name="Ohm" format="2">
  <advance width="1266"/>
  <unicode hex="2126"/>
  <outline>
    <contour>
      <point x="122" y="0" type="line"/>
      <point x="557" y="0" type="line"/>
      <point x="557" y="338" type="line"/>
      <point x="384" y="424"/>
      <point x="346" y="488"/>
      <point x="352" y="702" type="curve" smooth="yes"/>
      <point x="355" y="812" type="line" smooth="yes"/>
      <point x="358" y="912"/>
      <point x="379" y="1199"/>
      <point x="655" y="1199" type="curve" smooth="yes"/>
      <point x="956" y="1199"/>
      <point x="948" y="852"/>
      <point x="948" y="821" type="curve" smooth="yes"/>
      <point x="947" y="697" type="line" smooth="yes"/>
      <point x="945" y="483"/>
      <point x="922" y="419"/>
      <point x="761" y="338" type="curve"/>
      <point x="761" y="0" type="line"/>
      <point x="1195" y="0" type="line"/>
      <point x="1195" y="204" type="line"/>
      <point x="967" y="201" type="line"/>
      <point x="1196" y="327"/>
      <point x="1241" y="479"/>
      <point x="1237" y="782" type="curve" smooth="yes"/>
      <point x="1236" y="850" type="line" smooth="yes"/>
      <point x="1232" y="1094"/>
      <point x="1123" y="1294"/>
      <point x="965" y="1398" type="curve" smooth="yes"/>
      <point x="886" y="1450"/>
      <point x="756" y="1476"/>
      <point x="655" y="1476" type="curve" smooth="yes"/>
      <point x="454" y="1476"/>
      <point x="230" y="1409"/>
      <point x="143" y="1218" type="curve" smooth="yes"/>
      <point x="100" y="1123"/>
      <point x="65" y="968"/>
      <point x="65" y="849" type="curve" smooth="yes"/>
      <point x="65" y="707" type="line" smooth="yes"/>
      <point x="65" y="423"/>
      <point x="107" y="298"/>
      <point x="328" y="191" type="curve"/>
      <point x="122" y="194" type="line"/>
    </contour>
  </outline>
</glyph>
<glyph name="notequal" format="2">
  <advance width="1172"/>
  <unicode hex="2260"/>
  <note>
uni2260
</note>
  <outline>
    <contour>
      <point x="360" y="97" type="line"/>
      <point x="476" y="313" type="line"/>
      <point x="1030" y="313" type="line"/>
      <point x="1030" y="549" type="line"/>
      <point x="603" y="549" type="line"/>
      <point x="710" y="746" type="line"/>
      <point x="1030" y="746" type="line"/>
      <point x="1030" y="982" type="line"/>
      <point x="837" y="982" type="line"/>
      <point x="918" y="1132" type="line"/>
      <point x="799" y="1195" type="line"/>
      <point x="684" y="982" type="line"/>
      <point x="136" y="982" type="line"/>
      <point x="136" y="746" type="line"/>
      <point x="557" y="746" type="line"/>
      <point x="451" y="549" type="line"/>
      <point x="136" y="549" type="line"/>
      <point x="136" y="313" type="line"/>
      <point x="324" y="313" type="line"/>
      <point x="241" y="159" type="line"/>
    </contour>
  </outline>
</glyph>
<glyph name="uniF6C3" format="2">
  <advance width="470"/>
  <unicode hex="F6C3"/>
  <note>
uniF6C3
</note>
  <outline>
    <contour>
      <point x="195" y="-149" type="line"/>
      <point x="277.667" y="-66.333"/>
      <point x="340" y="80"/>
      <point x="340" y="204" type="curve" smooth="yes"/>
      <point x="340" y="275" type="line"/>
      <point x="128" y="275" type="line"/>
      <point x="128" y="172" type="line" smooth="yes"/>
      <point x="126" y="87.333"/>
      <point x="100.667" y="6.667"/>
      <point x="52" y="-70" type="curve"/>
    </contour>
  </outline>
</glyph>
<glyph name="_aa.neck" format="2">
  <outline>
    <contour>
      <point x="-1015" y="1556" type="line"/>
      <point x="-1015" y="1295" type="line"/>
      <point x="-749" y="1295" type="line"/>
      <point x="-1006" y="1120" type="line"/>
      <point x="-1019" y="751" type="line"/>
      <point x="-732" y="751" type="line"/>
      <point x="-727" y="1112" type="line"/>
      <point x="-473" y="1293" type="line"/>
      <point x="-473" y="1357" type="line"/>
      <point x="-733" y="1357" type="line"/>
      <point x="-733" y="1556" type="line"/>
    </contour>
  </outline>
</glyph>
<glyph name="_bar.part" format="2">
  <advance width="1094"/>
  <outline>
    <contour>
      <point x="163" y="81" type="line"/>
      <point x="657" y="81" type="line"/>
      <point x="657" y="256" type="line"/>
      <point x="163" y="256" type="line"/>
    </contour>
  </outline>
</glyph>
<glyph name="_da.arms.caps" format="2">
  <advance width="1292"/>
  <outline>
    <contour>
      <point x="1262" y="6" type="line"/>
      <point x="1266" y="157"/>
      <point x="1163" y="452"/>
      <point x="808" y="452" type="curve" smooth="yes"/>
      <point x="210" y="452" type="line"/>
      <point x="210" y="267" type="line"/>
      <point x="728" y="267" type="line" smooth="yes"/>
      <point x="1008" y="267"/>
      <point x="1023" y="97"/>
      <point x="1023" y="2" type="curve" smooth="yes"/>
      <point x="1023" y="1" type="line"/>
    </contour>
  </outline>
</glyph>
<glyph name="_da.flat" format="2">
  <outline>
    <contour>
      <point x="-117" y="230" type="line"/>
      <point x="-820" y="230" type="line"/>
      <point x="-820" y="-3" type="line"/>
      <point x="-117" y="-3" type="line"/>
    </contour>
  </outline>
</glyph>
<glyph name="_ka.hat.part" format="2">
  <outline>
    <contour>
      <point x="-1256" y="1352" type="line"/>
      <point x="-787" y="1362" type="line"/>
      <point x="-787" y="1474" type="line"/>
      <point x="-1044" y="1474" type="line"/>
      <point x="-1001" y="1732" type="line"/>
      <point x="-1257" y="1732" type="line"/>
      <point x="-1257" y="1443" type="line"/>
    </contour>
    <component base="_smart.hu"/>
  </outline>
</glyph>
<glyph name="_ka.part" format="2">
  <outline>
    <contour>
      <point x="-695" y="1012" type="line"/>
      <point x="-604" y="1105" type="line"/>
      <point x="-800" y="1102" type="line"/>
      <point x="-730" y="1390" type="line"/>
      <point x="-1006" y="1390" type="line"/>
      <point x="-1085" y="1014" type="line"/>
    </contour>
  </outline>
</glyph>
<glyph name="_kxa.hat.cap" format="2">
  <outline>
    <contour>
      <point x="-1384" y="1845" type="line"/>
      <point x="-1384" y="1642" type="line"/>
      <point x="-710" y="1642" type="line"/>
      <point x="-710" y="1845" type="line"/>
    </contour>
  </outline>
</glyph>
<glyph name="_kxa.hat" format="2">
  <advance width="1130"/>
  <outline>
    <contour>
      <point x="6" y="1311" type="line"/>
      <point x="670" y="1311" type="line"/>
      <point x="670" y="1466" type="line"/>
      <point x="6" y="1466" type="line"/>
    </contour>
  </outline>
</glyph>
<glyph name="_leg.part" format="2">
  <outline>
    <contour>
      <point x="-97" y="-408" type="line"/>
      <point x="128" y="-408" type="line"/>
      <point x="131" y="-54" type="line"/>
      <point x="-99" y="-54" type="line"/>
    </contour>
  </outline>
</glyph>
<glyph name="_num.bar" format="2">
  <advance width="1126"/>
  <outline>
    <contour>
      <point x="0" y="1535" type="line" name="❌"/>
      <point x="1126" y="1535" type="line" name="❌"/>
      <point x="1126" y="1710" type="line"/>
      <point x="0" y="1710" type="line"/>
    </contour>
    <contour>
      <point x="0" y="-215" type="line"/>
      <point x="1126" y="-215" type="line"/>
      <point x="1126" y="-40" type="line"/>
      <point x="0" y="-40" type="line"/>
    </contour>
  </outline>
</glyph>
<glyph name="_nya.hat" format="2">
  <outline>
    <contour>
      <point x="-103" y="1728" type="line"/>
      <point x="-103" y="1522" type="line"/>
      <point x="372" y="1522" type="line"/>
      <point x="372" y="1728" type="line"/>
    </contour>
  </outline>
</glyph>
<glyph name="_smart.aGl" format="2">
  <anchor x="-877" y="753" name="_aGl"/>
  <outline>
    <contour>
      <point x="-1021" y="711" type="line"/>
      <point x="-732" y="711" type="line"/>
      <point x="-732" y="1120" type="line"/>
      <point x="-473" y="1293" type="line"/>
      <point x="-473" y="1367" type="line"/>
      <point x="-733" y="1367" type="line"/>
      <point x="-733" y="1556" type="line"/>
      <point x="-1015" y="1556" type="line"/>
      <point x="-1015" y="1295" type="line"/>
      <point x="-749" y="1295" type="line"/>
      <point x="-1021" y="1120" type="line"/>
    </contour>
  </outline>
</glyph>
<glyph name="_smart.cha" format="2">
  <anchor x="-5" y="34" name="_cha"/>
  <outline>
    <contour>
      <point x="-374" y="18" type="curve" smooth="yes"/>
      <point x="-282" y="18"/>
      <point x="-226" y="74"/>
      <point x="-226" y="154" type="curve" smooth="yes"/>
      <point x="-226" y="234"/>
      <point x="-282" y="291"/>
      <point x="-374" y="291" type="curve" smooth="yes"/>
      <point x="-463" y="291"/>
      <point x="-522" y="234"/>
      <point x="-522" y="154" type="curve" smooth="yes"/>
      <point x="-522" y="74"/>
      <point x="-465" y="18"/>
    </contour>
    <contour>
      <point x="386" y="8" type="curve" smooth="yes"/>
      <point x="478" y="8"/>
      <point x="534" y="64"/>
      <point x="534" y="144" type="curve" smooth="yes"/>
      <point x="534" y="224"/>
      <point x="478" y="281"/>
      <point x="386" y="281" type="curve" smooth="yes"/>
      <point x="297" y="281"/>
      <point x="238" y="224"/>
      <point x="238" y="144" type="curve" smooth="yes"/>
      <point x="238" y="64"/>
      <point x="295" y="8"/>
    </contour>
  </outline>
</glyph>
<glyph name="_smart.da.caps" format="2">
  <advance width="1292"/>
  <anchor x="272" y="17" name="_da.caps"/>
  <outline>
    <contour>
      <point x="1023" y="1" type="line" name="❌"/>
      <point x="1262" y="-3" type="line" name="❌"/>
      <point x="1266" y="148"/>
      <point x="1163" y="452"/>
      <point x="808" y="452" type="curve" smooth="yes"/>
      <point x="210" y="452" type="line"/>
      <point x="210" y="267" type="line"/>
      <point x="728" y="267" type="line" smooth="yes"/>
      <point x="1008" y="267"/>
      <point x="1023" y="97"/>
      <point x="1023" y="2" type="curve" smooth="yes" name="❌"/>
    </contour>
  </outline>
</glyph>
<glyph name="_smart.da" format="2">
  <anchor x="4" y="156" name="_da"/>
  <outline>
    <contour>
      <point x="-130" y="-78" type="line"/>
      <point x="573" y="-78" type="line"/>
      <point x="573" y="155" type="line"/>
      <point x="-130" y="155" type="line"/>
    </contour>
  </outline>
</glyph>
<glyph name="_smart.di" format="2">
  <anchor x="-173" y="224" name="_di"/>
  <outline>
    <contour>
      <point x="-111" y="18" type="line"/>
      <point x="256" y="1" type="line"/>
      <point x="437" y="259" type="line"/>
      <point x="24" y="210" type="line"/>
    </contour>
    <contour>
      <point x="-54" y="524" type="line"/>
      <point x="-54" y="94" type="line"/>
      <point x="135" y="94" type="line"/>
      <point x="135" y="524" type="line"/>
    </contour>
  </outline>
</glyph>
<glyph name="_smart.eGl" format="2">
  <anchor x="231" y="1360" name="_eGl"/>
  <anchor x="769.667" y="73.333" name="_hee"/>
  <anchor x="1070" y="673" name="_hu"/>
  <outline>
    <contour>
      <point x="40" y="1298" type="line"/>
      <point x="220" y="1449" type="line"/>
      <point x="233" y="1865" type="line"/>
      <point x="-8" y="1662" type="line"/>
    </contour>
  </outline>
</glyph>
<glyph name="_smart.fa" format="2">
  <anchor x="433" y="54" name="_fa"/>
  <outline>
    <contour>
      <point x="339" y="603" type="line"/>
      <point x="129" y="588" type="line"/>
      <point x="313" y="45" type="line"/>
      <point x="528" y="45" type="line"/>
    </contour>
  </outline>
</glyph>
<glyph name="_smart.haa" format="2">
  <anchor x="-1" y="355" name="_haa"/>
  <outline>
    <contour>
      <point x="-166" y="-51" type="line"/>
      <point x="124" y="-51" type="line"/>
      <point x="124" y="353" type="line"/>
      <point x="-166" y="353" type="line"/>
    </contour>
  </outline>
</glyph>
<glyph name="_smart.hat.001" format="2">
  <anchor x="551" y="12" name="_hat.001"/>
  <outline>
    <contour>
      <point x="213" y="1" type="line"/>
      <point x="877" y="1" type="line"/>
      <point x="877" y="156" type="line"/>
      <point x="213" y="156" type="line"/>
    </contour>
  </outline>
</glyph>
<glyph name="_smart.hat.caps" format="2">
  <anchor x="294" y="1639" name="_hat.cap"/>
  <anchor x="36" y="1637" name="_hat.caps"/>
  <outline>
    <contour>
      <point x="-284" y="1642" type="line"/>
      <point x="390" y="1642" type="line"/>
      <point x="390" y="1845" type="line"/>
      <point x="-284" y="1845" type="line"/>
    </contour>
  </outline>
</glyph>
<glyph name="_smart.hat" format="2">
  <anchor x="11" y="12" name="_hat"/>
  <outline>
    <contour>
      <point x="-327" y="1" type="line" name="❌"/>
      <point x="337" y="1" type="line" name="❌"/>
      <point x="337" y="156" type="line"/>
      <point x="-327" y="156" type="line"/>
    </contour>
  </outline>
</glyph>
<glyph name="_smart.hee" format="2">
  <anchor x="1" y="320" name="_hee"/>
  <outline>
    <contour>
      <point x="-211" y="145" type="curve" smooth="yes"/>
      <point x="-211" y="34"/>
      <point x="-117" y="-56"/>
      <point x="12" y="-56" type="curve" smooth="yes"/>
      <point x="139" y="-56"/>
      <point x="235" y="32"/>
      <point x="235" y="145" type="curve" smooth="yes"/>
      <point x="235" y="262"/>
      <point x="135" y="350"/>
      <point x="12" y="350" type="curve" smooth="yes"/>
      <point x="-112" y="350"/>
      <point x="-211" y="260"/>
    </contour>
    <contour>
      <point x="-80" y="145" type="curve" smooth="yes"/>
      <point x="-80" y="225"/>
      <point x="-24" y="288"/>
      <point x="62" y="288" type="curve" smooth="yes"/>
      <point x="148" y="288"/>
      <point x="204" y="225"/>
      <point x="204" y="145" type="curve" smooth="yes"/>
      <point x="204" y="67"/>
      <point x="150" y="4"/>
      <point x="62" y="4" type="curve" smooth="yes"/>
      <point x="-26" y="4"/>
      <point x="-80" y="67"/>
    </contour>
  </outline>
</glyph>
<glyph name="_smart.hi" format="2">
  <anchor x="-16" y="115" name="_hi"/>
  <outline>
    <contour>
      <point x="96" y="-22" type="curve" smooth="yes"/>
      <point x="188" y="-22"/>
      <point x="244" y="34"/>
      <point x="244" y="114" type="curve" smooth="yes"/>
      <point x="244" y="194"/>
      <point x="188" y="251"/>
      <point x="96" y="251" type="curve" smooth="yes"/>
      <point x="7" y="251"/>
      <point x="-52" y="194"/>
      <point x="-52" y="114" type="curve" smooth="yes"/>
      <point x="-52" y="34"/>
      <point x="5" y="-22"/>
    </contour>
  </outline>
</glyph>
<glyph name="_smart.ho.caps" format="2">
  <anchor x="4" y="350" name="_ho.caps"/>
  <outline>
    <contour>
      <point x="-107" y="-8" type="line"/>
      <point x="118" y="-8" type="line"/>
      <point x="121" y="346" type="line"/>
      <point x="-109" y="346" type="line"/>
    </contour>
  </outline>
</glyph>
<glyph name="_smart.ho" format="2">
  <anchor x="4" y="350" name="_ho"/>
  <outline>
    <contour>
      <point x="-111" y="-5" type="line"/>
      <point x="189" y="-5" type="line"/>
      <point x="189" y="349" type="line"/>
      <point x="-111" y="349" type="line"/>
    </contour>
  </outline>
</glyph>
<glyph name="_smart.ho.ring" format="2">
  <anchor x="16" y="1084" name="_ho.ring"/>
  <outline>
    <contour>
      <point x="-337" y="1234" type="curve"/>
      <point x="-509" y="1234"/>
      <point x="-639" y="1155"/>
      <point x="-639" y="1002" type="curve" smooth="yes"/>
      <point x="-639" y="843"/>
      <point x="-504" y="724"/>
      <point x="-337" y="724" type="curve" smooth="yes"/>
      <point x="-169" y="724"/>
      <point x="-35" y="846"/>
      <point x="-35" y="1002" type="curve" smooth="yes"/>
      <point x="-35" y="1211"/>
      <point x="-44" y="1234"/>
    </contour>
    <contour>
      <point x="-402" y="1150" type="curve" smooth="yes"/>
      <point x="-283" y="1150"/>
      <point x="-210" y="1065"/>
      <point x="-210" y="959" type="curve" smooth="yes"/>
      <point x="-210" y="851"/>
      <point x="-286" y="766"/>
      <point x="-402" y="766" type="curve" smooth="yes"/>
      <point x="-518" y="766"/>
      <point x="-594" y="851"/>
      <point x="-594" y="959" type="curve" smooth="yes"/>
      <point x="-594" y="1065"/>
      <point x="-521" y="1150"/>
    </contour>
  </outline>
</glyph>
